Gurajada.ufo
<glyph name="exclam" format="1">
  <advance width="333"/>
  <unicode hex="0021"/>
  <outline>
    <contour>
      <point x="199" y="0" type="curve" smooth="yes" name="hr00"/>
      <point x="219" y="0"/>
      <point x="236" y="5"/>
      <point x="250" y="16" type="curve" smooth="yes"/>
      <point x="264" y="27"/>
      <point x="271" y="40"/>
      <point x="271" y="55" type="curve" smooth="yes"/>
      <point x="271" y="70"/>
      <point x="264" y="83"/>
      <point x="250" y="93" type="curve" smooth="yes"/>
      <point x="236" y="104"/>
      <point x="219" y="109"/>
      <point x="199" y="109" type="curve" smooth="yes"/>
      <point x="179" y="109"/>
      <point x="161" y="104"/>
      <point x="146" y="93" type="curve" smooth="yes"/>
      <point x="132" y="83"/>
      <point x="125" y="70"/>
      <point x="125" y="55" type="curve" smooth="yes"/>
      <point x="125" y="40"/>
      <point x="132" y="27"/>
      <point x="146" y="16" type="curve" smooth="yes"/>
      <point x="161" y="5"/>
      <point x="179" y="0"/>
    </contour>
    <contour>
      <point x="199" y="158" type="curve" smooth="yes"/>
      <point x="204" y="158"/>
      <point x="208" y="161"/>
      <point x="213" y="168" type="curve" smooth="yes"/>
      <point x="218" y="175"/>
      <point x="222" y="183"/>
      <point x="223" y="194" type="curve" smooth="yes"/>
      <point x="271" y="589" type="line" smooth="yes"/>
      <point x="274" y="610"/>
      <point x="273" y="628"/>
      <point x="268" y="644" type="curve" smooth="yes"/>
      <point x="262" y="660"/>
      <point x="253" y="668"/>
      <point x="241" y="668" type="curve" smooth="yes"/>
      <point x="180" y="668" type="line" smooth="yes"/>
      <point x="167" y="668"/>
      <point x="156" y="660"/>
      <point x="149" y="644" type="curve" smooth="yes"/>
      <point x="142" y="628"/>
      <point x="142" y="610"/>
      <point x="144" y="589" type="curve" smooth="yes"/>
      <point x="180" y="194" type="line"/>
      <point x="182" y="183"/>
      <point x="185" y="175"/>
      <point x="188" y="168" type="curve" smooth="yes"/>
      <point x="192" y="161"/>
      <point x="196" y="158"/>
    </contour>
  </outline>
</glyph>
<glyph name="percent" format="1">
  <advance width="669"/>
  <unicode hex="0025"/>
  <outline>
    <contour>
      <point x="190" y="376" type="curve" smooth="yes" name="hr00"/>
      <point x="171" y="376"/>
      <point x="156" y="382"/>
      <point x="143" y="393" type="curve" smooth="yes"/>
      <point x="130" y="404"/>
      <point x="123" y="416"/>
      <point x="123" y="431" type="curve" smooth="yes"/>
      <point x="123" y="446"/>
      <point x="130" y="459"/>
      <point x="143" y="470" type="curve" smooth="yes"/>
      <point x="156" y="481"/>
      <point x="171" y="486"/>
      <point x="190" y="486" type="curve" smooth="yes"/>
      <point x="208" y="486"/>
      <point x="224" y="481"/>
      <point x="237" y="470" type="curve" smooth="yes"/>
      <point x="250" y="459"/>
      <point x="257" y="446"/>
      <point x="257" y="431" type="curve" smooth="yes"/>
      <point x="257" y="416"/>
      <point x="250" y="404"/>
      <point x="237" y="393" type="curve" smooth="yes"/>
      <point x="224" y="382"/>
      <point x="208" y="376"/>
    </contour>
    <contour>
      <point x="190" y="316" type="curve" smooth="yes"/>
      <point x="225" y="316"/>
      <point x="255" y="327"/>
      <point x="280" y="350" type="curve" smooth="yes"/>
      <point x="305" y="373"/>
      <point x="317" y="400"/>
      <point x="317" y="431" type="curve" smooth="yes"/>
      <point x="317" y="463"/>
      <point x="305" y="490"/>
      <point x="280" y="513" type="curve" smooth="yes"/>
      <point x="255" y="535"/>
      <point x="225" y="546"/>
      <point x="190" y="546" type="curve" smooth="yes"/>
      <point x="155" y="546"/>
      <point x="125" y="535"/>
      <point x="100" y="513" type="curve" smooth="yes"/>
      <point x="75" y="490"/>
      <point x="62" y="463"/>
      <point x="62" y="431" type="curve" smooth="yes"/>
      <point x="62" y="400"/>
      <point x="75" y="373"/>
      <point x="100" y="350" type="curve" smooth="yes"/>
      <point x="125" y="327"/>
      <point x="155" y="316"/>
    </contour>
    <contour>
      <point x="482" y="61" type="curve" smooth="yes"/>
      <point x="464" y="61"/>
      <point x="448" y="67"/>
      <point x="435" y="78" type="curve" smooth="yes"/>
      <point x="422" y="88"/>
      <point x="415" y="100"/>
      <point x="415" y="115" type="curve" smooth="yes"/>
      <point x="415" y="130"/>
      <point x="422" y="143"/>
      <point x="435" y="154" type="curve" smooth="yes"/>
      <point x="448" y="165"/>
      <point x="464" y="170"/>
      <point x="482" y="170" type="curve" smooth="yes"/>
      <point x="501" y="170"/>
      <point x="516" y="165"/>
      <point x="528" y="154" type="curve" smooth="yes"/>
      <point x="541" y="143"/>
      <point x="548" y="130"/>
      <point x="548" y="115" type="curve" smooth="yes"/>
      <point x="548" y="100"/>
      <point x="541" y="89"/>
      <point x="528" y="78" type="curve" smooth="yes"/>
      <point x="516" y="68"/>
      <point x="501" y="61"/>
    </contour>
    <contour>
      <point x="482" y="0" type="curve" smooth="yes"/>
      <point x="517" y="0"/>
      <point x="547" y="11"/>
      <point x="572" y="34" type="curve" smooth="yes"/>
      <point x="597" y="57"/>
      <point x="610" y="84"/>
      <point x="610" y="115" type="curve" smooth="yes"/>
      <point x="610" y="148"/>
      <point x="597" y="175"/>
      <point x="572" y="198" type="curve" smooth="yes"/>
      <point x="547" y="220"/>
      <point x="517" y="231"/>
      <point x="482" y="231" type="curve" smooth="yes"/>
      <point x="447" y="231"/>
      <point x="417" y="220"/>
      <point x="392" y="198" type="curve" smooth="yes"/>
      <point x="367" y="175"/>
      <point x="355" y="148"/>
      <point x="355" y="115" type="curve" smooth="yes"/>
      <point x="355" y="84"/>
      <point x="367" y="57"/>
      <point x="392" y="34" type="curve" smooth="yes"/>
      <point x="417" y="11"/>
      <point x="447" y="0"/>
    </contour>
    <contour>
      <point x="202" y="0" type="line"/>
      <point x="542" y="546" type="line"/>
      <point x="470" y="546" type="line"/>
      <point x="130" y="0" type="line"/>
    </contour>
  </outline>
</glyph>
<glyph name="ampersand" format="1">
  <advance width="649"/>
  <unicode hex="0026"/>
  <outline>
    <contour>
      <point x="197" y="564" type="curve" smooth="yes" name="hr00"/>
      <point x="197" y="588"/>
      <point x="206" y="609"/>
      <point x="225" y="626" type="curve" smooth="yes"/>
      <point x="244" y="644"/>
      <point x="266" y="653"/>
      <point x="292" y="653" type="curve" smooth="yes"/>
      <point x="313" y="653"/>
      <point x="331" y="643"/>
      <point x="346" y="624" type="curve" smooth="yes"/>
      <point x="361" y="605"/>
      <point x="368" y="582"/>
      <point x="368" y="555" type="curve" smooth="yes"/>
      <point x="368" y="531"/>
      <point x="359" y="507"/>
      <point x="342" y="483" type="curve" smooth="yes"/>
      <point x="325" y="458"/>
      <point x="301" y="437"/>
      <point x="271" y="420" type="curve"/>
      <point x="247" y="451"/>
      <point x="229" y="478"/>
      <point x="216" y="503" type="curve" smooth="yes"/>
      <point x="203" y="528"/>
      <point x="197" y="548"/>
    </contour>
    <contour>
      <point x="125" y="185" type="curve" smooth="yes"/>
      <point x="125" y="211"/>
      <point x="137" y="238"/>
      <point x="160" y="266" type="curve" smooth="yes"/>
      <point x="182" y="294"/>
      <point x="213" y="320"/>
      <point x="253" y="343" type="curve"/>
      <point x="413" y="144" type="line"/>
      <point x="393" y="117"/>
      <point x="370" y="95"/>
      <point x="343" y="79" type="curve" smooth="yes"/>
      <point x="318" y="63"/>
      <point x="292" y="55"/>
      <point x="265" y="55" type="curve" smooth="yes"/>
      <point x="226" y="55"/>
      <point x="193" y="68"/>
      <point x="166" y="93" type="curve" smooth="yes"/>
      <point x="139" y="118"/>
      <point x="125" y="149"/>
    </contour>
    <contour>
      <point x="62" y="176" type="curve" smooth="yes"/>
      <point x="62" y="128"/>
      <point x="81" y="85"/>
      <point x="118" y="51" type="curve" smooth="yes"/>
      <point x="156" y="16"/>
      <point x="202" y="0"/>
      <point x="255" y="0" type="curve" smooth="yes"/>
      <point x="292" y="0"/>
      <point x="327" y="8"/>
      <point x="360" y="25" type="curve" smooth="yes"/>
      <point x="393" y="42"/>
      <point x="420" y="66"/>
      <point x="440" y="96" type="curve"/>
      <point x="515" y="8" type="line"/>
      <point x="590" y="8" type="line"/>
      <point x="480" y="153" type="line"/>
      <point x="501" y="190"/>
      <point x="512" y="242"/>
      <point x="512" y="308" type="curve"/>
      <point x="458" y="308" type="line"/>
      <point x="458" y="273"/>
      <point x="453" y="237"/>
      <point x="442" y="200" type="curve"/>
      <point x="306" y="378" type="line"/>
      <point x="345" y="400"/>
      <point x="375" y="427"/>
      <point x="398" y="459" type="curve" smooth="yes"/>
      <point x="420" y="490"/>
      <point x="432" y="522"/>
      <point x="432" y="555" type="curve" smooth="yes"/>
      <point x="432" y="597"/>
      <point x="418" y="632"/>
      <point x="390" y="661" type="curve" smooth="yes"/>
      <point x="361" y="690"/>
      <point x="326" y="705"/>
      <point x="286" y="705" type="curve" smooth="yes"/>
      <point x="244" y="705"/>
      <point x="208" y="692"/>
      <point x="178" y="666" type="curve" smooth="yes"/>
      <point x="149" y="641"/>
      <point x="135" y="610"/>
      <point x="135" y="574" type="curve" smooth="yes"/>
      <point x="135" y="550"/>
      <point x="142" y="522"/>
      <point x="157" y="490" type="curve" smooth="yes"/>
      <point x="172" y="457"/>
      <point x="194" y="423"/>
      <point x="223" y="386" type="curve"/>
      <point x="173" y="357"/>
      <point x="135" y="324"/>
      <point x="106" y="286" type="curve" smooth="yes"/>
      <point x="78" y="249"/>
      <point x="62" y="212"/>
    </contour>
  </outline>
</glyph>
<glyph name="quotesingle" format="1">
  <advance width="204"/>
  <unicode hex="0027"/>
  <outline>
    <contour>
      <point x="137" y="746" type="line" name="hr00"/>
      <point x="62" y="746" type="line"/>
      <point x="98" y="549" type="line"/>
      <point x="145" y="549" type="line"/>
    </contour>
  </outline>
</glyph>
<glyph name="parenleft" format="1">
  <advance width="365"/>
  <unicode hex="0028"/>
  <outline>
    <contour>
      <point x="306" y="-220" type="line" name="hr00"/>
      <point x="306" y="-146" type="line"/>
      <point x="270" y="-146" type="line" smooth="yes"/>
      <point x="230" y="-146"/>
      <point x="195" y="-117"/>
      <point x="166" y="-60" type="curve" smooth="yes"/>
      <point x="137" y="-3"/>
      <point x="123" y="65"/>
      <point x="123" y="146" type="curve" smooth="yes"/>
      <point x="123" y="295" type="line" smooth="yes"/>
      <point x="123" y="378"/>
      <point x="137" y="448"/>
      <point x="166" y="505" type="curve" smooth="yes"/>
      <point x="195" y="564"/>
      <point x="230" y="593"/>
      <point x="270" y="593" type="curve" smooth="yes"/>
      <point x="306" y="593" type="line"/>
      <point x="306" y="665" type="line"/>
      <point x="257" y="665" type="line" smooth="yes"/>
      <point x="203" y="665"/>
      <point x="158" y="628"/>
      <point x="120" y="556" type="curve" smooth="yes"/>
      <point x="82" y="484"/>
      <point x="62" y="398"/>
      <point x="62" y="295" type="curve" smooth="yes"/>
      <point x="62" y="179" type="line" smooth="yes"/>
      <point x="62" y="69"/>
      <point x="81" y="-25"/>
      <point x="120" y="-104" type="curve" smooth="yes"/>
      <point x="157" y="-181"/>
      <point x="203" y="-220"/>
      <point x="257" y="-220" type="curve" smooth="yes"/>
    </contour>
  </outline>
</glyph>
<glyph name="parenright" format="1">
  <advance width="365"/>
  <unicode hex="0029"/>
  <outline>
    <contour>
      <point x="111" y="-220" type="line" smooth="yes" name="hr00"/>
      <point x="165" y="-220"/>
      <point x="211" y="-181"/>
      <point x="248" y="-104" type="curve" smooth="yes"/>
      <point x="287" y="-25"/>
      <point x="306" y="69"/>
      <point x="306" y="179" type="curve" smooth="yes"/>
      <point x="306" y="295" type="line" smooth="yes"/>
      <point x="306" y="398"/>
      <point x="286" y="484"/>
      <point x="248" y="556" type="curve" smooth="yes"/>
      <point x="210" y="628"/>
      <point x="165" y="665"/>
      <point x="111" y="665" type="curve" smooth="yes"/>
      <point x="62" y="665" type="line"/>
      <point x="62" y="593" type="line"/>
      <point x="100" y="593" type="line" smooth="yes"/>
      <point x="140" y="593"/>
      <point x="173" y="564"/>
      <point x="202" y="505" type="curve" smooth="yes"/>
      <point x="230" y="448"/>
      <point x="245" y="378"/>
      <point x="245" y="295" type="curve" smooth="yes"/>
      <point x="245" y="146" type="line" smooth="yes"/>
      <point x="245" y="65"/>
      <point x="231" y="-3"/>
      <point x="202" y="-60" type="curve" smooth="yes"/>
      <point x="174" y="-117"/>
      <point x="140" y="-146"/>
      <point x="100" y="-146" type="curve" smooth="yes"/>
      <point x="62" y="-146" type="line"/>
      <point x="62" y="-220" type="line"/>
    </contour>
  </outline>
</glyph>
<glyph name="plus" format="1">
  <advance width="595"/>
  <unicode hex="002B"/>
  <outline>
    <contour>
      <point x="323" y="0" type="line" name="hr00"/>
      <point x="323" y="183" type="line"/>
      <point x="536" y="183" type="line"/>
      <point x="536" y="243" type="line"/>
      <point x="323" y="243" type="line"/>
      <point x="323" y="425" type="line"/>
      <point x="263" y="425" type="line"/>
      <point x="263" y="243" type="line"/>
      <point x="62" y="243" type="line"/>
      <point x="62" y="183" type="line"/>
      <point x="263" y="183" type="line"/>
      <point x="263" y="0" type="line"/>
    </contour>
  </outline>
</glyph>
<glyph name="comma" format="1">
  <advance width="292"/>
  <unicode hex="002C"/>
  <outline>
    <contour>
      <point x="100" y="-115" type="line" name="hr00"/>
      <point x="137" y="-115"/>
      <point x="168" y="-104"/>
      <point x="193" y="-81" type="curve" smooth="yes"/>
      <point x="219" y="-58"/>
      <point x="232" y="-31"/>
      <point x="232" y="0" type="curve" smooth="yes"/>
      <point x="232" y="30"/>
      <point x="222" y="56"/>
      <point x="203" y="78" type="curve" smooth="yes"/>
      <point x="185" y="99"/>
      <point x="163" y="109"/>
      <point x="136" y="109" type="curve" smooth="yes"/>
      <point x="116" y="109"/>
      <point x="98" y="104"/>
      <point x="83" y="93" type="curve" smooth="yes"/>
      <point x="69" y="83"/>
      <point x="62" y="70"/>
      <point x="62" y="55" type="curve" smooth="yes"/>
      <point x="62" y="40"/>
      <point x="67" y="27"/>
      <point x="78" y="16" type="curve" smooth="yes"/>
      <point x="89" y="5"/>
      <point x="102" y="0"/>
      <point x="117" y="0" type="curve" smooth="yes"/>
      <point x="134" y="0"/>
      <point x="148" y="4"/>
      <point x="160" y="13" type="curve"/>
      <point x="165" y="3" type="line"/>
      <point x="166" y="-2"/>
      <point x="166" y="-7"/>
      <point x="166" y="-12" type="curve" smooth="yes"/>
      <point x="166" y="-25"/>
      <point x="159" y="-37"/>
      <point x="146" y="-47" type="curve" smooth="yes"/>
      <point x="133" y="-56"/>
      <point x="118" y="-61"/>
      <point x="100" y="-61" type="curve"/>
    </contour>
  </outline>
</glyph>
<glyph name="hyphen" format="1">
  <advance width="425"/>
  <unicode hex="002D"/>
  <outline>
    <contour>
      <point x="366" y="189" type="line" name="hr00"/>
      <point x="366" y="249" type="line"/>
      <point x="62" y="249" type="line"/>
      <point x="62" y="189" type="line"/>
    </contour>
  </outline>
</glyph>
<glyph name="period" format="1">
  <advance width="268"/>
  <unicode hex="002E"/>
  <outline>
    <contour>
      <point x="136" y="0" type="curve" smooth="yes" name="hr00"/>
      <point x="156" y="0"/>
      <point x="173" y="5"/>
      <point x="187" y="16" type="curve" smooth="yes"/>
      <point x="201" y="27"/>
      <point x="208" y="40"/>
      <point x="208" y="55" type="curve" smooth="yes"/>
      <point x="208" y="70"/>
      <point x="201" y="83"/>
      <point x="187" y="93" type="curve" smooth="yes"/>
      <point x="173" y="104"/>
      <point x="156" y="109"/>
      <point x="136" y="109" type="curve" smooth="yes"/>
      <point x="116" y="109"/>
      <point x="98" y="104"/>
      <point x="83" y="93" type="curve" smooth="yes"/>
      <point x="69" y="83"/>
      <point x="62" y="70"/>
      <point x="62" y="55" type="curve" smooth="yes"/>
      <point x="62" y="40"/>
      <point x="69" y="27"/>
      <point x="83" y="16" type="curve" smooth="yes"/>
      <point x="98" y="5"/>
      <point x="116" y="0"/>
    </contour>
  </outline>
</glyph>
<glyph name="slash" format="1">
  <advance width="487"/>
  <unicode hex="002F"/>
  <outline>
    <contour>
      <point x="136" y="0" type="line" name="hr00"/>
      <point x="427" y="608" type="line"/>
      <point x="355" y="608" type="line"/>
      <point x="62" y="0" type="line"/>
    </contour>
  </outline>
</glyph>
<glyph name="zero" format="1">
  <advance width="604"/>
  <unicode hex="0030"/>
  <outline>
    <contour>
      <point x="310" y="45" type="curve" smooth="yes" name="hr00"/>
      <point x="253" y="45"/>
      <point x="207" y="63"/>
      <point x="172" y="100" type="curve" smooth="yes"/>
      <point x="138" y="136"/>
      <point x="121" y="184"/>
      <point x="121" y="245" type="curve" smooth="yes"/>
      <point x="121" y="306"/>
      <point x="138" y="354"/>
      <point x="171" y="390" type="curve" smooth="yes"/>
      <point x="204" y="427"/>
      <point x="249" y="445"/>
      <point x="304" y="445" type="curve" smooth="yes"/>
      <point x="359" y="445"/>
      <point x="403" y="427"/>
      <point x="436" y="390" type="curve" smooth="yes"/>
      <point x="469" y="354"/>
      <point x="486" y="306"/>
      <point x="486" y="245" type="curve" smooth="yes"/>
      <point x="486" y="184"/>
      <point x="469" y="137"/>
      <point x="437" y="100" type="curve" smooth="yes"/>
      <point x="405" y="64"/>
      <point x="363" y="45"/>
    </contour>
    <contour>
      <point x="310" y="-5" type="curve" smooth="yes"/>
      <point x="381" y="-5"/>
      <point x="438" y="18"/>
      <point x="481" y="64" type="curve" smooth="yes"/>
      <point x="524" y="109"/>
      <point x="546" y="169"/>
      <point x="546" y="245" type="curve" smooth="yes"/>
      <point x="546" y="321"/>
      <point x="524" y="382"/>
      <point x="481" y="428" type="curve" smooth="yes"/>
      <point x="438" y="473"/>
      <point x="381" y="496"/>
      <point x="310" y="496" type="curve" smooth="yes"/>
      <point x="235" y="496"/>
      <point x="174" y="473"/>
      <point x="129" y="428" type="curve" smooth="yes"/>
      <point x="84" y="382"/>
      <point x="61" y="321"/>
      <point x="61" y="245" type="curve" smooth="yes"/>
      <point x="61" y="169"/>
      <point x="84" y="109"/>
      <point x="129" y="64" type="curve" smooth="yes"/>
      <point x="174" y="18"/>
      <point x="235" y="-5"/>
    </contour>
  </outline>
</glyph>
<glyph name="one" format="1">
  <advance width="604"/>
  <unicode hex="0031"/>
  <outline>
    <contour>
      <point x="153" y="50" type="line" name="hr00"/>
      <point x="153" y="0" type="line"/>
      <point x="460" y="0" type="line"/>
      <point x="460" y="50" type="line"/>
      <point x="336" y="50" type="line"/>
      <point x="336" y="495" type="line"/>
      <point x="147" y="431" type="line"/>
      <point x="171" y="391" type="line"/>
      <point x="276" y="421" type="line"/>
      <point x="276" y="50" type="line"/>
    </contour>
  </outline>
</glyph>
<glyph name="two" format="1">
  <advance width="604"/>
  <unicode hex="0032"/>
  <outline>
    <contour>
      <point x="528" y="0" type="line" name="hr00"/>
      <point x="528" y="50" type="line"/>
      <point x="157" y="50" type="line"/>
      <point x="388" y="189" type="line" smooth="yes"/>
      <point x="431" y="215"/>
      <point x="466" y="240"/>
      <point x="491" y="269" type="curve" smooth="yes"/>
      <point x="516" y="297"/>
      <point x="528" y="323"/>
      <point x="528" y="346" type="curve" smooth="yes"/>
      <point x="528" y="387"/>
      <point x="506" y="422"/>
      <point x="462" y="451" type="curve" smooth="yes"/>
      <point x="419" y="480"/>
      <point x="366" y="495"/>
      <point x="303" y="495" type="curve" smooth="yes"/>
      <point x="255" y="495"/>
      <point x="213" y="490"/>
      <point x="176" y="480" type="curve" smooth="yes"/>
      <point x="139" y="469"/>
      <point x="111" y="454"/>
      <point x="91" y="435" type="curve"/>
      <point x="127" y="396" type="line"/>
      <point x="146" y="412"/>
      <point x="170" y="424"/>
      <point x="199" y="433" type="curve" smooth="yes"/>
      <point x="228" y="441"/>
      <point x="261" y="445"/>
      <point x="297" y="445" type="curve" smooth="yes"/>
      <point x="344" y="445"/>
      <point x="384" y="435"/>
      <point x="417" y="416" type="curve" smooth="yes"/>
      <point x="450" y="397"/>
      <point x="467" y="374"/>
      <point x="467" y="346" type="curve" smooth="yes"/>
      <point x="467" y="332"/>
      <point x="459" y="316"/>
      <point x="444" y="298" type="curve" smooth="yes"/>
      <point x="429" y="279"/>
      <point x="410" y="259"/>
      <point x="382" y="243" type="curve" smooth="yes"/>
      <point x="212" y="144" type="line"/>
      <point x="159" y="110" type="line" smooth="yes"/>
      <point x="105" y="75"/>
      <point x="78" y="50"/>
      <point x="78" y="35" type="curve" smooth="yes"/>
      <point x="78" y="25"/>
      <point x="83" y="17"/>
      <point x="92" y="10" type="curve" smooth="yes"/>
      <point x="102" y="3"/>
      <point x="114" y="0"/>
      <point x="127" y="0" type="curve" smooth="yes"/>
    </contour>
  </outline>
</glyph>
<glyph name="three" format="1">
  <advance width="604"/>
  <unicode hex="0033"/>
  <outline>
    <contour>
      <point x="212" y="0" type="line" smooth="yes" name="hr00"/>
      <point x="299" y="0"/>
      <point x="374" y="18"/>
      <point x="436" y="55" type="curve" smooth="yes"/>
      <point x="497" y="91"/>
      <point x="528" y="135"/>
      <point x="528" y="186" type="curve" smooth="yes"/>
      <point x="528" y="221"/>
      <point x="514" y="251"/>
      <point x="486" y="275" type="curve" smooth="yes"/>
      <point x="457" y="300"/>
      <point x="422" y="313"/>
      <point x="382" y="313" type="curve" smooth="yes"/>
      <point x="248" y="313" type="line"/>
      <point x="399" y="409" type="line" smooth="yes"/>
      <point x="416" y="420"/>
      <point x="429" y="429"/>
      <point x="439" y="439" type="curve" smooth="yes"/>
      <point x="449" y="448"/>
      <point x="454" y="457"/>
      <point x="454" y="464" type="curve" smooth="yes"/>
      <point x="454" y="471"/>
      <point x="450" y="476"/>
      <point x="441" y="481" type="curve" smooth="yes"/>
      <point x="431" y="486"/>
      <point x="419" y="489"/>
      <point x="406" y="489" type="curve" smooth="yes"/>
      <point x="78" y="489" type="line"/>
      <point x="78" y="440" type="line"/>
      <point x="358" y="440" type="line"/>
      <point x="208" y="345" type="line" smooth="yes"/>
      <point x="189" y="333"/>
      <point x="175" y="322"/>
      <point x="166" y="313" type="curve" smooth="yes"/>
      <point x="156" y="304"/>
      <point x="151" y="296"/>
      <point x="151" y="289" type="curve" smooth="yes"/>
      <point x="151" y="282"/>
      <point x="155" y="276"/>
      <point x="164" y="271" type="curve" smooth="yes"/>
      <point x="174" y="266"/>
      <point x="186" y="264"/>
      <point x="199" y="264" type="curve" smooth="yes"/>
      <point x="369" y="264" type="line" smooth="yes"/>
      <point x="396" y="264"/>
      <point x="419" y="256"/>
      <point x="438" y="241" type="curve" smooth="yes"/>
      <point x="457" y="226"/>
      <point x="467" y="208"/>
      <point x="467" y="186" type="curve" smooth="yes"/>
      <point x="467" y="148"/>
      <point x="440" y="116"/>
      <point x="387" y="89" type="curve" smooth="yes"/>
      <point x="334" y="62"/>
      <point x="269" y="49"/>
      <point x="193" y="49" type="curve" smooth="yes"/>
      <point x="78" y="49" type="line"/>
      <point x="78" y="0" type="line"/>
    </contour>
  </outline>
</glyph>
<glyph name="four" format="1">
  <advance width="603"/>
  <unicode hex="0034"/>
  <outline>
    <contour>
      <point x="451" y="100" type="line" name="hr00"/>
      <point x="522" y="100" type="line"/>
      <point x="522" y="150" type="line"/>
      <point x="451" y="150" type="line"/>
      <point x="451" y="300" type="line"/>
      <point x="377" y="300" type="line"/>
      <point x="377" y="150" type="line"/>
      <point x="161" y="150" type="line"/>
      <point x="419" y="465" type="line"/>
      <point x="372" y="495" type="line"/>
      <point x="131" y="200" type="line" smooth="yes"/>
      <point x="115" y="180"/>
      <point x="103" y="165"/>
      <point x="96" y="154" type="curve" smooth="yes"/>
      <point x="87" y="141"/>
      <point x="83" y="132"/>
      <point x="83" y="125" type="curve" smooth="yes"/>
      <point x="83" y="118"/>
      <point x="86" y="113"/>
      <point x="92" y="108" type="curve" smooth="yes"/>
      <point x="99" y="103"/>
      <point x="106" y="100"/>
      <point x="114" y="100" type="curve" smooth="yes"/>
      <point x="377" y="100" type="line"/>
      <point x="377" y="0" type="line"/>
      <point x="451" y="0" type="line"/>
    </contour>
  </outline>
</glyph>
<glyph name="five" format="1">
  <advance width="603"/>
  <unicode hex="0035"/>
  <outline>
    <contour>
      <point x="176" y="0" type="line" smooth="yes" name="hr00"/>
      <point x="271" y="0"/>
      <point x="357" y="18"/>
      <point x="430" y="56" type="curve" smooth="yes"/>
      <point x="504" y="94"/>
      <point x="540" y="138"/>
      <point x="540" y="186" type="curve" smooth="yes"/>
      <point x="540" y="231"/>
      <point x="521" y="266"/>
      <point x="484" y="291" type="curve" smooth="yes"/>
      <point x="446" y="318"/>
      <point x="396" y="331"/>
      <point x="334" y="331" type="curve" smooth="yes"/>
      <point x="291" y="331"/>
      <point x="254" y="330"/>
      <point x="222" y="324" type="curve" smooth="yes"/>
      <point x="191" y="319"/>
      <point x="166" y="310"/>
      <point x="149" y="300" type="curve"/>
      <point x="249" y="440" type="line"/>
      <point x="540" y="440" type="line"/>
      <point x="540" y="489" type="line"/>
      <point x="200" y="489" type="line"/>
      <point x="112" y="358" type="line"/>
      <point x="104" y="343"/>
      <point x="93" y="327"/>
      <point x="81" y="310" type="curve" smooth="yes"/>
      <point x="70" y="295"/>
      <point x="66" y="285"/>
      <point x="66" y="279" type="curve" smooth="yes"/>
      <point x="66" y="270"/>
      <point x="71" y="264"/>
      <point x="80" y="259" type="curve" smooth="yes"/>
      <point x="90" y="253"/>
      <point x="102" y="250"/>
      <point x="115" y="250" type="curve" smooth="yes"/>
      <point x="135" y="250"/>
      <point x="163" y="255"/>
      <point x="196" y="269" type="curve" smooth="yes"/>
      <point x="224" y="281"/>
      <point x="273" y="289"/>
      <point x="346" y="289" type="curve" smooth="yes"/>
      <point x="383" y="289"/>
      <point x="414" y="279"/>
      <point x="441" y="259" type="curve" smooth="yes"/>
      <point x="467" y="239"/>
      <point x="480" y="215"/>
      <point x="480" y="186" type="curve" smooth="yes"/>
      <point x="480" y="148"/>
      <point x="448" y="116"/>
      <point x="385" y="89" type="curve" smooth="yes"/>
      <point x="322" y="62"/>
      <point x="246" y="49"/>
      <point x="157" y="49" type="curve" smooth="yes"/>
      <point x="91" y="49" type="line"/>
      <point x="91" y="0" type="line"/>
    </contour>
  </outline>
</glyph>
<glyph name="six" format="1">
  <advance width="604"/>
  <unicode hex="0036"/>
  <outline>
    <contour>
      <point x="321" y="45" type="curve" smooth="yes" name="hr00"/>
      <point x="258" y="45"/>
      <point x="208" y="55"/>
      <point x="171" y="76" type="curve" smooth="yes"/>
      <point x="134" y="96"/>
      <point x="115" y="123"/>
      <point x="115" y="158" type="curve" smooth="yes"/>
      <point x="115" y="188"/>
      <point x="134" y="212"/>
      <point x="171" y="229" type="curve" smooth="yes"/>
      <point x="208" y="247"/>
      <point x="258" y="256"/>
      <point x="321" y="256" type="curve" smooth="yes"/>
      <point x="374" y="256"/>
      <point x="417" y="247"/>
      <point x="452" y="226" type="curve" smooth="yes"/>
      <point x="486" y="206"/>
      <point x="503" y="180"/>
      <point x="503" y="149" type="curve" smooth="yes"/>
      <point x="503" y="119"/>
      <point x="486" y="94"/>
      <point x="452" y="75" type="curve" smooth="yes"/>
      <point x="417" y="55"/>
      <point x="374" y="45"/>
    </contour>
    <contour>
      <point x="316" y="-5" type="curve" smooth="yes"/>
      <point x="391" y="-5"/>
      <point x="451" y="10"/>
      <point x="497" y="38" type="curve" smooth="yes"/>
      <point x="542" y="66"/>
      <point x="565" y="102"/>
      <point x="565" y="149" type="curve" smooth="yes"/>
      <point x="565" y="195"/>
      <point x="542" y="233"/>
      <point x="497" y="260" type="curve" smooth="yes"/>
      <point x="451" y="288"/>
      <point x="391" y="301"/>
      <point x="316" y="301" type="curve" smooth="yes"/>
      <point x="265" y="301"/>
      <point x="222" y="298"/>
      <point x="186" y="289" type="curve" smooth="yes"/>
      <point x="151" y="281"/>
      <point x="126" y="268"/>
      <point x="113" y="253" type="curve"/>
      <point x="122" y="307"/>
      <point x="155" y="352"/>
      <point x="210" y="388" type="curve" smooth="yes"/>
      <point x="264" y="423"/>
      <point x="328" y="440"/>
      <point x="401" y="440" type="curve" smooth="yes"/>
      <point x="480" y="440" type="line"/>
      <point x="480" y="490" type="line"/>
      <point x="382" y="490" type="line" smooth="yes"/>
      <point x="288" y="490"/>
      <point x="208" y="463"/>
      <point x="142" y="408" type="curve" smooth="yes"/>
      <point x="75" y="353"/>
      <point x="42" y="286"/>
      <point x="42" y="208" type="curve" smooth="yes"/>
      <point x="42" y="143"/>
      <point x="67" y="92"/>
      <point x="117" y="53" type="curve" smooth="yes"/>
      <point x="167" y="14"/>
      <point x="233" y="-5"/>
    </contour>
  </outline>
</glyph>
<glyph name="seven" format="1">
  <advance width="603"/>
  <unicode hex="0037"/>
  <outline>
    <contour>
      <point x="172" y="-4" type="line" name="hr00"/>
      <point x="185" y="51"/>
      <point x="219" y="112"/>
      <point x="272" y="179" type="curve" smooth="yes"/>
      <point x="325" y="246"/>
      <point x="396" y="317"/>
      <point x="484" y="391" type="curve" smooth="yes"/>
      <point x="502" y="406" type="line" smooth="yes"/>
      <point x="529" y="428"/>
      <point x="542" y="443"/>
      <point x="542" y="450" type="curve" smooth="yes"/>
      <point x="542" y="461"/>
      <point x="539" y="470"/>
      <point x="532" y="479" type="curve" smooth="yes"/>
      <point x="525" y="486"/>
      <point x="516" y="490"/>
      <point x="506" y="490" type="curve" smooth="yes"/>
      <point x="63" y="490" type="line"/>
      <point x="63" y="440" type="line"/>
      <point x="457" y="440" type="line"/>
      <point x="361" y="359"/>
      <point x="283" y="281"/>
      <point x="223" y="205" type="curve" smooth="yes"/>
      <point x="163" y="129"/>
      <point x="124" y="59"/>
      <point x="106" y="-5" type="curve"/>
    </contour>
  </outline>
</glyph>
<glyph name="eight" format="1">
  <advance width="603"/>
  <unicode hex="0038"/>
  <outline>
    <contour>
      <point x="281" y="321" type="curve" smooth="yes" name="hr00"/>
      <point x="240" y="321"/>
      <point x="204" y="327"/>
      <point x="174" y="339" type="curve" smooth="yes"/>
      <point x="145" y="350"/>
      <point x="130" y="364"/>
      <point x="130" y="380" type="curve" smooth="yes"/>
      <point x="130" y="399"/>
      <point x="145" y="414"/>
      <point x="176" y="426" type="curve" smooth="yes"/>
      <point x="207" y="439"/>
      <point x="245" y="445"/>
      <point x="288" y="445" type="curve" smooth="yes"/>
      <point x="330" y="445"/>
      <point x="366" y="438"/>
      <point x="395" y="426" type="curve" smooth="yes"/>
      <point x="425" y="413"/>
      <point x="440" y="399"/>
      <point x="440" y="380" type="curve" smooth="yes"/>
      <point x="440" y="364"/>
      <point x="425" y="350"/>
      <point x="394" y="339" type="curve" smooth="yes"/>
      <point x="363" y="327"/>
      <point x="326" y="321"/>
    </contour>
    <contour>
      <point x="300" y="45" type="curve" smooth="yes"/>
      <point x="249" y="45"/>
      <point x="205" y="55"/>
      <point x="168" y="76" type="curve" smooth="yes"/>
      <point x="131" y="96"/>
      <point x="113" y="121"/>
      <point x="113" y="150" type="curve" smooth="yes"/>
      <point x="113" y="177"/>
      <point x="132" y="201"/>
      <point x="171" y="223" type="curve" smooth="yes"/>
      <point x="210" y="245"/>
      <point x="253" y="256"/>
      <point x="300" y="256" type="curve" smooth="yes"/>
      <point x="353" y="256"/>
      <point x="399" y="246"/>
      <point x="438" y="225" type="curve" smooth="yes"/>
      <point x="475" y="204"/>
      <point x="494" y="179"/>
      <point x="494" y="150" type="curve" smooth="yes"/>
      <point x="494" y="121"/>
      <point x="475" y="96"/>
      <point x="438" y="76" type="curve" smooth="yes"/>
      <point x="399" y="55"/>
      <point x="353" y="45"/>
    </contour>
    <contour>
      <point x="313" y="-5" type="curve" smooth="yes"/>
      <point x="383" y="-5"/>
      <point x="443" y="9"/>
      <point x="493" y="40" type="curve" smooth="yes"/>
      <point x="542" y="70"/>
      <point x="566" y="107"/>
      <point x="566" y="150" type="curve" smooth="yes"/>
      <point x="566" y="185"/>
      <point x="550" y="217"/>
      <point x="519" y="243" type="curve" smooth="yes"/>
      <point x="488" y="269"/>
      <point x="450" y="283"/>
      <point x="404" y="286" type="curve"/>
      <point x="434" y="295"/>
      <point x="459" y="309"/>
      <point x="478" y="328" type="curve" smooth="yes"/>
      <point x="497" y="346"/>
      <point x="506" y="365"/>
      <point x="506" y="386" type="curve" smooth="yes"/>
      <point x="506" y="416"/>
      <point x="485" y="443"/>
      <point x="444" y="464" type="curve" smooth="yes"/>
      <point x="402" y="486"/>
      <point x="352" y="496"/>
      <point x="294" y="496" type="curve" smooth="yes"/>
      <point x="231" y="496"/>
      <point x="178" y="485"/>
      <point x="135" y="464" type="curve" smooth="yes"/>
      <point x="91" y="442"/>
      <point x="69" y="416"/>
      <point x="69" y="386" type="curve" smooth="yes"/>
      <point x="69" y="366"/>
      <point x="79" y="347"/>
      <point x="100" y="329" type="curve" smooth="yes"/>
      <point x="121" y="310"/>
      <point x="148" y="295"/>
      <point x="181" y="286" type="curve"/>
      <point x="140" y="276"/>
      <point x="106" y="258"/>
      <point x="80" y="233" type="curve" smooth="yes"/>
      <point x="53" y="208"/>
      <point x="40" y="180"/>
      <point x="40" y="150" type="curve" smooth="yes"/>
      <point x="40" y="107"/>
      <point x="67" y="71"/>
      <point x="120" y="40" type="curve" smooth="yes"/>
      <point x="173" y="10"/>
      <point x="238" y="-5"/>
    </contour>
  </outline>
</glyph>
<glyph name="nine" format="1">
  <advance width="604"/>
  <unicode hex="0039"/>
  <outline>
    <contour>
      <point x="278" y="233" type="curve" smooth="yes" name="hr00"/>
      <point x="235" y="233"/>
      <point x="199" y="244"/>
      <point x="171" y="264" type="curve" smooth="yes"/>
      <point x="142" y="285"/>
      <point x="128" y="310"/>
      <point x="128" y="341" type="curve" smooth="yes"/>
      <point x="128" y="371"/>
      <point x="144" y="396"/>
      <point x="175" y="415" type="curve" smooth="yes"/>
      <point x="206" y="435"/>
      <point x="244" y="445"/>
      <point x="291" y="445" type="curve" smooth="yes"/>
      <point x="344" y="445"/>
      <point x="387" y="433"/>
      <point x="418" y="411" type="curve" smooth="yes"/>
      <point x="450" y="388"/>
      <point x="466" y="359"/>
      <point x="466" y="321" type="curve" smooth="yes"/>
      <point x="466" y="294"/>
      <point x="449" y="272"/>
      <point x="415" y="256" type="curve" smooth="yes"/>
      <point x="380" y="240"/>
      <point x="335" y="233"/>
    </contour>
    <contour>
      <point x="193" y="0" type="line" smooth="yes"/>
      <point x="289" y="0"/>
      <point x="371" y="28"/>
      <point x="438" y="83" type="curve" smooth="yes"/>
      <point x="506" y="138"/>
      <point x="540" y="204"/>
      <point x="540" y="283" type="curve" smooth="yes"/>
      <point x="540" y="347"/>
      <point x="517" y="400"/>
      <point x="472" y="438" type="curve" smooth="yes"/>
      <point x="426" y="477"/>
      <point x="366" y="495"/>
      <point x="291" y="495" type="curve" smooth="yes"/>
      <point x="224" y="495"/>
      <point x="169" y="481"/>
      <point x="128" y="453" type="curve" smooth="yes"/>
      <point x="87" y="425"/>
      <point x="67" y="388"/>
      <point x="67" y="341" type="curve" smooth="yes"/>
      <point x="67" y="296"/>
      <point x="87" y="258"/>
      <point x="128" y="230" type="curve" smooth="yes"/>
      <point x="169" y="202"/>
      <point x="224" y="189"/>
      <point x="291" y="189" type="curve" smooth="yes"/>
      <point x="332" y="189"/>
      <point x="368" y="193"/>
      <point x="398" y="201" type="curve" smooth="yes"/>
      <point x="429" y="210"/>
      <point x="452" y="222"/>
      <point x="467" y="238" type="curve"/>
      <point x="458" y="183"/>
      <point x="427" y="138"/>
      <point x="376" y="103" type="curve" smooth="yes"/>
      <point x="324" y="68"/>
      <point x="263" y="50"/>
      <point x="193" y="50" type="curve" smooth="yes"/>
      <point x="91" y="50" type="line"/>
      <point x="91" y="0" type="line"/>
    </contour>
  </outline>
</glyph>
<glyph name="colon" format="1">
  <advance width="268"/>
  <unicode hex="003A"/>
  <outline>
    <contour>
      <point x="136" y="255" type="curve" smooth="yes" name="hr00"/>
      <point x="156" y="255"/>
      <point x="173" y="260"/>
      <point x="187" y="271" type="curve" smooth="yes"/>
      <point x="201" y="282"/>
      <point x="208" y="295"/>
      <point x="208" y="310" type="curve" smooth="yes"/>
      <point x="208" y="325"/>
      <point x="201" y="338"/>
      <point x="187" y="348" type="curve" smooth="yes"/>
      <point x="173" y="359"/>
      <point x="156" y="364"/>
      <point x="136" y="364" type="curve" smooth="yes"/>
      <point x="116" y="364"/>
      <point x="98" y="359"/>
      <point x="83" y="348" type="curve" smooth="yes"/>
      <point x="69" y="338"/>
      <point x="62" y="325"/>
      <point x="62" y="310" type="curve" smooth="yes"/>
      <point x="62" y="295"/>
      <point x="69" y="282"/>
      <point x="83" y="271" type="curve" smooth="yes"/>
      <point x="98" y="260"/>
      <point x="116" y="255"/>
    </contour>
    <contour>
      <point x="136" y="0" type="curve" smooth="yes"/>
      <point x="156" y="0"/>
      <point x="173" y="5"/>
      <point x="187" y="16" type="curve" smooth="yes"/>
      <point x="201" y="27"/>
      <point x="208" y="40"/>
      <point x="208" y="55" type="curve" smooth="yes"/>
      <point x="208" y="70"/>
      <point x="201" y="83"/>
      <point x="187" y="93" type="curve" smooth="yes"/>
      <point x="173" y="104"/>
      <point x="156" y="109"/>
      <point x="136" y="109" type="curve" smooth="yes"/>
      <point x="116" y="109"/>
      <point x="98" y="104"/>
      <point x="83" y="93" type="curve" smooth="yes"/>
      <point x="69" y="83"/>
      <point x="62" y="70"/>
      <point x="62" y="55" type="curve" smooth="yes"/>
      <point x="62" y="40"/>
      <point x="69" y="27"/>
      <point x="83" y="16" type="curve" smooth="yes"/>
      <point x="98" y="5"/>
      <point x="116" y="0"/>
    </contour>
  </outline>
</glyph>
<glyph name="semicolon" format="1">
  <advance width="354"/>
  <unicode hex="003B"/>
  <outline>
    <contour>
      <point x="199" y="255" type="curve" smooth="yes" name="hr00"/>
      <point x="219" y="255"/>
      <point x="236" y="260"/>
      <point x="250" y="271" type="curve" smooth="yes"/>
      <point x="264" y="282"/>
      <point x="271" y="295"/>
      <point x="271" y="310" type="curve" smooth="yes"/>
      <point x="271" y="325"/>
      <point x="264" y="338"/>
      <point x="250" y="348" type="curve" smooth="yes"/>
      <point x="236" y="359"/>
      <point x="219" y="364"/>
      <point x="199" y="364" type="curve" smooth="yes"/>
      <point x="179" y="364"/>
      <point x="161" y="359"/>
      <point x="146" y="348" type="curve" smooth="yes"/>
      <point x="132" y="338"/>
      <point x="125" y="325"/>
      <point x="125" y="310" type="curve" smooth="yes"/>
      <point x="125" y="295"/>
      <point x="132" y="282"/>
      <point x="146" y="271" type="curve" smooth="yes"/>
      <point x="161" y="260"/>
      <point x="179" y="255"/>
    </contour>
    <contour>
      <point x="163" y="-115" type="line"/>
      <point x="200" y="-115"/>
      <point x="231" y="-104"/>
      <point x="256" y="-81" type="curve" smooth="yes"/>
      <point x="282" y="-58"/>
      <point x="295" y="-31"/>
      <point x="295" y="0" type="curve" smooth="yes"/>
      <point x="295" y="30"/>
      <point x="285" y="56"/>
      <point x="266" y="78" type="curve" smooth="yes"/>
      <point x="248" y="99"/>
      <point x="226" y="109"/>
      <point x="199" y="109" type="curve" smooth="yes"/>
      <point x="179" y="109"/>
      <point x="161" y="104"/>
      <point x="146" y="93" type="curve" smooth="yes"/>
      <point x="132" y="83"/>
      <point x="125" y="70"/>
      <point x="125" y="55" type="curve" smooth="yes"/>
      <point x="125" y="40"/>
      <point x="130" y="27"/>
      <point x="141" y="16" type="curve" smooth="yes"/>
      <point x="152" y="5"/>
      <point x="165" y="0"/>
      <point x="180" y="0" type="curve" smooth="yes"/>
      <point x="197" y="0"/>
      <point x="211" y="4"/>
      <point x="223" y="13" type="curve"/>
      <point x="228" y="3" type="line"/>
      <point x="229" y="-2"/>
      <point x="229" y="-7"/>
      <point x="229" y="-12" type="curve" smooth="yes"/>
      <point x="229" y="-25"/>
      <point x="222" y="-37"/>
      <point x="209" y="-47" type="curve" smooth="yes"/>
      <point x="196" y="-56"/>
      <point x="181" y="-61"/>
      <point x="163" y="-61" type="curve"/>
    </contour>
  </outline>
</glyph>
<glyph name="less" format="1">
  <advance width="555"/>
  <unicode hex="003C"/>
  <outline>
    <contour>
      <point x="496" y="-57" type="line" name="hr00"/>
      <point x="496" y="13" type="line"/>
      <point x="123" y="238" type="line"/>
      <point x="496" y="463" type="line"/>
      <point x="496" y="530" type="line"/>
      <point x="62" y="271" type="line"/>
      <point x="62" y="198" type="line"/>
    </contour>
  </outline>
</glyph>
<glyph name="equal" format="1">
  <advance width="487"/>
  <unicode hex="003D"/>
  <outline>
    <contour>
      <point x="427" y="249" type="line" name="hr00"/>
      <point x="427" y="310" type="line"/>
      <point x="62" y="310" type="line"/>
      <point x="62" y="249" type="line"/>
    </contour>
    <contour>
      <point x="427" y="55" type="line"/>
      <point x="427" y="115" type="line"/>
      <point x="62" y="115" type="line"/>
      <point x="62" y="55" type="line"/>
    </contour>
  </outline>
</glyph>
<glyph name="greater" format="1">
  <advance width="555"/>
  <unicode hex="003E"/>
  <outline>
    <contour>
      <point x="496" y="271" type="line" name="hr00"/>
      <point x="62" y="530" type="line"/>
      <point x="62" y="463" type="line"/>
      <point x="435" y="238" type="line"/>
      <point x="62" y="13" type="line"/>
      <point x="62" y="-57" type="line"/>
      <point x="496" y="198" type="line"/>
    </contour>
  </outline>
</glyph>
<glyph name="question" format="1">
  <advance width="664"/>
  <unicode hex="003F"/>
  <outline>
    <contour>
      <point x="375" y="66" type="curve" smooth="yes" name="hr00"/>
      <point x="424" y="66"/>
      <point x="465" y="76"/>
      <point x="499" y="96" type="curve" smooth="yes"/>
      <point x="533" y="117"/>
      <point x="550" y="142"/>
      <point x="550" y="170" type="curve" smooth="yes"/>
      <point x="550" y="206" type="line"/>
      <point x="478" y="206" type="line"/>
      <point x="478" y="194" type="line" smooth="yes"/>
      <point x="478" y="177"/>
      <point x="470" y="162"/>
      <point x="455" y="151" type="curve" smooth="yes"/>
      <point x="439" y="139"/>
      <point x="420" y="134"/>
      <point x="399" y="134" type="curve" smooth="yes"/>
      <point x="356" y="134" type="line" smooth="yes"/>
      <point x="336" y="134"/>
      <point x="319" y="139"/>
      <point x="305" y="148" type="curve" smooth="yes"/>
      <point x="291" y="158"/>
      <point x="284" y="170"/>
      <point x="284" y="183" type="curve" smooth="yes"/>
      <point x="284" y="200"/>
      <point x="293" y="215"/>
      <point x="310" y="228" type="curve" smooth="yes"/>
      <point x="327" y="241"/>
      <point x="348" y="250"/>
      <point x="375" y="255" type="curve" smooth="yes"/>
      <point x="442" y="267"/>
      <point x="497" y="288"/>
      <point x="540" y="318" type="curve" smooth="yes"/>
      <point x="583" y="347"/>
      <point x="605" y="378"/>
      <point x="605" y="413" type="curve" smooth="yes"/>
      <point x="605" y="463"/>
      <point x="583" y="505"/>
      <point x="539" y="541" type="curve" smooth="yes"/>
      <point x="496" y="576"/>
      <point x="443" y="595"/>
      <point x="380" y="595" type="curve" smooth="yes"/>
      <point x="310" y="595"/>
      <point x="250" y="577"/>
      <point x="200" y="541" type="curve" smooth="yes"/>
      <point x="150" y="506"/>
      <point x="125" y="463"/>
      <point x="125" y="413" type="curve"/>
      <point x="199" y="413" type="line"/>
      <point x="199" y="446"/>
      <point x="216" y="476"/>
      <point x="250" y="499" type="curve" smooth="yes"/>
      <point x="285" y="523"/>
      <point x="327" y="534"/>
      <point x="375" y="534" type="curve" smooth="yes"/>
      <point x="418" y="534"/>
      <point x="455" y="524"/>
      <point x="486" y="503" type="curve" smooth="yes"/>
      <point x="517" y="481"/>
      <point x="533" y="455"/>
      <point x="533" y="425" type="curve" smooth="yes"/>
      <point x="533" y="402"/>
      <point x="520" y="381"/>
      <point x="493" y="361" type="curve" smooth="yes"/>
      <point x="467" y="342"/>
      <point x="434" y="328"/>
      <point x="393" y="321" type="curve" smooth="yes"/>
      <point x="340" y="311"/>
      <point x="296" y="295"/>
      <point x="261" y="268" type="curve" smooth="yes"/>
      <point x="227" y="242"/>
      <point x="210" y="214"/>
      <point x="210" y="183" type="curve" smooth="yes"/>
      <point x="210" y="150"/>
      <point x="226" y="123"/>
      <point x="259" y="100" type="curve" smooth="yes"/>
      <point x="290" y="77"/>
      <point x="329" y="66"/>
    </contour>
    <contour>
      <point x="380" y="-72" type="curve" smooth="yes"/>
      <point x="397" y="-72"/>
      <point x="411" y="-67"/>
      <point x="424" y="-56" type="curve" smooth="yes"/>
      <point x="435" y="-46"/>
      <point x="441" y="-34"/>
      <point x="441" y="-19" type="curve" smooth="yes"/>
      <point x="441" y="-4"/>
      <point x="435" y="9"/>
      <point x="424" y="20" type="curve" smooth="yes"/>
      <point x="411" y="32"/>
      <point x="397" y="36"/>
      <point x="380" y="36" type="curve" smooth="yes"/>
      <point x="363" y="36"/>
      <point x="349" y="31"/>
      <point x="338" y="20" type="curve" smooth="yes"/>
      <point x="326" y="9"/>
      <point x="320" y="-4"/>
      <point x="320" y="-19" type="curve" smooth="yes"/>
      <point x="320" y="-34"/>
      <point x="326" y="-46"/>
      <point x="338" y="-56" type="curve"/>
      <point x="349" y="-67"/>
      <point x="363" y="-72"/>
    </contour>
  </outline>
</glyph>
<glyph name="KaHalanth" format="1">
  <advance width="610"/>
  <unicode hex="0953"/>
  <outline>
    <contour>
      <point x="283" y="425" type="line" name="hr00"/>
      <point x="273" y="427"/>
      <point x="264" y="430"/>
      <point x="256" y="433" type="curve" smooth="yes"/>
      <point x="249" y="436"/>
      <point x="243" y="440"/>
      <point x="240" y="444" type="curve"/>
      <point x="247" y="455"/>
      <point x="257" y="463"/>
      <point x="271" y="470" type="curve" smooth="yes"/>
      <point x="286" y="477"/>
      <point x="302" y="480"/>
      <point x="320" y="480" type="curve" smooth="yes"/>
      <point x="335" y="480"/>
      <point x="348" y="482"/>
      <point x="359" y="485" type="curve" smooth="yes"/>
      <point x="370" y="488"/>
      <point x="379" y="492"/>
      <point x="386" y="498" type="curve"/>
      <point x="320" y="571" type="line"/>
      <point x="310" y="563"/>
      <point x="294" y="557"/>
      <point x="271" y="553" type="curve" smooth="yes"/>
      <point x="229" y="546" type="line"/>
      <point x="222" y="546"/>
      <point x="216" y="549"/>
      <point x="211" y="554" type="curve" smooth="yes"/>
      <point x="206" y="559"/>
      <point x="204" y="564"/>
      <point x="204" y="571" type="curve" smooth="yes"/>
      <point x="204" y="581"/>
      <point x="217" y="593"/>
      <point x="243" y="606" type="curve" smooth="yes"/>
      <point x="270" y="619"/>
      <point x="293" y="625"/>
      <point x="314" y="625" type="curve" smooth="yes"/>
      <point x="335" y="625"/>
      <point x="364" y="616"/>
      <point x="401" y="599" type="curve" smooth="yes"/>
      <point x="440" y="580"/>
      <point x="469" y="571"/>
      <point x="490" y="571" type="curve" smooth="yes"/>
      <point x="507" y="571"/>
      <point x="524" y="576"/>
      <point x="541" y="583" type="curve" smooth="yes"/>
      <point x="559" y="591"/>
      <point x="576" y="601"/>
      <point x="593" y="614" type="curve"/>
      <point x="508" y="693" type="line"/>
      <point x="499" y="683"/>
      <point x="488" y="675"/>
      <point x="475" y="670" type="curve" smooth="yes"/>
      <point x="461" y="664"/>
      <point x="446" y="661"/>
      <point x="429" y="661" type="curve" smooth="yes"/>
      <point x="408" y="661"/>
      <point x="378" y="667"/>
      <point x="338" y="680" type="curve" smooth="yes"/>
      <point x="298" y="693"/>
      <point x="267" y="699"/>
      <point x="246" y="699" type="curve" smooth="yes"/>
      <point x="211" y="699"/>
      <point x="176" y="687"/>
      <point x="141" y="663" type="curve" smooth="yes"/>
      <point x="106" y="638"/>
      <point x="89" y="613"/>
      <point x="89" y="589" type="curve" smooth="yes"/>
      <point x="89" y="579"/>
      <point x="96" y="567"/>
      <point x="110" y="553" type="curve" smooth="yes"/>
      <point x="124" y="538"/>
      <point x="143" y="524"/>
      <point x="168" y="510" type="curve"/>
      <point x="153" y="501"/>
      <point x="140" y="492"/>
      <point x="130" y="484" type="curve"/>
      <point x="121" y="475"/>
      <point x="115" y="468"/>
      <point x="113" y="461" type="curve"/>
      <point x="120" y="443"/>
      <point x="139" y="424"/>
      <point x="170" y="405" type="curve" smooth="yes"/>
      <point x="181" y="398"/>
      <point x="191" y="393"/>
      <point x="201" y="389" type="curve"/>
      <point x="146" y="366"/>
      <point x="101" y="333"/>
      <point x="66" y="291" type="curve"/>
      <point x="66" y="286"/>
      <point x="71" y="281"/>
      <point x="81" y="276" type="curve"/>
      <point x="121" y="261" type="line"/>
      <point x="309" y="200" type="line" smooth="yes"/>
      <point x="342" y="189"/>
      <point x="368" y="181"/>
      <point x="386" y="173" type="curve" smooth="yes"/>
      <point x="406" y="164"/>
      <point x="419" y="155"/>
      <point x="424" y="146" type="curve"/>
      <point x="410" y="127"/>
      <point x="393" y="112"/>
      <point x="373" y="101" type="curve" smooth="yes"/>
      <point x="353" y="90"/>
      <point x="332" y="85"/>
      <point x="309" y="85" type="curve"/>
      <point x="158" y="109" type="line"/>
      <point x="135" y="109"/>
      <point x="112" y="103"/>
      <point x="89" y="90" type="curve" smooth="yes"/>
      <point x="66" y="77"/>
      <point x="47" y="59"/>
      <point x="30" y="36" type="curve"/>
      <point x="164" y="-6" type="line"/>
      <point x="168" y="3"/>
      <point x="177" y="10"/>
      <point x="190" y="15" type="curve" smooth="yes"/>
      <point x="203" y="21"/>
      <point x="218" y="24"/>
      <point x="236" y="24" type="curve"/>
      <point x="381" y="6" type="line"/>
      <point x="417" y="6"/>
      <point x="450" y="19"/>
      <point x="481" y="45" type="curve" smooth="yes"/>
      <point x="513" y="71"/>
      <point x="536" y="105"/>
      <point x="551" y="146" type="curve"/>
      <point x="544" y="158"/>
      <point x="529" y="171"/>
      <point x="505" y="184" type="curve" smooth="yes"/>
      <point x="482" y="197"/>
      <point x="451" y="211"/>
      <point x="413" y="225" type="curve" smooth="yes"/>
      <point x="236" y="291" type="line"/>
      <point x="259" y="311"/>
      <point x="287" y="325"/>
      <point x="319" y="336" type="curve" smooth="yes"/>
      <point x="350" y="346"/>
      <point x="384" y="353"/>
      <point x="419" y="353" type="curve" smooth="yes"/>
      <point x="427" y="353"/>
      <point x="434" y="350"/>
      <point x="440" y="345" type="curve" smooth="yes"/>
      <point x="446" y="340"/>
      <point x="449" y="335"/>
      <point x="449" y="328" type="curve" smooth="yes"/>
      <point x="449" y="323"/>
      <point x="445" y="317"/>
      <point x="438" y="310" type="curve" smooth="yes"/>
      <point x="430" y="303"/>
      <point x="419" y="297"/>
      <point x="406" y="291" type="curve"/>
      <point x="491" y="243" type="line"/>
      <point x="508" y="253"/>
      <point x="521" y="264"/>
      <point x="531" y="275" type="curve" smooth="yes"/>
      <point x="541" y="288"/>
      <point x="546" y="299"/>
      <point x="546" y="310" type="curve" smooth="yes"/>
      <point x="546" y="333"/>
      <point x="528" y="358"/>
      <point x="491" y="385" type="curve" smooth="yes"/>
      <point x="456" y="410"/>
      <point x="424" y="425"/>
      <point x="393" y="425" type="curve" smooth="yes"/>
    </contour>
  </outline>
</glyph>
<glyph name="DEVANAGARI_DANDA" format="1">
  <advance width="245"/>
  <unicode hex="0964"/>
  <outline>
    <contour>
      <point x="186" y="-37" type="line" name="hr00"/>
      <point x="186" y="456" type="line"/>
      <point x="125" y="456" type="line"/>
      <point x="125" y="-37" type="line"/>
    </contour>
  </outline>
</glyph>
<glyph name="DEVANAGARI_DOUBLE_DANDA" format="1">
  <advance width="439"/>
  <unicode hex="0965"/>
  <outline>
    <contour>
      <point x="380" y="-37" type="line" name="hr00"/>
      <point x="380" y="456" type="line"/>
      <point x="319" y="456" type="line"/>
      <point x="319" y="-37" type="line"/>
    </contour>
    <contour>
      <point x="186" y="-37" type="line"/>
      <point x="186" y="456" type="line"/>
      <point x="125" y="456" type="line"/>
      <point x="125" y="-37" type="line"/>
    </contour>
  </outline>
</glyph>
<glyph name="Arasunna" format="1">
  <advance width="376"/>
  <unicode hex="0C01"/>
  <outline>
    <contour>
      <point x="255" y="0" type="curve" smooth="yes" name="hr00"/>
      <point x="297" y="0"/>
      <point x="332" y="10"/>
      <point x="359" y="30" type="curve"/>
      <point x="298" y="104" type="line"/>
      <point x="273" y="87"/>
      <point x="244" y="79"/>
      <point x="213" y="79" type="curve" smooth="yes"/>
      <point x="187" y="79"/>
      <point x="162" y="91"/>
      <point x="139" y="116" type="curve" smooth="yes"/>
      <point x="116" y="141"/>
      <point x="104" y="167"/>
      <point x="104" y="194" type="curve" smooth="yes"/>
      <point x="104" y="231"/>
      <point x="118" y="266"/>
      <point x="148" y="299" type="curve" smooth="yes"/>
      <point x="177" y="330"/>
      <point x="208" y="346"/>
      <point x="243" y="346" type="curve" smooth="yes"/>
      <point x="262" y="346"/>
      <point x="278" y="344"/>
      <point x="293" y="341" type="curve" smooth="yes"/>
      <point x="306" y="338"/>
      <point x="316" y="333"/>
      <point x="321" y="328" type="curve"/>
      <point x="346" y="359" type="line"/>
      <point x="329" y="380"/>
      <point x="308" y="396"/>
      <point x="283" y="408" type="curve" smooth="yes"/>
      <point x="258" y="419"/>
      <point x="233" y="425"/>
      <point x="206" y="425" type="curve" smooth="yes"/>
      <point x="165" y="425"/>
      <point x="126" y="406"/>
      <point x="88" y="368" type="curve" smooth="yes"/>
      <point x="49" y="329"/>
      <point x="30" y="290"/>
      <point x="30" y="249" type="curve" smooth="yes"/>
      <point x="30" y="190"/>
      <point x="54" y="134"/>
      <point x="103" y="81" type="curve" smooth="yes"/>
      <point x="152" y="27"/>
      <point x="202" y="0"/>
    </contour>
  </outline>
</glyph>
<glyph name="Anusvara" format="1">
  <advance width="557"/>
  <unicode hex="0C02"/>
  <outline>
    <contour>
      <point x="243" y="73" type="curve" smooth="yes" name="hr00"/>
      <point x="210" y="73"/>
      <point x="181" y="82"/>
      <point x="156" y="101" type="curve" smooth="yes"/>
      <point x="133" y="120"/>
      <point x="121" y="143"/>
      <point x="121" y="170" type="curve" smooth="yes"/>
      <point x="121" y="212"/>
      <point x="142" y="251"/>
      <point x="183" y="286" type="curve" smooth="yes"/>
      <point x="224" y="322"/>
      <point x="268" y="340"/>
      <point x="316" y="340" type="curve" smooth="yes"/>
      <point x="351" y="340"/>
      <point x="382" y="328"/>
      <point x="411" y="303" type="curve" smooth="yes"/>
      <point x="440" y="277"/>
      <point x="455" y="249"/>
      <point x="455" y="219" type="curve" smooth="yes"/>
      <point x="455" y="183"/>
      <point x="433" y="150"/>
      <point x="389" y="119" type="curve" smooth="yes"/>
      <point x="344" y="88"/>
      <point x="295" y="73"/>
    </contour>
    <contour>
      <point x="298" y="0" type="curve" smooth="yes"/>
      <point x="361" y="0"/>
      <point x="417" y="18"/>
      <point x="466" y="55" type="curve" smooth="yes"/>
      <point x="515" y="92"/>
      <point x="540" y="135"/>
      <point x="540" y="183" type="curve" smooth="yes"/>
      <point x="540" y="230"/>
      <point x="509" y="280"/>
      <point x="448" y="333" type="curve" smooth="yes"/>
      <point x="387" y="386"/>
      <point x="329" y="413"/>
      <point x="274" y="413" type="curve" smooth="yes"/>
      <point x="214" y="413"/>
      <point x="158" y="392"/>
      <point x="106" y="351" type="curve" smooth="yes"/>
      <point x="55" y="311"/>
      <point x="30" y="267"/>
      <point x="30" y="219" type="curve" smooth="yes"/>
      <point x="30" y="168"/>
      <point x="58" y="118"/>
      <point x="116" y="71" type="curve" smooth="yes"/>
      <point x="174" y="23"/>
      <point x="235" y="0"/>
    </contour>
  </outline>
</glyph>
<glyph name="Visarga" format="1">
  <advance width="266"/>
  <unicode hex="0C03"/>
  <outline>
    <contour>
      <point x="121" y="291" type="curve" smooth="yes" name="hr00"/>
      <point x="114" y="291"/>
      <point x="109" y="294"/>
      <point x="105" y="299" type="curve" smooth="yes"/>
      <point x="100" y="304"/>
      <point x="98" y="309"/>
      <point x="98" y="316" type="curve" smooth="yes"/>
      <point x="98" y="327"/>
      <point x="105" y="338"/>
      <point x="119" y="351" type="curve" smooth="yes"/>
      <point x="132" y="363"/>
      <point x="145" y="370"/>
      <point x="158" y="370" type="curve" smooth="yes"/>
      <point x="165" y="370"/>
      <point x="170" y="368"/>
      <point x="175" y="363" type="curve" smooth="yes"/>
      <point x="180" y="358"/>
      <point x="183" y="353"/>
      <point x="183" y="346" type="curve" smooth="yes"/>
      <point x="183" y="335"/>
      <point x="176" y="324"/>
      <point x="161" y="311" type="curve" smooth="yes"/>
      <point x="146" y="298"/>
      <point x="133" y="291"/>
    </contour>
    <contour>
      <point x="151" y="236" type="curve" smooth="yes"/>
      <point x="176" y="236"/>
      <point x="198" y="245"/>
      <point x="218" y="263" type="curve" smooth="yes"/>
      <point x="239" y="281"/>
      <point x="249" y="300"/>
      <point x="249" y="321" type="curve" smooth="yes"/>
      <point x="249" y="344"/>
      <point x="236" y="367"/>
      <point x="210" y="390" type="curve" smooth="yes"/>
      <point x="184" y="413"/>
      <point x="159" y="425"/>
      <point x="134" y="425" type="curve" smooth="yes"/>
      <point x="108" y="425"/>
      <point x="84" y="415"/>
      <point x="63" y="396" type="curve" smooth="yes"/>
      <point x="41" y="377"/>
      <point x="30" y="357"/>
      <point x="30" y="334" type="curve" smooth="yes"/>
      <point x="30" y="312"/>
      <point x="43" y="290"/>
      <point x="70" y="269" type="curve" smooth="yes"/>
      <point x="97" y="247"/>
      <point x="124" y="236"/>
    </contour>
    <contour>
      <point x="121" y="55" type="curve" smooth="yes"/>
      <point x="114" y="55"/>
      <point x="109" y="58"/>
      <point x="105" y="63" type="curve"/>
      <point x="100" y="67"/>
      <point x="98" y="72"/>
      <point x="98" y="79" type="curve" smooth="yes"/>
      <point x="98" y="90"/>
      <point x="105" y="102"/>
      <point x="119" y="115" type="curve" smooth="yes"/>
      <point x="132" y="128"/>
      <point x="145" y="134"/>
      <point x="158" y="134" type="curve" smooth="yes"/>
      <point x="165" y="134"/>
      <point x="170" y="131"/>
      <point x="175" y="126" type="curve" smooth="yes"/>
      <point x="180" y="121"/>
      <point x="183" y="116"/>
      <point x="183" y="109" type="curve" smooth="yes"/>
      <point x="183" y="99"/>
      <point x="176" y="87"/>
      <point x="161" y="74" type="curve" smooth="yes"/>
      <point x="146" y="61"/>
      <point x="133" y="55"/>
    </contour>
    <contour>
      <point x="151" y="0" type="curve" smooth="yes"/>
      <point x="176" y="0"/>
      <point x="198" y="10"/>
      <point x="218" y="29" type="curve" smooth="yes"/>
      <point x="239" y="48"/>
      <point x="249" y="69"/>
      <point x="249" y="91" type="curve" smooth="yes"/>
      <point x="249" y="113"/>
      <point x="236" y="135"/>
      <point x="210" y="156" type="curve" smooth="yes"/>
      <point x="184" y="178"/>
      <point x="159" y="189"/>
      <point x="134" y="189" type="curve" smooth="yes"/>
      <point x="108" y="189"/>
      <point x="84" y="180"/>
      <point x="63" y="163" type="curve" smooth="yes"/>
      <point x="41" y="144"/>
      <point x="30" y="125"/>
      <point x="30" y="104" type="curve" smooth="yes"/>
      <point x="30" y="81"/>
      <point x="43" y="58"/>
      <point x="70" y="35" type="curve" smooth="yes"/>
      <point x="97" y="12"/>
      <point x="124" y="0"/>
    </contour>
  </outline>
</glyph>
<glyph name="uni0C05" format="1">
  <advance width="667"/>
  <unicode hex="0C05"/>
  <outline>
    <contour>
      <point x="213" y="279" type="curve" smooth="yes" name="hr00"/>
      <point x="206" y="279"/>
      <point x="201" y="281"/>
      <point x="196" y="286" type="curve" smooth="yes"/>
      <point x="191" y="291"/>
      <point x="189" y="297"/>
      <point x="189" y="304" type="curve" smooth="yes"/>
      <point x="189" y="313"/>
      <point x="195" y="324"/>
      <point x="208" y="335" type="curve" smooth="yes"/>
      <point x="221" y="347"/>
      <point x="233" y="353"/>
      <point x="243" y="353" type="curve" smooth="yes"/>
      <point x="250" y="353"/>
      <point x="255" y="350"/>
      <point x="260" y="345" type="curve" smooth="yes"/>
      <point x="265" y="340"/>
      <point x="268" y="335"/>
      <point x="268" y="328" type="curve" smooth="yes"/>
      <point x="268" y="316"/>
      <point x="262" y="305"/>
      <point x="250" y="294" type="curve" smooth="yes"/>
      <point x="239" y="284"/>
      <point x="226" y="279"/>
    </contour>
    <contour>
      <point x="353" y="-6" type="curve" smooth="yes"/>
      <point x="426" y="-6"/>
      <point x="494" y="15"/>
      <point x="556" y="56" type="curve" smooth="yes"/>
      <point x="619" y="99"/>
      <point x="650" y="145"/>
      <point x="650" y="194" type="curve" smooth="yes"/>
      <point x="650" y="237"/>
      <point x="630" y="286"/>
      <point x="590" y="339" type="curve" smooth="yes"/>
      <point x="549" y="392"/>
      <point x="513" y="419"/>
      <point x="480" y="419" type="curve" smooth="yes"/>
      <point x="453" y="419"/>
      <point x="426" y="409"/>
      <point x="401" y="389" type="curve" smooth="yes"/>
      <point x="376" y="370"/>
      <point x="364" y="349"/>
      <point x="364" y="328" type="curve" smooth="yes"/>
      <point x="364" y="310"/>
      <point x="369" y="293"/>
      <point x="380" y="278" type="curve" smooth="yes"/>
      <point x="391" y="261"/>
      <point x="406" y="247"/>
      <point x="425" y="236" type="curve"/>
      <point x="425" y="223"/>
      <point x="416" y="212"/>
      <point x="399" y="203" type="curve" smooth="yes"/>
      <point x="380" y="194"/>
      <point x="359" y="187"/>
      <point x="334" y="189" type="curve" smooth="yes"/>
      <point x="255" y="194" type="line" smooth="yes"/>
      <point x="242" y="195"/>
      <point x="229" y="191"/>
      <point x="216" y="186" type="curve" smooth="yes"/>
      <point x="204" y="181"/>
      <point x="193" y="174"/>
      <point x="183" y="164" type="curve"/>
      <point x="243" y="121" type="line"/>
      <point x="247" y="129"/>
      <point x="254" y="135"/>
      <point x="265" y="140" type="curve"/>
      <point x="277" y="144"/>
      <point x="290" y="146"/>
      <point x="304" y="146" type="curve"/>
      <point x="389" y="134" type="line"/>
      <point x="415" y="134"/>
      <point x="438" y="139"/>
      <point x="459" y="151" type="curve" smooth="yes"/>
      <point x="480" y="163"/>
      <point x="495" y="180"/>
      <point x="504" y="200" type="curve"/>
      <point x="485" y="213"/>
      <point x="470" y="226"/>
      <point x="460" y="239" type="curve" smooth="yes"/>
      <point x="449" y="252"/>
      <point x="444" y="264"/>
      <point x="444" y="274" type="curve" smooth="yes"/>
      <point x="444" y="289"/>
      <point x="450" y="302"/>
      <point x="463" y="315" type="curve" smooth="yes"/>
      <point x="475" y="328"/>
      <point x="489" y="334"/>
      <point x="504" y="334" type="curve" smooth="yes"/>
      <point x="518" y="334"/>
      <point x="533" y="324"/>
      <point x="548" y="305" type="curve" smooth="yes"/>
      <point x="563" y="285"/>
      <point x="571" y="266"/>
      <point x="571" y="249" type="curve" smooth="yes"/>
      <point x="571" y="202"/>
      <point x="542" y="159"/>
      <point x="484" y="121" type="curve" smooth="yes"/>
      <point x="427" y="84"/>
      <point x="360" y="66"/>
      <point x="285" y="66" type="curve" smooth="yes"/>
      <point x="236" y="66"/>
      <point x="196" y="77"/>
      <point x="166" y="98" type="curve" smooth="yes"/>
      <point x="136" y="119"/>
      <point x="121" y="148"/>
      <point x="121" y="183" type="curve" smooth="yes"/>
      <point x="121" y="198"/>
      <point x="124" y="213"/>
      <point x="131" y="228" type="curve" smooth="yes"/>
      <point x="137" y="243"/>
      <point x="146" y="256"/>
      <point x="158" y="268" type="curve"/>
      <point x="169" y="256"/>
      <point x="181" y="247"/>
      <point x="195" y="241" type="curve"/>
      <point x="208" y="234"/>
      <point x="222" y="231"/>
      <point x="236" y="231" type="curve" smooth="yes"/>
      <point x="263" y="231"/>
      <point x="286" y="239"/>
      <point x="305" y="256" type="curve" smooth="yes"/>
      <point x="324" y="273"/>
      <point x="334" y="293"/>
      <point x="334" y="316" type="curve" smooth="yes"/>
      <point x="334" y="339"/>
      <point x="320" y="363"/>
      <point x="293" y="388" type="curve" smooth="yes"/>
      <point x="264" y="414"/>
      <point x="238" y="425"/>
      <point x="213" y="425" type="curve" smooth="yes"/>
      <point x="173" y="425"/>
      <point x="132" y="402"/>
      <point x="91" y="356" type="curve" smooth="yes"/>
      <point x="50" y="309"/>
      <point x="30" y="264"/>
      <point x="30" y="219" type="curve" smooth="yes"/>
      <point x="30" y="160"/>
      <point x="63" y="108"/>
      <point x="128" y="63" type="curve" smooth="yes"/>
      <point x="193" y="17"/>
      <point x="268" y="-6"/>
    </contour>
  </outline>
</glyph>
<glyph name="AA" format="1">
  <advance width="655"/>
  <unicode hex="0C06"/>
  <outline>
    <contour>
      <point x="480" y="268" type="curve" smooth="yes" name="hr00"/>
      <point x="473" y="268"/>
      <point x="468" y="270"/>
      <point x="463" y="275" type="curve" smooth="yes"/>
      <point x="458" y="279"/>
      <point x="455" y="284"/>
      <point x="455" y="291" type="curve" smooth="yes"/>
      <point x="455" y="303"/>
      <point x="461" y="314"/>
      <point x="473" y="324" type="curve" smooth="yes"/>
      <point x="485" y="335"/>
      <point x="497" y="340"/>
      <point x="510" y="340" type="curve" smooth="yes"/>
      <point x="517" y="340"/>
      <point x="522" y="338"/>
      <point x="526" y="335" type="curve" smooth="yes"/>
      <point x="531" y="331"/>
      <point x="534" y="326"/>
      <point x="534" y="321" type="curve" smooth="yes"/>
      <point x="534" y="308"/>
      <point x="528" y="296"/>
      <point x="516" y="285" type="curve" smooth="yes"/>
      <point x="505" y="274"/>
      <point x="493" y="268"/>
    </contour>
    <contour>
      <point x="213" y="279" type="curve" smooth="yes"/>
      <point x="206" y="279"/>
      <point x="201" y="281"/>
      <point x="196" y="286" type="curve" smooth="yes"/>
      <point x="191" y="291"/>
      <point x="189" y="297"/>
      <point x="189" y="304" type="curve" smooth="yes"/>
      <point x="189" y="313"/>
      <point x="195" y="324"/>
      <point x="208" y="335" type="curve" smooth="yes"/>
      <point x="221" y="347"/>
      <point x="233" y="353"/>
      <point x="243" y="353" type="curve" smooth="yes"/>
      <point x="250" y="353"/>
      <point x="255" y="350"/>
      <point x="260" y="345" type="curve" smooth="yes"/>
      <point x="265" y="340"/>
      <point x="268" y="335"/>
      <point x="268" y="328" type="curve" smooth="yes"/>
      <point x="268" y="316"/>
      <point x="262" y="305"/>
      <point x="250" y="295" type="curve" smooth="yes"/>
      <point x="237" y="284"/>
      <point x="225" y="279"/>
    </contour>
    <contour>
      <point x="359" y="-6" type="curve" smooth="yes"/>
      <point x="428" y="-6"/>
      <point x="492" y="11"/>
      <point x="550" y="45" type="curve" smooth="yes"/>
      <point x="609" y="79"/>
      <point x="638" y="117"/>
      <point x="638" y="158" type="curve" smooth="yes"/>
      <point x="638" y="171"/>
      <point x="632" y="184"/>
      <point x="621" y="196" type="curve" smooth="yes"/>
      <point x="610" y="209"/>
      <point x="595" y="218"/>
      <point x="576" y="225" type="curve"/>
      <point x="594" y="238"/>
      <point x="607" y="251"/>
      <point x="616" y="266" type="curve" smooth="yes"/>
      <point x="626" y="281"/>
      <point x="631" y="296"/>
      <point x="631" y="310" type="curve" smooth="yes"/>
      <point x="631" y="333"/>
      <point x="614" y="356"/>
      <point x="581" y="381" type="curve" smooth="yes"/>
      <point x="548" y="406"/>
      <point x="516" y="420"/>
      <point x="486" y="419" type="curve" smooth="yes"/>
      <point x="458" y="418"/>
      <point x="430" y="403"/>
      <point x="403" y="381" type="curve" smooth="yes"/>
      <point x="375" y="358"/>
      <point x="362" y="337"/>
      <point x="364" y="316" type="curve"/>
      <point x="364" y="301"/>
      <point x="372" y="285"/>
      <point x="388" y="269" type="curve" smooth="yes"/>
      <point x="403" y="253"/>
      <point x="423" y="240"/>
      <point x="449" y="231" type="curve"/>
      <point x="435" y="218"/>
      <point x="418" y="207"/>
      <point x="399" y="200" type="curve" smooth="yes"/>
      <point x="380" y="193"/>
      <point x="361" y="188"/>
      <point x="340" y="189" type="curve" smooth="yes"/>
      <point x="249" y="194" type="line" smooth="yes"/>
      <point x="238" y="195"/>
      <point x="229" y="192"/>
      <point x="220" y="189" type="curve" smooth="yes"/>
      <point x="212" y="186"/>
      <point x="205" y="182"/>
      <point x="200" y="176" type="curve"/>
      <point x="261" y="109" type="line"/>
      <point x="266" y="116"/>
      <point x="274" y="123"/>
      <point x="284" y="128" type="curve" smooth="yes"/>
      <point x="294" y="132"/>
      <point x="305" y="134"/>
      <point x="316" y="134" type="curve"/>
      <point x="383" y="128" type="line"/>
      <point x="408" y="128"/>
      <point x="433" y="133"/>
      <point x="460" y="144" type="curve" smooth="yes"/>
      <point x="486" y="154"/>
      <point x="511" y="169"/>
      <point x="534" y="189" type="curve"/>
      <point x="540" y="188"/>
      <point x="545" y="186"/>
      <point x="548" y="183" type="curve" smooth="yes"/>
      <point x="551" y="178"/>
      <point x="553" y="174"/>
      <point x="553" y="170" type="curve" smooth="yes"/>
      <point x="553" y="144"/>
      <point x="525" y="119"/>
      <point x="470" y="96" type="curve" smooth="yes"/>
      <point x="415" y="73"/>
      <point x="358" y="61"/>
      <point x="298" y="61" type="curve" smooth="yes"/>
      <point x="245" y="61"/>
      <point x="202" y="72"/>
      <point x="170" y="94" type="curve" smooth="yes"/>
      <point x="137" y="117"/>
      <point x="121" y="146"/>
      <point x="121" y="183" type="curve" smooth="yes"/>
      <point x="121" y="198"/>
      <point x="124" y="213"/>
      <point x="131" y="228" type="curve" smooth="yes"/>
      <point x="137" y="243"/>
      <point x="146" y="256"/>
      <point x="158" y="268" type="curve"/>
      <point x="169" y="256"/>
      <point x="181" y="247"/>
      <point x="195" y="241" type="curve"/>
      <point x="208" y="234"/>
      <point x="222" y="231"/>
      <point x="236" y="231" type="curve" smooth="yes"/>
      <point x="263" y="231"/>
      <point x="286" y="239"/>
      <point x="305" y="256" type="curve" smooth="yes"/>
      <point x="324" y="273"/>
      <point x="334" y="293"/>
      <point x="334" y="316" type="curve" smooth="yes"/>
      <point x="334" y="339"/>
      <point x="320" y="363"/>
      <point x="293" y="388" type="curve" smooth="yes"/>
      <point x="264" y="414"/>
      <point x="238" y="425"/>
      <point x="213" y="425" type="curve" smooth="yes"/>
      <point x="173" y="425"/>
      <point x="132" y="402"/>
      <point x="91" y="356" type="curve" smooth="yes"/>
      <point x="50" y="309"/>
      <point x="30" y="264"/>
      <point x="30" y="219" type="curve" smooth="yes"/>
      <point x="30" y="160"/>
      <point x="63" y="108"/>
      <point x="130" y="63" type="curve" smooth="yes"/>
      <point x="197" y="17"/>
      <point x="273" y="-6"/>
    </contour>
  </outline>
</glyph>
<glyph name="uni0C07" format="1">
  <advance width="636"/>
  <unicode hex="0C07"/>
  <outline>
    <contour>
      <point x="290" y="66" type="curve" name="hr00"/>
      <point x="263" y="66"/>
      <point x="238" y="71"/>
      <point x="215" y="80" type="curve" smooth="yes"/>
      <point x="192" y="89"/>
      <point x="181" y="98"/>
      <point x="181" y="109" type="curve" smooth="yes"/>
      <point x="181" y="120"/>
      <point x="187" y="129"/>
      <point x="200" y="138" type="curve" smooth="yes"/>
      <point x="213" y="147"/>
      <point x="228" y="151"/>
      <point x="243" y="151" type="curve" smooth="yes"/>
      <point x="260" y="151"/>
      <point x="272" y="143"/>
      <point x="281" y="128" type="curve" smooth="yes"/>
      <point x="290" y="113"/>
      <point x="293" y="92"/>
    </contour>
    <contour>
      <point x="321" y="-140" type="curve"/>
      <point x="332" y="-128"/>
      <point x="346" y="-118"/>
      <point x="363" y="-111" type="curve" smooth="yes"/>
      <point x="380" y="-104"/>
      <point x="398" y="-100"/>
      <point x="418" y="-97" type="curve"/>
      <point x="407" y="-93"/>
      <point x="398" y="-82"/>
      <point x="391" y="-65" type="curve" smooth="yes"/>
      <point x="384" y="-46"/>
      <point x="381" y="-25"/>
      <point x="381" y="0" type="curve"/>
      <point x="447" y="0"/>
      <point x="503" y="22"/>
      <point x="549" y="63" type="curve" smooth="yes"/>
      <point x="596" y="105"/>
      <point x="619" y="154"/>
      <point x="619" y="213" type="curve" smooth="yes"/>
      <point x="619" y="261"/>
      <point x="592" y="309"/>
      <point x="538" y="358" type="curve" smooth="yes"/>
      <point x="483" y="407"/>
      <point x="428" y="431"/>
      <point x="375" y="431" type="curve" smooth="yes"/>
      <point x="350" y="431"/>
      <point x="327" y="426"/>
      <point x="304" y="414" type="curve" smooth="yes"/>
      <point x="281" y="402"/>
      <point x="263" y="385"/>
      <point x="248" y="364" type="curve"/>
      <point x="229" y="385"/>
      <point x="211" y="402"/>
      <point x="194" y="414" type="curve"/>
      <point x="175" y="425"/>
      <point x="159" y="431"/>
      <point x="145" y="431" type="curve" smooth="yes"/>
      <point x="122" y="431"/>
      <point x="97" y="421"/>
      <point x="70" y="400" type="curve" smooth="yes"/>
      <point x="43" y="379"/>
      <point x="30" y="359"/>
      <point x="30" y="340" type="curve" smooth="yes"/>
      <point x="30" y="327"/>
      <point x="35" y="313"/>
      <point x="46" y="298" type="curve" smooth="yes"/>
      <point x="56" y="283"/>
      <point x="71" y="268"/>
      <point x="90" y="255" type="curve"/>
      <point x="139" y="285" type="line"/>
      <point x="135" y="289"/>
      <point x="132" y="293"/>
      <point x="130" y="298" type="curve"/>
      <point x="127" y="302"/>
      <point x="126" y="306"/>
      <point x="126" y="310" type="curve" smooth="yes"/>
      <point x="126" y="319"/>
      <point x="131" y="327"/>
      <point x="140" y="334" type="curve" smooth="yes"/>
      <point x="150" y="342"/>
      <point x="160" y="346"/>
      <point x="169" y="346" type="curve" smooth="yes"/>
      <point x="176" y="346"/>
      <point x="186" y="342"/>
      <point x="199" y="335" type="curve" smooth="yes"/>
      <point x="212" y="328"/>
      <point x="226" y="317"/>
      <point x="243" y="304" type="curve" smooth="yes"/>
      <point x="309" y="255" type="line"/>
      <point x="322" y="285"/>
      <point x="339" y="309"/>
      <point x="360" y="326" type="curve" smooth="yes"/>
      <point x="381" y="344"/>
      <point x="402" y="353"/>
      <point x="424" y="353" type="curve" smooth="yes"/>
      <point x="451" y="353"/>
      <point x="478" y="340"/>
      <point x="505" y="314" type="curve" smooth="yes"/>
      <point x="532" y="288"/>
      <point x="545" y="262"/>
      <point x="545" y="236" type="curve" smooth="yes"/>
      <point x="545" y="201"/>
      <point x="526" y="166"/>
      <point x="488" y="131" type="curve" smooth="yes"/>
      <point x="450" y="96"/>
      <point x="412" y="79"/>
      <point x="375" y="79" type="curve"/>
      <point x="375" y="104"/>
      <point x="355" y="136"/>
      <point x="314" y="174" type="curve" smooth="yes"/>
      <point x="272" y="213"/>
      <point x="238" y="231"/>
      <point x="211" y="231" type="curve" smooth="yes"/>
      <point x="186" y="231"/>
      <point x="157" y="221"/>
      <point x="125" y="199" type="curve" smooth="yes"/>
      <point x="94" y="178"/>
      <point x="78" y="157"/>
      <point x="78" y="140" type="curve" smooth="yes"/>
      <point x="78" y="110"/>
      <point x="97" y="82"/>
      <point x="136" y="55" type="curve" smooth="yes"/>
      <point x="175" y="29"/>
      <point x="225" y="11"/>
      <point x="285" y="0" type="curve"/>
      <point x="282" y="-8"/>
      <point x="281" y="-22"/>
      <point x="281" y="-42" type="curve" smooth="yes"/>
      <point x="281" y="-62"/>
      <point x="283" y="-81"/>
      <point x="291" y="-99" type="curve" smooth="yes"/>
      <point x="298" y="-116"/>
      <point x="309" y="-129"/>
    </contour>
  </outline>
</glyph>
<glyph name="II" format="1">
  <advance width="1062"/>
  <unicode hex="0C08"/>
  <outline>
    <contour>
      <point x="856" y="73" type="curve" smooth="yes" name="hr00"/>
      <point x="851" y="73"/>
      <point x="847" y="74"/>
      <point x="844" y="76" type="curve" smooth="yes"/>
      <point x="841" y="79"/>
      <point x="839" y="82"/>
      <point x="839" y="85" type="curve" smooth="yes"/>
      <point x="839" y="101"/>
      <point x="848" y="117"/>
      <point x="865" y="134" type="curve" smooth="yes"/>
      <point x="882" y="150"/>
      <point x="900" y="158"/>
      <point x="918" y="158" type="curve" smooth="yes"/>
      <point x="923" y="158"/>
      <point x="927" y="156"/>
      <point x="930" y="153" type="curve" smooth="yes"/>
      <point x="933" y="150"/>
      <point x="935" y="145"/>
      <point x="935" y="140" type="curve" smooth="yes"/>
      <point x="935" y="125"/>
      <point x="926" y="110"/>
      <point x="909" y="95" type="curve" smooth="yes"/>
      <point x="892" y="80"/>
      <point x="874" y="73"/>
    </contour>
    <contour>
      <point x="303" y="255" type="line"/>
      <point x="314" y="279"/>
      <point x="331" y="299"/>
      <point x="356" y="313" type="curve" smooth="yes"/>
      <point x="382" y="328"/>
      <point x="411" y="334"/>
      <point x="443" y="334" type="curve" smooth="yes"/>
      <point x="468" y="334"/>
      <point x="492" y="328"/>
      <point x="516" y="315" type="curve" smooth="yes"/>
      <point x="541" y="302"/>
      <point x="564" y="284"/>
      <point x="583" y="261" type="curve"/>
    </contour>
    <contour>
      <point x="388" y="85" type="curve" smooth="yes"/>
      <point x="358" y="85"/>
      <point x="332" y="94"/>
      <point x="310" y="115" type="curve" smooth="yes"/>
      <point x="289" y="135"/>
      <point x="279" y="160"/>
      <point x="279" y="189" type="curve"/>
      <point x="407" y="189"/>
      <point x="516" y="197"/>
      <point x="606" y="213" type="curve"/>
      <point x="612" y="181"/>
      <point x="592" y="152"/>
      <point x="546" y="125" type="curve" smooth="yes"/>
      <point x="501" y="98"/>
      <point x="448" y="85"/>
    </contour>
    <contour>
      <point x="449" y="0" type="curve" smooth="yes"/>
      <point x="519" y="0"/>
      <point x="579" y="18"/>
      <point x="629" y="54" type="curve" smooth="yes"/>
      <point x="679" y="90"/>
      <point x="704" y="133"/>
      <point x="704" y="183" type="curve" smooth="yes"/>
      <point x="704" y="197"/>
      <point x="700" y="211"/>
      <point x="691" y="225" type="curve"/>
      <point x="796" y="225" type="line" smooth="yes"/>
      <point x="806" y="225"/>
      <point x="818" y="223"/>
      <point x="833" y="219" type="curve"/>
      <point x="812" y="207"/>
      <point x="795" y="192"/>
      <point x="783" y="175" type="curve" smooth="yes"/>
      <point x="771" y="158"/>
      <point x="765" y="140"/>
      <point x="765" y="121" type="curve" smooth="yes"/>
      <point x="765" y="96"/>
      <point x="781" y="69"/>
      <point x="815" y="41" type="curve" smooth="yes"/>
      <point x="848" y="13"/>
      <point x="881" y="0"/>
      <point x="911" y="0" type="curve" smooth="yes"/>
      <point x="938" y="0"/>
      <point x="963" y="11"/>
      <point x="986" y="34" type="curve" smooth="yes"/>
      <point x="1009" y="57"/>
      <point x="1020" y="82"/>
      <point x="1020" y="109" type="curve" smooth="yes"/>
      <point x="1020" y="124"/>
      <point x="1015" y="139"/>
      <point x="1006" y="155" type="curve" smooth="yes"/>
      <point x="996" y="171"/>
      <point x="983" y="186"/>
      <point x="966" y="200" type="curve"/>
      <point x="989" y="209"/>
      <point x="1009" y="221"/>
      <point x="1024" y="238" type="curve" smooth="yes"/>
      <point x="1038" y="255"/>
      <point x="1045" y="272"/>
      <point x="1045" y="291" type="curve" smooth="yes"/>
      <point x="1045" y="324"/>
      <point x="1025" y="355"/>
      <point x="984" y="383" type="curve" smooth="yes"/>
      <point x="943" y="411"/>
      <point x="899" y="425"/>
      <point x="850" y="425" type="curve" smooth="yes"/>
      <point x="833" y="425"/>
      <point x="819" y="418"/>
      <point x="806" y="404" type="curve" smooth="yes"/>
      <point x="794" y="391"/>
      <point x="787" y="374"/>
      <point x="784" y="353" type="curve"/>
      <point x="863" y="321" type="line"/>
      <point x="870" y="334"/>
      <point x="879" y="345"/>
      <point x="888" y="353" type="curve" smooth="yes"/>
      <point x="896" y="360"/>
      <point x="904" y="364"/>
      <point x="911" y="364" type="curve" smooth="yes"/>
      <point x="926" y="364"/>
      <point x="939" y="361"/>
      <point x="950" y="354" type="curve" smooth="yes"/>
      <point x="961" y="347"/>
      <point x="966" y="338"/>
      <point x="966" y="328" type="curve" smooth="yes"/>
      <point x="966" y="315"/>
      <point x="960" y="302"/>
      <point x="949" y="288" type="curve" smooth="yes"/>
      <point x="936" y="273"/>
      <point x="920" y="260"/>
      <point x="899" y="249" type="curve"/>
      <point x="890" y="255"/>
      <point x="878" y="260"/>
      <point x="865" y="263" type="curve" smooth="yes"/>
      <point x="852" y="266"/>
      <point x="837" y="268"/>
      <point x="820" y="268" type="curve" smooth="yes"/>
      <point x="668" y="268" type="line"/>
      <point x="649" y="300"/>
      <point x="616" y="328"/>
      <point x="571" y="353" type="curve" smooth="yes"/>
      <point x="526" y="377"/>
      <point x="471" y="395"/>
      <point x="406" y="406" type="curve"/>
      <point x="413" y="417"/>
      <point x="428" y="428"/>
      <point x="451" y="438" type="curve" smooth="yes"/>
      <point x="474" y="447"/>
      <point x="504" y="454"/>
      <point x="540" y="461" type="curve" smooth="yes"/>
      <point x="573" y="467"/>
      <point x="602" y="477"/>
      <point x="626" y="490" type="curve" smooth="yes"/>
      <point x="651" y="504"/>
      <point x="668" y="521"/>
      <point x="679" y="540" type="curve"/>
      <point x="570" y="614" type="line"/>
      <point x="556" y="589"/>
      <point x="535" y="568"/>
      <point x="508" y="551" type="curve" smooth="yes"/>
      <point x="480" y="534"/>
      <point x="448" y="522"/>
      <point x="413" y="516" type="curve" smooth="yes"/>
      <point x="365" y="507"/>
      <point x="322" y="493"/>
      <point x="283" y="471" type="curve" smooth="yes"/>
      <point x="243" y="449"/>
      <point x="209" y="422"/>
      <point x="181" y="389" type="curve"/>
      <point x="260" y="334" type="line"/>
      <point x="249" y="325"/>
      <point x="239" y="316"/>
      <point x="230" y="305" type="curve" smooth="yes"/>
      <point x="222" y="294"/>
      <point x="216" y="281"/>
      <point x="211" y="268" type="curve"/>
      <point x="189" y="268"/>
      <point x="167" y="272"/>
      <point x="146" y="279" type="curve" smooth="yes"/>
      <point x="125" y="286"/>
      <point x="107" y="297"/>
      <point x="90" y="310" type="curve"/>
      <point x="30" y="213" type="line"/>
      <point x="65" y="193"/>
      <point x="104" y="183"/>
      <point x="145" y="183" type="curve" smooth="yes"/>
      <point x="194" y="183" type="line"/>
      <point x="203" y="130"/>
      <point x="232" y="85"/>
      <point x="280" y="51" type="curve" smooth="yes"/>
      <point x="329" y="16"/>
      <point x="385" y="0"/>
    </contour>
  </outline>
</glyph>
<glyph name="uni0C09" format="1">
  <advance width="745"/>
  <unicode hex="0C09"/>
  <outline>
    <contour>
      <point x="291" y="0" type="curve" smooth="yes" name="hr00"/>
      <point x="314" y="0"/>
      <point x="335" y="5"/>
      <point x="354" y="15" type="curve" smooth="yes"/>
      <point x="373" y="24"/>
      <point x="389" y="38"/>
      <point x="400" y="55" type="curve"/>
      <point x="421" y="38"/>
      <point x="442" y="24"/>
      <point x="463" y="14" type="curve" smooth="yes"/>
      <point x="484" y="5"/>
      <point x="503" y="0"/>
      <point x="521" y="0" type="curve" smooth="yes"/>
      <point x="600" y="0" type="line" smooth="yes"/>
      <point x="632" y="0"/>
      <point x="661" y="11"/>
      <point x="688" y="34" type="curve" smooth="yes"/>
      <point x="715" y="57"/>
      <point x="728" y="82"/>
      <point x="728" y="109" type="curve" smooth="yes"/>
      <point x="728" y="142"/>
      <point x="712" y="174"/>
      <point x="681" y="206" type="curve" smooth="yes"/>
      <point x="650" y="239"/>
      <point x="620" y="255"/>
      <point x="589" y="255" type="curve" smooth="yes"/>
      <point x="566" y="255"/>
      <point x="545" y="249"/>
      <point x="526" y="238" type="curve" smooth="yes"/>
      <point x="506" y="226"/>
      <point x="490" y="210"/>
      <point x="479" y="189" type="curve"/>
      <point x="551" y="121" type="line"/>
      <point x="557" y="138"/>
      <point x="568" y="151"/>
      <point x="583" y="161" type="curve" smooth="yes"/>
      <point x="597" y="171"/>
      <point x="613" y="176"/>
      <point x="631" y="176" type="curve" smooth="yes"/>
      <point x="636" y="176"/>
      <point x="641" y="174"/>
      <point x="644" y="169" type="curve" smooth="yes"/>
      <point x="647" y="164"/>
      <point x="649" y="158"/>
      <point x="649" y="151" type="curve" smooth="yes"/>
      <point x="649" y="130"/>
      <point x="636" y="111"/>
      <point x="611" y="95" type="curve" smooth="yes"/>
      <point x="586" y="80"/>
      <point x="556" y="73"/>
      <point x="521" y="73" type="curve" smooth="yes"/>
      <point x="500" y="73"/>
      <point x="482" y="76"/>
      <point x="466" y="81" type="curve" smooth="yes"/>
      <point x="451" y="86"/>
      <point x="439" y="94"/>
      <point x="430" y="104" type="curve"/>
      <point x="437" y="115"/>
      <point x="449" y="127"/>
      <point x="466" y="140" type="curve"/>
      <point x="400" y="206" type="line"/>
      <point x="391" y="206"/>
      <point x="379" y="199"/>
      <point x="366" y="186" type="curve" smooth="yes"/>
      <point x="354" y="174"/>
      <point x="341" y="157"/>
      <point x="328" y="134" type="curve" smooth="yes"/>
      <point x="318" y="117"/>
      <point x="307" y="104"/>
      <point x="295" y="94" type="curve" smooth="yes"/>
      <point x="282" y="84"/>
      <point x="271" y="79"/>
      <point x="260" y="79" type="curve" smooth="yes"/>
      <point x="245" y="79"/>
      <point x="233" y="86"/>
      <point x="223" y="99" type="curve" smooth="yes"/>
      <point x="212" y="112"/>
      <point x="206" y="128"/>
      <point x="206" y="146" type="curve" smooth="yes"/>
      <point x="206" y="165"/>
      <point x="210" y="181"/>
      <point x="218" y="194" type="curve"/>
      <point x="406" y="225" type="line" smooth="yes"/>
      <point x="409" y="225"/>
      <point x="415" y="223"/>
      <point x="424" y="219" type="curve" smooth="yes"/>
      <point x="435" y="214"/>
      <point x="446" y="209"/>
      <point x="455" y="206" type="curve"/>
      <point x="509" y="279" type="line"/>
      <point x="484" y="296"/>
      <point x="459" y="304"/>
      <point x="436" y="304" type="curve" smooth="yes"/>
      <point x="415" y="304"/>
      <point x="384" y="297"/>
      <point x="343" y="285" type="curve" smooth="yes"/>
      <point x="302" y="273"/>
      <point x="270" y="268"/>
      <point x="249" y="268" type="curve"/>
      <point x="260" y="293"/>
      <point x="280" y="314"/>
      <point x="308" y="330" type="curve" smooth="yes"/>
      <point x="335" y="345"/>
      <point x="366" y="353"/>
      <point x="400" y="353" type="curve" smooth="yes"/>
      <point x="419" y="353"/>
      <point x="448" y="348"/>
      <point x="485" y="338" type="curve" smooth="yes"/>
      <point x="522" y="327"/>
      <point x="551" y="321"/>
      <point x="570" y="321" type="curve" smooth="yes"/>
      <point x="589" y="321"/>
      <point x="606" y="325"/>
      <point x="623" y="333" type="curve" smooth="yes"/>
      <point x="640" y="340"/>
      <point x="655" y="351"/>
      <point x="668" y="364" type="curve"/>
      <point x="606" y="438" type="line"/>
      <point x="593" y="425"/>
      <point x="577" y="416"/>
      <point x="558" y="411" type="curve" smooth="yes"/>
      <point x="539" y="407"/>
      <point x="519" y="408"/>
      <point x="498" y="413" type="curve"/>
      <point x="488" y="421"/>
      <point x="480" y="430"/>
      <point x="475" y="440" type="curve"/>
      <point x="469" y="449"/>
      <point x="466" y="459"/>
      <point x="466" y="468" type="curve" smooth="yes"/>
      <point x="466" y="483"/>
      <point x="477" y="502"/>
      <point x="498" y="525" type="curve" smooth="yes"/>
      <point x="518" y="548"/>
      <point x="528" y="568"/>
      <point x="528" y="583" type="curve" smooth="yes"/>
      <point x="528" y="608" type="line"/>
      <point x="406" y="644" type="line"/>
      <point x="411" y="632"/>
      <point x="413" y="624"/>
      <point x="413" y="619" type="curve" smooth="yes"/>
      <point x="413" y="606"/>
      <point x="407" y="587"/>
      <point x="395" y="564" type="curve" smooth="yes"/>
      <point x="382" y="541"/>
      <point x="376" y="523"/>
      <point x="376" y="510" type="curve" smooth="yes"/>
      <point x="376" y="484"/>
      <point x="386" y="454"/>
      <point x="406" y="419" type="curve"/>
      <point x="395" y="423"/>
      <point x="371" y="425"/>
      <point x="334" y="425" type="curve" smooth="yes"/>
      <point x="300" y="425"/>
      <point x="266" y="413"/>
      <point x="231" y="389" type="curve" smooth="yes"/>
      <point x="198" y="366"/>
      <point x="169" y="333"/>
      <point x="145" y="291" type="curve"/>
      <point x="141" y="291"/>
      <point x="135" y="293"/>
      <point x="126" y="298" type="curve" smooth="yes"/>
      <point x="118" y="302"/>
      <point x="108" y="308"/>
      <point x="96" y="316" type="curve"/>
      <point x="30" y="225" type="line"/>
      <point x="44" y="214"/>
      <point x="59" y="205"/>
      <point x="75" y="198" type="curve" smooth="yes"/>
      <point x="90" y="192"/>
      <point x="106" y="189"/>
      <point x="121" y="189" type="curve"/>
      <point x="121" y="170" type="line" smooth="yes"/>
      <point x="121" y="129"/>
      <point x="139" y="90"/>
      <point x="175" y="54" type="curve" smooth="yes"/>
      <point x="211" y="18"/>
      <point x="250" y="0"/>
    </contour>
  </outline>
</glyph>
<glyph name="UU" format="1">
  <advance width="1080"/>
  <unicode hex="0C0A"/>
  <outline>
    <contour>
      <point x="260" y="79" type="curve" smooth="yes" name="hr00"/>
      <point x="245" y="79"/>
      <point x="233" y="85"/>
      <point x="223" y="96" type="curve" smooth="yes"/>
      <point x="212" y="109"/>
      <point x="206" y="123"/>
      <point x="206" y="140" type="curve" smooth="yes"/>
      <point x="206" y="159"/>
      <point x="210" y="177"/>
      <point x="218" y="194" type="curve"/>
      <point x="521" y="236" type="line"/>
      <point x="508" y="231"/>
      <point x="497" y="224"/>
      <point x="488" y="215" type="curve" smooth="yes"/>
      <point x="479" y="207"/>
      <point x="471" y="198"/>
      <point x="466" y="189" type="curve"/>
      <point x="540" y="121" type="line"/>
      <point x="546" y="138"/>
      <point x="557" y="151"/>
      <point x="574" y="161" type="curve" smooth="yes"/>
      <point x="591" y="171"/>
      <point x="610" y="176"/>
      <point x="631" y="176" type="curve" smooth="yes"/>
      <point x="636" y="176"/>
      <point x="641" y="174"/>
      <point x="644" y="169" type="curve" smooth="yes"/>
      <point x="647" y="164"/>
      <point x="649" y="158"/>
      <point x="649" y="151" type="curve" smooth="yes"/>
      <point x="649" y="130"/>
      <point x="636" y="111"/>
      <point x="611" y="95" type="curve" smooth="yes"/>
      <point x="586" y="80"/>
      <point x="556" y="73"/>
      <point x="521" y="73" type="curve" smooth="yes"/>
      <point x="500" y="73"/>
      <point x="482" y="76"/>
      <point x="466" y="81" type="curve" smooth="yes"/>
      <point x="451" y="86"/>
      <point x="439" y="94"/>
      <point x="430" y="104" type="curve"/>
      <point x="437" y="115"/>
      <point x="449" y="127"/>
      <point x="466" y="140" type="curve"/>
      <point x="400" y="206" type="line"/>
      <point x="391" y="206"/>
      <point x="379" y="199"/>
      <point x="366" y="186" type="curve" smooth="yes"/>
      <point x="354" y="174"/>
      <point x="341" y="157"/>
      <point x="328" y="134" type="curve" smooth="yes"/>
      <point x="318" y="117"/>
      <point x="307" y="104"/>
      <point x="295" y="94" type="curve" smooth="yes"/>
      <point x="282" y="84"/>
      <point x="271" y="79"/>
    </contour>
    <contour>
      <point x="880" y="73" type="curve" smooth="yes"/>
      <point x="875" y="73"/>
      <point x="871" y="75"/>
      <point x="868" y="78" type="curve" smooth="yes"/>
      <point x="865" y="82"/>
      <point x="863" y="86"/>
      <point x="863" y="91" type="curve" smooth="yes"/>
      <point x="863" y="110"/>
      <point x="870" y="126"/>
      <point x="885" y="141" type="curve" smooth="yes"/>
      <point x="900" y="156"/>
      <point x="917" y="164"/>
      <point x="935" y="164" type="curve" smooth="yes"/>
      <point x="942" y="164"/>
      <point x="948" y="162"/>
      <point x="953" y="159" type="curve" smooth="yes"/>
      <point x="958" y="156"/>
      <point x="960" y="151"/>
      <point x="960" y="146" type="curve" smooth="yes"/>
      <point x="960" y="126"/>
      <point x="952" y="109"/>
      <point x="935" y="94" type="curve" smooth="yes"/>
      <point x="918" y="78"/>
      <point x="900" y="71"/>
    </contour>
    <contour>
      <point x="291" y="0" type="curve" smooth="yes"/>
      <point x="314" y="0"/>
      <point x="335" y="5"/>
      <point x="354" y="15" type="curve" smooth="yes"/>
      <point x="373" y="24"/>
      <point x="389" y="38"/>
      <point x="400" y="55" type="curve"/>
      <point x="425" y="38"/>
      <point x="449" y="23"/>
      <point x="471" y="14" type="curve" smooth="yes"/>
      <point x="494" y="4"/>
      <point x="515" y="0"/>
      <point x="534" y="0" type="curve" smooth="yes"/>
      <point x="582" y="0"/>
      <point x="626" y="12"/>
      <point x="666" y="36" type="curve" smooth="yes"/>
      <point x="707" y="61"/>
      <point x="728" y="87"/>
      <point x="728" y="115" type="curve" smooth="yes"/>
      <point x="728" y="135"/>
      <point x="720" y="156"/>
      <point x="705" y="178" type="curve" smooth="yes"/>
      <point x="690" y="199"/>
      <point x="670" y="218"/>
      <point x="643" y="236" type="curve"/>
      <point x="778" y="234" type="line" smooth="yes"/>
      <point x="811" y="234"/>
      <point x="835" y="226"/>
      <point x="850" y="219" type="curve"/>
      <point x="831" y="206"/>
      <point x="816" y="191"/>
      <point x="806" y="174" type="curve" smooth="yes"/>
      <point x="795" y="157"/>
      <point x="790" y="139"/>
      <point x="790" y="121" type="curve" smooth="yes"/>
      <point x="790" y="94"/>
      <point x="806" y="67"/>
      <point x="839" y="40" type="curve" smooth="yes"/>
      <point x="872" y="13"/>
      <point x="904" y="0"/>
      <point x="935" y="0" type="curve" smooth="yes"/>
      <point x="964" y="0"/>
      <point x="990" y="11"/>
      <point x="1014" y="34" type="curve" smooth="yes"/>
      <point x="1038" y="57"/>
      <point x="1050" y="82"/>
      <point x="1050" y="109" type="curve" smooth="yes"/>
      <point x="1050" y="125"/>
      <point x="1045" y="141"/>
      <point x="1034" y="156" type="curve"/>
      <point x="1024" y="173"/>
      <point x="1009" y="187"/>
      <point x="990" y="200" type="curve"/>
      <point x="1013" y="213"/>
      <point x="1030" y="229"/>
      <point x="1043" y="248" type="curve" smooth="yes"/>
      <point x="1056" y="266"/>
      <point x="1063" y="285"/>
      <point x="1063" y="304" type="curve" smooth="yes"/>
      <point x="1063" y="334"/>
      <point x="1044" y="362"/>
      <point x="1005" y="388" type="curve" smooth="yes"/>
      <point x="967" y="413"/>
      <point x="925" y="425"/>
      <point x="880" y="425" type="curve" smooth="yes"/>
      <point x="861" y="425"/>
      <point x="844" y="418"/>
      <point x="830" y="403" type="curve" smooth="yes"/>
      <point x="815" y="388"/>
      <point x="806" y="369"/>
      <point x="801" y="346" type="curve"/>
      <point x="820" y="346"/>
      <point x="846" y="338"/>
      <point x="880" y="321" type="curve"/>
      <point x="885" y="334"/>
      <point x="893" y="344"/>
      <point x="904" y="353" type="curve"/>
      <point x="915" y="360"/>
      <point x="928" y="364"/>
      <point x="941" y="364" type="curve" smooth="yes"/>
      <point x="954" y="364"/>
      <point x="966" y="360"/>
      <point x="976" y="351" type="curve" smooth="yes"/>
      <point x="985" y="343"/>
      <point x="990" y="333"/>
      <point x="990" y="321" type="curve" smooth="yes"/>
      <point x="990" y="312"/>
      <point x="983" y="301"/>
      <point x="970" y="288" type="curve" smooth="yes"/>
      <point x="957" y="275"/>
      <point x="940" y="262"/>
      <point x="918" y="249" type="curve"/>
      <point x="897" y="263"/>
      <point x="863" y="273"/>
      <point x="816" y="280" type="curve" smooth="yes"/>
      <point x="769" y="287"/>
      <point x="712" y="291"/>
      <point x="643" y="291" type="curve"/>
      <point x="315" y="261" type="line"/>
      <point x="278" y="261"/>
      <point x="254" y="263"/>
      <point x="243" y="268" type="curve"/>
      <point x="254" y="293"/>
      <point x="274" y="314"/>
      <point x="303" y="330" type="curve" smooth="yes"/>
      <point x="331" y="345"/>
      <point x="363" y="353"/>
      <point x="400" y="353" type="curve" smooth="yes"/>
      <point x="419" y="353"/>
      <point x="448" y="348"/>
      <point x="485" y="338" type="curve" smooth="yes"/>
      <point x="522" y="327"/>
      <point x="551" y="321"/>
      <point x="570" y="321" type="curve" smooth="yes"/>
      <point x="589" y="321"/>
      <point x="606" y="325"/>
      <point x="623" y="333" type="curve" smooth="yes"/>
      <point x="640" y="340"/>
      <point x="655" y="351"/>
      <point x="668" y="364" type="curve"/>
      <point x="606" y="438" type="line"/>
      <point x="595" y="427"/>
      <point x="582" y="419"/>
      <point x="568" y="414" type="curve" smooth="yes"/>
      <point x="555" y="410"/>
      <point x="541" y="410"/>
      <point x="528" y="413" type="curve"/>
      <point x="523" y="418"/>
      <point x="520" y="423"/>
      <point x="519" y="429" type="curve"/>
      <point x="516" y="436"/>
      <point x="515" y="442"/>
      <point x="515" y="449" type="curve" smooth="yes"/>
      <point x="515" y="466"/>
      <point x="525" y="487"/>
      <point x="543" y="515" type="curve" smooth="yes"/>
      <point x="562" y="543"/>
      <point x="570" y="566"/>
      <point x="570" y="583" type="curve" smooth="yes"/>
      <point x="570" y="608" type="line"/>
      <point x="461" y="644" type="line"/>
      <point x="461" y="625" type="line" smooth="yes"/>
      <point x="461" y="610"/>
      <point x="456" y="589"/>
      <point x="443" y="561" type="curve" smooth="yes"/>
      <point x="431" y="534"/>
      <point x="424" y="513"/>
      <point x="424" y="498" type="curve" smooth="yes"/>
      <point x="424" y="482"/>
      <point x="428" y="466"/>
      <point x="436" y="450" type="curve" smooth="yes"/>
      <point x="445" y="434"/>
      <point x="457" y="419"/>
      <point x="473" y="406" type="curve"/>
      <point x="442" y="406"/>
      <point x="409" y="410"/>
      <point x="376" y="419" type="curve"/>
      <point x="371" y="430" type="line"/>
      <point x="370" y="435"/>
      <point x="370" y="442"/>
      <point x="370" y="449" type="curve" smooth="yes"/>
      <point x="370" y="468"/>
      <point x="380" y="494"/>
      <point x="398" y="528" type="curve" smooth="yes"/>
      <point x="416" y="561"/>
      <point x="424" y="589"/>
      <point x="424" y="608" type="curve"/>
      <point x="309" y="644" type="line" smooth="yes"/>
      <point x="312" y="643"/>
      <point x="313" y="640"/>
      <point x="314" y="634" type="curve" smooth="yes"/>
      <point x="315" y="629"/>
      <point x="315" y="622"/>
      <point x="315" y="614" type="curve" smooth="yes"/>
      <point x="315" y="601"/>
      <point x="309" y="584"/>
      <point x="298" y="563" type="curve" smooth="yes"/>
      <point x="285" y="540"/>
      <point x="279" y="523"/>
      <point x="279" y="510" type="curve" smooth="yes"/>
      <point x="279" y="481"/>
      <point x="287" y="452"/>
      <point x="303" y="425" type="curve"/>
      <point x="274" y="420"/>
      <point x="246" y="406"/>
      <point x="219" y="383" type="curve" smooth="yes"/>
      <point x="192" y="360"/>
      <point x="167" y="329"/>
      <point x="145" y="291" type="curve"/>
      <point x="141" y="291"/>
      <point x="135" y="293"/>
      <point x="126" y="298" type="curve" smooth="yes"/>
      <point x="118" y="302"/>
      <point x="108" y="308"/>
      <point x="96" y="316" type="curve"/>
      <point x="30" y="225" type="line"/>
      <point x="44" y="214"/>
      <point x="59" y="205"/>
      <point x="75" y="198" type="curve" smooth="yes"/>
      <point x="90" y="192"/>
      <point x="106" y="189"/>
      <point x="121" y="189" type="curve"/>
      <point x="121" y="170" type="line" smooth="yes"/>
      <point x="121" y="129"/>
      <point x="139" y="90"/>
      <point x="175" y="54" type="curve" smooth="yes"/>
      <point x="211" y="18"/>
      <point x="250" y="0"/>
    </contour>
  </outline>
</glyph>
<glyph name="Ru" format="1">
  <advance width="1300"/>
  <unicode hex="0C0B"/>
  <outline>
    <contour>
      <point x="213" y="0" type="curve" smooth="yes" name="hr00"/>
      <point x="228" y="0"/>
      <point x="246" y="5"/>
      <point x="265" y="16" type="curve" smooth="yes"/>
      <point x="284" y="27"/>
      <point x="302" y="42"/>
      <point x="321" y="61" type="curve"/>
      <point x="340" y="42"/>
      <point x="362" y="27"/>
      <point x="386" y="16" type="curve" smooth="yes"/>
      <point x="411" y="5"/>
      <point x="436" y="0"/>
      <point x="461" y="0" type="curve" smooth="yes"/>
      <point x="487" y="0"/>
      <point x="512" y="11"/>
      <point x="535" y="31" type="curve" smooth="yes"/>
      <point x="559" y="52"/>
      <point x="578" y="78"/>
      <point x="591" y="113" type="curve"/>
      <point x="610" y="78"/>
      <point x="635" y="50"/>
      <point x="668" y="30" type="curve" smooth="yes"/>
      <point x="700" y="10"/>
      <point x="734" y="0"/>
      <point x="771" y="0" type="curve" smooth="yes"/>
      <point x="802" y="0"/>
      <point x="832" y="10"/>
      <point x="860" y="30" type="curve" smooth="yes"/>
      <point x="889" y="50"/>
      <point x="911" y="77"/>
      <point x="928" y="111" type="curve"/>
      <point x="946" y="77"/>
      <point x="971" y="50"/>
      <point x="1003" y="30" type="curve" smooth="yes"/>
      <point x="1035" y="10"/>
      <point x="1069" y="0"/>
      <point x="1106" y="0" type="curve" smooth="yes"/>
      <point x="1149" y="0"/>
      <point x="1190" y="20"/>
      <point x="1228" y="61" type="curve" smooth="yes"/>
      <point x="1265" y="101"/>
      <point x="1283" y="145"/>
      <point x="1283" y="194" type="curve" smooth="yes"/>
      <point x="1283" y="215"/>
      <point x="1275" y="236"/>
      <point x="1259" y="259" type="curve" smooth="yes"/>
      <point x="1242" y="282"/>
      <point x="1220" y="302"/>
      <point x="1191" y="321" type="curve" smooth="yes"/>
      <point x="1180" y="329"/>
      <point x="1171" y="337"/>
      <point x="1165" y="346" type="curve" smooth="yes"/>
      <point x="1158" y="355"/>
      <point x="1155" y="363"/>
      <point x="1155" y="370" type="curve" smooth="yes"/>
      <point x="1155" y="374"/>
      <point x="1157" y="379"/>
      <point x="1160" y="384" type="curve" smooth="yes"/>
      <point x="1163" y="390"/>
      <point x="1168" y="396"/>
      <point x="1174" y="401" type="curve"/>
      <point x="1083" y="444" type="line"/>
      <point x="1070" y="437"/>
      <point x="1059" y="427"/>
      <point x="1051" y="416" type="curve" smooth="yes"/>
      <point x="1044" y="405"/>
      <point x="1040" y="394"/>
      <point x="1040" y="383" type="curve" smooth="yes"/>
      <point x="1040" y="374"/>
      <point x="1047" y="363"/>
      <point x="1061" y="350" type="curve" smooth="yes"/>
      <point x="1074" y="337"/>
      <point x="1094" y="324"/>
      <point x="1119" y="310" type="curve" smooth="yes"/>
      <point x="1142" y="297"/>
      <point x="1159" y="282"/>
      <point x="1171" y="266" type="curve" smooth="yes"/>
      <point x="1184" y="249"/>
      <point x="1191" y="234"/>
      <point x="1191" y="219" type="curve" smooth="yes"/>
      <point x="1191" y="183"/>
      <point x="1178" y="150"/>
      <point x="1151" y="119" type="curve" smooth="yes"/>
      <point x="1124" y="88"/>
      <point x="1095" y="73"/>
      <point x="1064" y="73" type="curve" smooth="yes"/>
      <point x="1042" y="73"/>
      <point x="1021" y="80"/>
      <point x="1000" y="94" type="curve" smooth="yes"/>
      <point x="979" y="107"/>
      <point x="960" y="126"/>
      <point x="943" y="151" type="curve"/>
      <point x="946" y="164"/>
      <point x="948" y="179"/>
      <point x="948" y="194" type="curve" smooth="yes"/>
      <point x="948" y="215"/>
      <point x="940" y="236"/>
      <point x="924" y="259" type="curve" smooth="yes"/>
      <point x="907" y="282"/>
      <point x="885" y="302"/>
      <point x="856" y="321" type="curve" smooth="yes"/>
      <point x="845" y="329"/>
      <point x="836" y="337"/>
      <point x="830" y="346" type="curve" smooth="yes"/>
      <point x="823" y="355"/>
      <point x="820" y="363"/>
      <point x="820" y="370" type="curve" smooth="yes"/>
      <point x="820" y="374"/>
      <point x="822" y="379"/>
      <point x="825" y="384" type="curve" smooth="yes"/>
      <point x="828" y="390"/>
      <point x="833" y="396"/>
      <point x="839" y="401" type="curve"/>
      <point x="748" y="444" type="line"/>
      <point x="735" y="437"/>
      <point x="724" y="427"/>
      <point x="716" y="416" type="curve" smooth="yes"/>
      <point x="709" y="405"/>
      <point x="705" y="394"/>
      <point x="705" y="383" type="curve" smooth="yes"/>
      <point x="705" y="374"/>
      <point x="712" y="363"/>
      <point x="726" y="350" type="curve" smooth="yes"/>
      <point x="739" y="337"/>
      <point x="759" y="324"/>
      <point x="784" y="310" type="curve" smooth="yes"/>
      <point x="807" y="297"/>
      <point x="824" y="282"/>
      <point x="836" y="266" type="curve" smooth="yes"/>
      <point x="849" y="249"/>
      <point x="856" y="234"/>
      <point x="856" y="219" type="curve" smooth="yes"/>
      <point x="856" y="183"/>
      <point x="843" y="150"/>
      <point x="816" y="119" type="curve" smooth="yes"/>
      <point x="789" y="88"/>
      <point x="760" y="73"/>
      <point x="729" y="73" type="curve" smooth="yes"/>
      <point x="707" y="73"/>
      <point x="685" y="80"/>
      <point x="664" y="95" type="curve" smooth="yes"/>
      <point x="641" y="110"/>
      <point x="621" y="131"/>
      <point x="604" y="156" type="curve"/>
      <point x="607" y="171"/>
      <point x="608" y="183"/>
      <point x="608" y="194" type="curve" smooth="yes"/>
      <point x="608" y="215"/>
      <point x="599" y="238"/>
      <point x="581" y="261" type="curve" smooth="yes"/>
      <point x="564" y="284"/>
      <point x="541" y="307"/>
      <point x="510" y="328" type="curve" smooth="yes"/>
      <point x="501" y="335"/>
      <point x="493" y="342"/>
      <point x="488" y="350" type="curve" smooth="yes"/>
      <point x="483" y="359"/>
      <point x="480" y="367"/>
      <point x="480" y="376" type="curve" smooth="yes"/>
      <point x="480" y="382"/>
      <point x="481" y="388"/>
      <point x="483" y="393" type="curve" smooth="yes"/>
      <point x="485" y="398"/>
      <point x="488" y="403"/>
      <point x="491" y="406" type="curve"/>
      <point x="457" y="412"/>
      <point x="427" y="423"/>
      <point x="401" y="438" type="curve"/>
      <point x="390" y="431"/>
      <point x="381" y="423"/>
      <point x="374" y="413" type="curve" smooth="yes"/>
      <point x="367" y="403"/>
      <point x="364" y="393"/>
      <point x="364" y="383" type="curve" smooth="yes"/>
      <point x="364" y="374"/>
      <point x="370" y="364"/>
      <point x="381" y="353" type="curve" smooth="yes"/>
      <point x="394" y="340"/>
      <point x="410" y="328"/>
      <point x="431" y="316" type="curve" smooth="yes"/>
      <point x="454" y="303"/>
      <point x="471" y="288"/>
      <point x="484" y="271" type="curve" smooth="yes"/>
      <point x="497" y="254"/>
      <point x="504" y="236"/>
      <point x="504" y="219" type="curve" smooth="yes"/>
      <point x="504" y="180"/>
      <point x="494" y="144"/>
      <point x="473" y="111" type="curve" smooth="yes"/>
      <point x="453" y="78"/>
      <point x="431" y="61"/>
      <point x="406" y="61" type="curve" smooth="yes"/>
      <point x="396" y="61"/>
      <point x="386" y="66"/>
      <point x="375" y="76" type="curve" smooth="yes"/>
      <point x="364" y="85"/>
      <point x="359" y="95"/>
      <point x="359" y="104" type="curve" smooth="yes"/>
      <point x="359" y="109"/>
      <point x="362" y="114"/>
      <point x="369" y="120" type="curve" smooth="yes"/>
      <point x="376" y="127"/>
      <point x="384" y="133"/>
      <point x="395" y="140" type="curve"/>
      <point x="321" y="206" type="line"/>
      <point x="314" y="206"/>
      <point x="305" y="201"/>
      <point x="294" y="190" type="curve" smooth="yes"/>
      <point x="283" y="179"/>
      <point x="272" y="165"/>
      <point x="261" y="146" type="curve" smooth="yes"/>
      <point x="250" y="125"/>
      <point x="237" y="109"/>
      <point x="223" y="96" type="curve"/>
      <point x="208" y="85"/>
      <point x="195" y="79"/>
      <point x="183" y="79" type="curve" smooth="yes"/>
      <point x="170" y="79"/>
      <point x="158" y="84"/>
      <point x="148" y="95" type="curve" smooth="yes"/>
      <point x="139" y="106"/>
      <point x="134" y="119"/>
      <point x="134" y="134" type="curve" smooth="yes"/>
      <point x="134" y="148"/>
      <point x="139" y="163"/>
      <point x="149" y="178" type="curve" smooth="yes"/>
      <point x="158" y="193"/>
      <point x="172" y="206"/>
      <point x="189" y="219" type="curve" smooth="yes"/>
      <point x="214" y="237"/>
      <point x="232" y="253"/>
      <point x="246" y="268" type="curve" smooth="yes"/>
      <point x="260" y="284"/>
      <point x="268" y="295"/>
      <point x="268" y="304" type="curve" smooth="yes"/>
      <point x="268" y="327"/>
      <point x="254" y="354"/>
      <point x="226" y="383" type="curve" smooth="yes"/>
      <point x="199" y="411"/>
      <point x="174" y="425"/>
      <point x="151" y="425" type="curve" smooth="yes"/>
      <point x="124" y="425"/>
      <point x="97" y="417"/>
      <point x="70" y="401" type="curve" smooth="yes"/>
      <point x="43" y="384"/>
      <point x="30" y="368"/>
      <point x="30" y="353" type="curve" smooth="yes"/>
      <point x="30" y="343"/>
      <point x="34" y="331"/>
      <point x="43" y="318" type="curve" smooth="yes"/>
      <point x="51" y="305"/>
      <point x="63" y="292"/>
      <point x="79" y="279" type="curve"/>
      <point x="109" y="304" type="line"/>
      <point x="106" y="305"/>
      <point x="103" y="307"/>
      <point x="100" y="310" type="curve"/>
      <point x="99" y="313"/>
      <point x="98" y="317"/>
      <point x="98" y="321" type="curve" smooth="yes"/>
      <point x="98" y="330"/>
      <point x="104" y="338"/>
      <point x="115" y="346" type="curve" smooth="yes"/>
      <point x="128" y="355"/>
      <point x="140" y="359"/>
      <point x="151" y="359" type="curve" smooth="yes"/>
      <point x="158" y="359"/>
      <point x="164" y="356"/>
      <point x="169" y="351" type="curve" smooth="yes"/>
      <point x="174" y="346"/>
      <point x="176" y="341"/>
      <point x="176" y="334" type="curve" smooth="yes"/>
      <point x="176" y="327"/>
      <point x="171" y="318"/>
      <point x="161" y="308" type="curve"/>
      <point x="152" y="297"/>
      <point x="139" y="285"/>
      <point x="121" y="274" type="curve" smooth="yes"/>
      <point x="100" y="262"/>
      <point x="84" y="247"/>
      <point x="73" y="229" type="curve" smooth="yes"/>
      <point x="61" y="210"/>
      <point x="55" y="190"/>
      <point x="55" y="170" type="curve" smooth="yes"/>
      <point x="55" y="135"/>
      <point x="73" y="98"/>
      <point x="110" y="59" type="curve" smooth="yes"/>
      <point x="146" y="20"/>
      <point x="180" y="0"/>
    </contour>
  </outline>
</glyph>
<glyph name="Lu" format="1">
  <advance width="807"/>
  <unicode hex="0C0C"/>
  <outline>
    <contour>
      <point x="444" y="425" type="curve" smooth="yes" name="hr00"/>
      <point x="423" y="425"/>
      <point x="402" y="419"/>
      <point x="380" y="409" type="curve" smooth="yes"/>
      <point x="357" y="398"/>
      <point x="336" y="384"/>
      <point x="316" y="364" type="curve"/>
      <point x="293" y="384"/>
      <point x="269" y="399"/>
      <point x="244" y="409" type="curve" smooth="yes"/>
      <point x="218" y="420"/>
      <point x="193" y="425"/>
      <point x="170" y="425" type="curve" smooth="yes"/>
      <point x="132" y="425"/>
      <point x="99" y="416"/>
      <point x="71" y="394" type="curve" smooth="yes"/>
      <point x="44" y="373"/>
      <point x="30" y="346"/>
      <point x="30" y="316" type="curve" smooth="yes"/>
      <point x="30" y="307"/>
      <point x="36" y="295"/>
      <point x="46" y="280" type="curve" smooth="yes"/>
      <point x="57" y="264"/>
      <point x="61" y="252"/>
      <point x="61" y="243" type="curve" smooth="yes"/>
      <point x="61" y="234"/>
      <point x="59" y="227"/>
      <point x="55" y="220" type="curve" smooth="yes"/>
      <point x="50" y="213"/>
      <point x="44" y="209"/>
      <point x="36" y="206" type="curve"/>
      <point x="128" y="158" type="line"/>
      <point x="135" y="163"/>
      <point x="141" y="170"/>
      <point x="146" y="178" type="curve" smooth="yes"/>
      <point x="151" y="185"/>
      <point x="153" y="193"/>
      <point x="153" y="200" type="curve" smooth="yes"/>
      <point x="153" y="209"/>
      <point x="149" y="222"/>
      <point x="138" y="238" type="curve" smooth="yes"/>
      <point x="128" y="253"/>
      <point x="121" y="265"/>
      <point x="121" y="274" type="curve" smooth="yes"/>
      <point x="121" y="295"/>
      <point x="131" y="315"/>
      <point x="151" y="330" type="curve" smooth="yes"/>
      <point x="172" y="346"/>
      <point x="197" y="353"/>
      <point x="225" y="353" type="curve" smooth="yes"/>
      <point x="240" y="353"/>
      <point x="254" y="350"/>
      <point x="265" y="344" type="curve"/>
      <point x="277" y="339"/>
      <point x="286" y="331"/>
      <point x="291" y="321" type="curve"/>
      <point x="282" y="306"/>
      <point x="270" y="294"/>
      <point x="255" y="285" type="curve"/>
      <point x="328" y="219" type="line"/>
      <point x="341" y="219"/>
      <point x="355" y="224"/>
      <point x="368" y="236" type="curve" smooth="yes"/>
      <point x="382" y="248"/>
      <point x="392" y="265"/>
      <point x="401" y="285" type="curve" smooth="yes"/>
      <point x="410" y="304"/>
      <point x="420" y="319"/>
      <point x="431" y="330" type="curve" smooth="yes"/>
      <point x="444" y="342"/>
      <point x="456" y="346"/>
      <point x="468" y="346" type="curve" smooth="yes"/>
      <point x="481" y="346"/>
      <point x="493" y="342"/>
      <point x="503" y="333" type="curve"/>
      <point x="512" y="323"/>
      <point x="516" y="311"/>
      <point x="516" y="298" type="curve" smooth="yes"/>
      <point x="516" y="258"/>
      <point x="485" y="213"/>
      <point x="423" y="164" type="curve" smooth="yes"/>
      <point x="360" y="115"/>
      <point x="328" y="70"/>
      <point x="328" y="30" type="curve" smooth="yes"/>
      <point x="328" y="-9"/>
      <point x="354" y="-48"/>
      <point x="405" y="-87" type="curve" smooth="yes"/>
      <point x="457" y="-126"/>
      <point x="508" y="-146"/>
      <point x="559" y="-146" type="curve" smooth="yes"/>
      <point x="610" y="-146"/>
      <point x="661" y="-118"/>
      <point x="713" y="-62" type="curve" smooth="yes"/>
      <point x="764" y="-7"/>
      <point x="790" y="49"/>
      <point x="790" y="104" type="curve" smooth="yes"/>
      <point x="790" y="177"/>
      <point x="778" y="241"/>
      <point x="755" y="298" type="curve" smooth="yes"/>
      <point x="731" y="355"/>
      <point x="698" y="397"/>
      <point x="656" y="425" type="curve"/>
      <point x="620" y="401" type="line"/>
      <point x="651" y="376"/>
      <point x="674" y="341"/>
      <point x="691" y="298" type="curve" smooth="yes"/>
      <point x="708" y="253"/>
      <point x="716" y="204"/>
      <point x="716" y="151" type="curve" smooth="yes"/>
      <point x="716" y="100"/>
      <point x="696" y="50"/>
      <point x="659" y="-1" type="curve" smooth="yes"/>
      <point x="621" y="-53"/>
      <point x="584" y="-79"/>
      <point x="546" y="-79" type="curve" smooth="yes"/>
      <point x="513" y="-79"/>
      <point x="484" y="-71"/>
      <point x="460" y="-54" type="curve" smooth="yes"/>
      <point x="437" y="-37"/>
      <point x="425" y="-17"/>
      <point x="425" y="6" type="curve" smooth="yes"/>
      <point x="425" y="43"/>
      <point x="453" y="84"/>
      <point x="510" y="130" type="curve" smooth="yes"/>
      <point x="567" y="177"/>
      <point x="595" y="218"/>
      <point x="595" y="255" type="curve" smooth="yes"/>
      <point x="595" y="290"/>
      <point x="578" y="327"/>
      <point x="543" y="366" type="curve" smooth="yes"/>
      <point x="508" y="405"/>
      <point x="475" y="425"/>
    </contour>
  </outline>
</glyph>
<glyph name="uni0C0E" format="1">
  <advance width="617"/>
  <unicode hex="0C0E"/>
  <outline>
    <contour>
      <point x="139" y="73" type="curve" smooth="yes" name="hr00"/>
      <point x="132" y="73"/>
      <point x="127" y="75"/>
      <point x="123" y="80" type="curve" smooth="yes"/>
      <point x="118" y="85"/>
      <point x="115" y="91"/>
      <point x="115" y="98" type="curve" smooth="yes"/>
      <point x="115" y="113"/>
      <point x="125" y="129"/>
      <point x="144" y="146" type="curve" smooth="yes"/>
      <point x="163" y="162"/>
      <point x="182" y="170"/>
      <point x="200" y="170" type="curve" smooth="yes"/>
      <point x="205" y="170"/>
      <point x="210" y="168"/>
      <point x="213" y="163" type="curve" smooth="yes"/>
      <point x="216" y="158"/>
      <point x="218" y="153"/>
      <point x="218" y="146" type="curve" smooth="yes"/>
      <point x="218" y="131"/>
      <point x="209" y="115"/>
      <point x="191" y="98" type="curve" smooth="yes"/>
      <point x="174" y="81"/>
      <point x="156" y="73"/>
    </contour>
    <contour>
      <point x="175" y="0" type="curve" smooth="yes"/>
      <point x="198" y="0"/>
      <point x="219" y="5"/>
      <point x="239" y="15" type="curve" smooth="yes"/>
      <point x="258" y="24"/>
      <point x="274" y="38"/>
      <point x="285" y="55" type="curve"/>
      <point x="306" y="38"/>
      <point x="327" y="24"/>
      <point x="350" y="14" type="curve" smooth="yes"/>
      <point x="372" y="5"/>
      <point x="393" y="0"/>
      <point x="413" y="0" type="curve" smooth="yes"/>
      <point x="460" y="0"/>
      <point x="502" y="22"/>
      <point x="541" y="65" type="curve" smooth="yes"/>
      <point x="580" y="108"/>
      <point x="600" y="155"/>
      <point x="600" y="206" type="curve" smooth="yes"/>
      <point x="600" y="221"/>
      <point x="593" y="237"/>
      <point x="579" y="256" type="curve" smooth="yes"/>
      <point x="566" y="275"/>
      <point x="546" y="295"/>
      <point x="521" y="316" type="curve" smooth="yes"/>
      <point x="504" y="331"/>
      <point x="490" y="346"/>
      <point x="481" y="360" type="curve" smooth="yes"/>
      <point x="471" y="375"/>
      <point x="466" y="389"/>
      <point x="466" y="401" type="curve" smooth="yes"/>
      <point x="466" y="412"/>
      <point x="467" y="422"/>
      <point x="470" y="429" type="curve"/>
      <point x="472" y="437"/>
      <point x="475" y="444"/>
      <point x="479" y="449" type="curve"/>
      <point x="370" y="486" type="line"/>
      <point x="362" y="472"/>
      <point x="358" y="458"/>
      <point x="358" y="444" type="curve" smooth="yes"/>
      <point x="358" y="427"/>
      <point x="363" y="408"/>
      <point x="373" y="388" type="curve" smooth="yes"/>
      <point x="384" y="368"/>
      <point x="399" y="348"/>
      <point x="418" y="328" type="curve" smooth="yes"/>
      <point x="439" y="305"/>
      <point x="456" y="284"/>
      <point x="468" y="264" type="curve" smooth="yes"/>
      <point x="479" y="244"/>
      <point x="485" y="227"/>
      <point x="485" y="213" type="curve" smooth="yes"/>
      <point x="485" y="173"/>
      <point x="475" y="138"/>
      <point x="455" y="109" type="curve" smooth="yes"/>
      <point x="434" y="80"/>
      <point x="410" y="66"/>
      <point x="381" y="66" type="curve" smooth="yes"/>
      <point x="370" y="66"/>
      <point x="359" y="69"/>
      <point x="346" y="76" type="curve" smooth="yes"/>
      <point x="334" y="83"/>
      <point x="322" y="92"/>
      <point x="309" y="104" type="curve"/>
      <point x="309" y="131"/>
      <point x="293" y="163"/>
      <point x="261" y="198" type="curve" smooth="yes"/>
      <point x="230" y="232"/>
      <point x="201" y="249"/>
      <point x="175" y="249" type="curve" smooth="yes"/>
      <point x="144" y="249"/>
      <point x="112" y="236"/>
      <point x="79" y="210" type="curve" smooth="yes"/>
      <point x="46" y="184"/>
      <point x="30" y="159"/>
      <point x="30" y="134" type="curve" smooth="yes"/>
      <point x="30" y="105"/>
      <point x="46" y="75"/>
      <point x="79" y="45" type="curve" smooth="yes"/>
      <point x="112" y="15"/>
      <point x="144" y="0"/>
    </contour>
  </outline>
</glyph>
<glyph name="EE" format="1">
  <advance width="618"/>
  <unicode hex="0C0F"/>
  <outline>
    <contour>
      <point x="219" y="376" type="line" name="hr00"/>
      <point x="206" y="381"/>
      <point x="196" y="388"/>
      <point x="188" y="395" type="curve" smooth="yes"/>
      <point x="180" y="402"/>
      <point x="176" y="410"/>
      <point x="176" y="419" type="curve" smooth="yes"/>
      <point x="176" y="430"/>
      <point x="186" y="441"/>
      <point x="206" y="454" type="curve" smooth="yes"/>
      <point x="226" y="467"/>
      <point x="252" y="477"/>
      <point x="285" y="486" type="curve" smooth="yes"/>
      <point x="306" y="492"/>
      <point x="321" y="497"/>
      <point x="331" y="501" type="curve" smooth="yes"/>
      <point x="343" y="506"/>
      <point x="350" y="511"/>
      <point x="353" y="516" type="curve"/>
      <point x="314" y="539"/>
      <point x="283" y="563"/>
      <point x="261" y="589" type="curve"/>
      <point x="256" y="582"/>
      <point x="248" y="575"/>
      <point x="235" y="569" type="curve" smooth="yes"/>
      <point x="222" y="562"/>
      <point x="207" y="557"/>
      <point x="189" y="553" type="curve" smooth="yes"/>
      <point x="150" y="543"/>
      <point x="118" y="527"/>
      <point x="93" y="506" type="curve" smooth="yes"/>
      <point x="68" y="485"/>
      <point x="55" y="462"/>
      <point x="55" y="438" type="curve" smooth="yes"/>
      <point x="55" y="419"/>
      <point x="67" y="399"/>
      <point x="90" y="379" type="curve" smooth="yes"/>
      <point x="113" y="359"/>
      <point x="144" y="342"/>
      <point x="183" y="328" type="curve"/>
    </contour>
    <contour>
      <point x="140" y="73" type="curve" smooth="yes"/>
      <point x="133" y="73"/>
      <point x="128" y="75"/>
      <point x="123" y="80" type="curve" smooth="yes"/>
      <point x="118" y="85"/>
      <point x="115" y="91"/>
      <point x="115" y="98" type="curve" smooth="yes"/>
      <point x="115" y="113"/>
      <point x="125" y="129"/>
      <point x="144" y="146" type="curve" smooth="yes"/>
      <point x="163" y="162"/>
      <point x="182" y="170"/>
      <point x="200" y="170" type="curve" smooth="yes"/>
      <point x="205" y="170"/>
      <point x="210" y="168"/>
      <point x="214" y="163" type="curve" smooth="yes"/>
      <point x="217" y="158"/>
      <point x="219" y="153"/>
      <point x="219" y="146" type="curve" smooth="yes"/>
      <point x="219" y="131"/>
      <point x="210" y="115"/>
      <point x="193" y="98" type="curve" smooth="yes"/>
      <point x="175" y="81"/>
      <point x="157" y="73"/>
    </contour>
    <contour>
      <point x="176" y="0" type="curve" smooth="yes"/>
      <point x="199" y="0"/>
      <point x="220" y="5"/>
      <point x="239" y="15" type="curve" smooth="yes"/>
      <point x="258" y="24"/>
      <point x="274" y="38"/>
      <point x="285" y="55" type="curve"/>
      <point x="306" y="38"/>
      <point x="327" y="24"/>
      <point x="350" y="14" type="curve" smooth="yes"/>
      <point x="372" y="5"/>
      <point x="393" y="0"/>
      <point x="413" y="0" type="curve" smooth="yes"/>
      <point x="460" y="0"/>
      <point x="503" y="22"/>
      <point x="543" y="65" type="curve" smooth="yes"/>
      <point x="582" y="108"/>
      <point x="601" y="155"/>
      <point x="601" y="206" type="curve" smooth="yes"/>
      <point x="601" y="221"/>
      <point x="594" y="237"/>
      <point x="580" y="256" type="curve" smooth="yes"/>
      <point x="567" y="275"/>
      <point x="548" y="295"/>
      <point x="523" y="316" type="curve" smooth="yes"/>
      <point x="505" y="331"/>
      <point x="492" y="346"/>
      <point x="483" y="360" type="curve" smooth="yes"/>
      <point x="473" y="375"/>
      <point x="468" y="389"/>
      <point x="468" y="401" type="curve" smooth="yes"/>
      <point x="468" y="412"/>
      <point x="469" y="422"/>
      <point x="471" y="429" type="curve" smooth="yes"/>
      <point x="473" y="437"/>
      <point x="476" y="444"/>
      <point x="480" y="449" type="curve"/>
      <point x="370" y="486" type="line"/>
      <point x="363" y="473"/>
      <point x="359" y="459"/>
      <point x="359" y="444" type="curve" smooth="yes"/>
      <point x="359" y="427"/>
      <point x="364" y="408"/>
      <point x="374" y="388" type="curve" smooth="yes"/>
      <point x="385" y="368"/>
      <point x="400" y="348"/>
      <point x="419" y="328" type="curve" smooth="yes"/>
      <point x="440" y="305"/>
      <point x="457" y="284"/>
      <point x="469" y="264" type="curve" smooth="yes"/>
      <point x="480" y="244"/>
      <point x="486" y="227"/>
      <point x="486" y="213" type="curve" smooth="yes"/>
      <point x="486" y="173"/>
      <point x="476" y="138"/>
      <point x="456" y="109" type="curve" smooth="yes"/>
      <point x="435" y="80"/>
      <point x="411" y="66"/>
      <point x="383" y="66" type="curve" smooth="yes"/>
      <point x="372" y="66"/>
      <point x="360" y="69"/>
      <point x="348" y="76" type="curve" smooth="yes"/>
      <point x="335" y="83"/>
      <point x="323" y="92"/>
      <point x="310" y="104" type="curve"/>
      <point x="310" y="131"/>
      <point x="295" y="163"/>
      <point x="263" y="198" type="curve" smooth="yes"/>
      <point x="232" y="232"/>
      <point x="202" y="249"/>
      <point x="176" y="249" type="curve" smooth="yes"/>
      <point x="144" y="249"/>
      <point x="112" y="236"/>
      <point x="79" y="210" type="curve" smooth="yes"/>
      <point x="46" y="184"/>
      <point x="30" y="159"/>
      <point x="30" y="134" type="curve" smooth="yes"/>
      <point x="30" y="105"/>
      <point x="46" y="75"/>
      <point x="79" y="45" type="curve" smooth="yes"/>
      <point x="112" y="15"/>
      <point x="144" y="0"/>
    </contour>
  </outline>
</glyph>
<glyph name="AI" format="1">
  <advance width="533"/>
  <unicode hex="0C10"/>
  <outline>
    <contour>
      <point x="166" y="70" type="curve" smooth="yes" name="hr00"/>
      <point x="179" y="70"/>
      <point x="193" y="74"/>
      <point x="206" y="82" type="curve" smooth="yes"/>
      <point x="219" y="89"/>
      <point x="232" y="100"/>
      <point x="244" y="114" type="curve"/>
      <point x="261" y="100"/>
      <point x="281" y="89"/>
      <point x="306" y="81" type="curve" smooth="yes"/>
      <point x="330" y="74"/>
      <point x="356" y="70"/>
      <point x="385" y="70" type="curve" smooth="yes"/>
      <point x="414" y="70"/>
      <point x="443" y="88"/>
      <point x="472" y="124" type="curve" smooth="yes"/>
      <point x="501" y="159"/>
      <point x="516" y="195"/>
      <point x="516" y="230" type="curve" smooth="yes"/>
      <point x="516" y="271"/>
      <point x="493" y="312"/>
      <point x="448" y="353" type="curve" smooth="yes"/>
      <point x="402" y="394"/>
      <point x="357" y="415"/>
      <point x="312" y="415" type="curve" smooth="yes"/>
      <point x="291" y="415"/>
      <point x="271" y="410"/>
      <point x="252" y="401" type="curve" smooth="yes"/>
      <point x="233" y="391"/>
      <point x="217" y="378"/>
      <point x="205" y="361" type="curve"/>
      <point x="190" y="378"/>
      <point x="176" y="392"/>
      <point x="162" y="401" type="curve" smooth="yes"/>
      <point x="147" y="410"/>
      <point x="134" y="415"/>
      <point x="122" y="415" type="curve" smooth="yes"/>
      <point x="102" y="415"/>
      <point x="82" y="407"/>
      <point x="61" y="391" type="curve" smooth="yes"/>
      <point x="40" y="374"/>
      <point x="30" y="358"/>
      <point x="30" y="342" type="curve" smooth="yes"/>
      <point x="30" y="335"/>
      <point x="35" y="327"/>
      <point x="44" y="317" type="curve" smooth="yes"/>
      <point x="53" y="308"/>
      <point x="67" y="297"/>
      <point x="84" y="284" type="curve"/>
      <point x="118" y="303" type="line"/>
      <point x="115" y="306"/>
      <point x="112" y="310"/>
      <point x="111" y="313" type="curve" smooth="yes"/>
      <point x="109" y="316"/>
      <point x="108" y="320"/>
      <point x="108" y="323" type="curve" smooth="yes"/>
      <point x="108" y="328"/>
      <point x="112" y="334"/>
      <point x="119" y="339" type="curve" smooth="yes"/>
      <point x="127" y="344"/>
      <point x="135" y="347"/>
      <point x="142" y="347" type="curve" smooth="yes"/>
      <point x="147" y="347"/>
      <point x="155" y="344"/>
      <point x="165" y="338" type="curve" smooth="yes"/>
      <point x="175" y="332"/>
      <point x="186" y="323"/>
      <point x="200" y="313" type="curve" smooth="yes"/>
      <point x="254" y="274" type="line"/>
      <point x="265" y="298"/>
      <point x="278" y="317"/>
      <point x="295" y="331" type="curve" smooth="yes"/>
      <point x="312" y="345"/>
      <point x="329" y="352"/>
      <point x="346" y="352" type="curve" smooth="yes"/>
      <point x="367" y="352"/>
      <point x="389" y="342"/>
      <point x="411" y="320" type="curve" smooth="yes"/>
      <point x="433" y="298"/>
      <point x="443" y="276"/>
      <point x="443" y="255" type="curve" smooth="yes"/>
      <point x="443" y="226"/>
      <point x="430" y="196"/>
      <point x="405" y="167" type="curve" smooth="yes"/>
      <point x="380" y="138"/>
      <point x="356" y="123"/>
      <point x="331" y="123" type="curve" smooth="yes"/>
      <point x="322" y="123"/>
      <point x="313" y="126"/>
      <point x="303" y="131" type="curve" smooth="yes"/>
      <point x="293" y="136"/>
      <point x="283" y="144"/>
      <point x="273" y="153" type="curve"/>
      <point x="279" y="160"/>
      <point x="284" y="166"/>
      <point x="289" y="170" type="curve" smooth="yes"/>
      <point x="294" y="174"/>
      <point x="299" y="176"/>
      <point x="302" y="177" type="curve"/>
      <point x="249" y="235" type="line"/>
      <point x="238" y="234"/>
      <point x="227" y="230"/>
      <point x="216" y="221" type="curve" smooth="yes"/>
      <point x="205" y="212"/>
      <point x="197" y="201"/>
      <point x="190" y="187" type="curve" smooth="yes"/>
      <point x="182" y="170"/>
      <point x="173" y="157"/>
      <point x="162" y="148" type="curve"/>
      <point x="152" y="138"/>
      <point x="142" y="133"/>
      <point x="132" y="133" type="curve" smooth="yes"/>
      <point x="123" y="133"/>
      <point x="115" y="137"/>
      <point x="108" y="146" type="curve" smooth="yes"/>
      <point x="101" y="155"/>
      <point x="98" y="165"/>
      <point x="98" y="177" type="curve" smooth="yes"/>
      <point x="98" y="187"/>
      <point x="103" y="197"/>
      <point x="113" y="206" type="curve"/>
      <point x="122" y="216"/>
      <point x="132" y="221"/>
      <point x="142" y="221" type="curve" smooth="yes"/>
      <point x="150" y="221"/>
      <point x="160" y="218"/>
      <point x="171" y="211" type="curve"/>
      <point x="186" y="230" type="line"/>
      <point x="183" y="239"/>
      <point x="174" y="246"/>
      <point x="160" y="251" type="curve" smooth="yes"/>
      <point x="145" y="256"/>
      <point x="128" y="259"/>
      <point x="108" y="259" type="curve" smooth="yes"/>
      <point x="87" y="259"/>
      <point x="68" y="252"/>
      <point x="53" y="238" type="curve" smooth="yes"/>
      <point x="38" y="224"/>
      <point x="30" y="207"/>
      <point x="30" y="187" type="curve" smooth="yes"/>
      <point x="30" y="164"/>
      <point x="46" y="139"/>
      <point x="78" y="112" type="curve" smooth="yes"/>
      <point x="111" y="84"/>
      <point x="140" y="70"/>
    </contour>
  </outline>
</glyph>
<glyph name="uni0C12" format="1">
  <advance width="637"/>
  <unicode hex="0C12"/>
  <outline>
    <contour>
      <point x="206" y="0" type="curve" smooth="yes" name="hr00"/>
      <point x="228" y="0"/>
      <point x="250" y="5"/>
      <point x="273" y="16" type="curve" smooth="yes"/>
      <point x="294" y="27"/>
      <point x="315" y="42"/>
      <point x="334" y="61" type="curve"/>
      <point x="357" y="41"/>
      <point x="381" y="26"/>
      <point x="406" y="16" type="curve" smooth="yes"/>
      <point x="432" y="5"/>
      <point x="457" y="0"/>
      <point x="480" y="0" type="curve" smooth="yes"/>
      <point x="519" y="0"/>
      <point x="552" y="10"/>
      <point x="579" y="31" type="curve" smooth="yes"/>
      <point x="606" y="53"/>
      <point x="620" y="79"/>
      <point x="620" y="109" type="curve" smooth="yes"/>
      <point x="620" y="118"/>
      <point x="614" y="130"/>
      <point x="604" y="145" type="curve" smooth="yes"/>
      <point x="593" y="161"/>
      <point x="589" y="174"/>
      <point x="589" y="183" type="curve" smooth="yes"/>
      <point x="589" y="191"/>
      <point x="591" y="198"/>
      <point x="595" y="205" type="curve" smooth="yes"/>
      <point x="600" y="212"/>
      <point x="607" y="216"/>
      <point x="614" y="219" type="curve"/>
      <point x="523" y="268" type="line"/>
      <point x="515" y="263"/>
      <point x="509" y="256"/>
      <point x="504" y="249" type="curve" smooth="yes"/>
      <point x="500" y="242"/>
      <point x="498" y="234"/>
      <point x="498" y="225" type="curve" smooth="yes"/>
      <point x="498" y="216"/>
      <point x="504" y="204"/>
      <point x="514" y="189" type="curve" smooth="yes"/>
      <point x="525" y="173"/>
      <point x="529" y="160"/>
      <point x="529" y="151" type="curve" smooth="yes"/>
      <point x="529" y="130"/>
      <point x="519" y="110"/>
      <point x="499" y="95" type="curve" smooth="yes"/>
      <point x="478" y="79"/>
      <point x="454" y="73"/>
      <point x="425" y="73" type="curve" smooth="yes"/>
      <point x="410" y="73"/>
      <point x="397" y="76"/>
      <point x="385" y="81" type="curve" smooth="yes"/>
      <point x="374" y="86"/>
      <point x="365" y="94"/>
      <point x="359" y="104" type="curve"/>
      <point x="368" y="119"/>
      <point x="380" y="131"/>
      <point x="395" y="140" type="curve"/>
      <point x="323" y="206" type="line"/>
      <point x="310" y="206"/>
      <point x="297" y="201"/>
      <point x="284" y="189" type="curve" smooth="yes"/>
      <point x="270" y="177"/>
      <point x="259" y="160"/>
      <point x="249" y="140" type="curve" smooth="yes"/>
      <point x="240" y="122"/>
      <point x="229" y="107"/>
      <point x="218" y="95" type="curve"/>
      <point x="205" y="84"/>
      <point x="194" y="79"/>
      <point x="183" y="79" type="curve" smooth="yes"/>
      <point x="170" y="79"/>
      <point x="158" y="84"/>
      <point x="148" y="93" type="curve"/>
      <point x="139" y="103"/>
      <point x="134" y="115"/>
      <point x="134" y="128" type="curve" smooth="yes"/>
      <point x="134" y="139"/>
      <point x="140" y="153"/>
      <point x="151" y="168" type="curve" smooth="yes"/>
      <point x="163" y="183"/>
      <point x="179" y="198"/>
      <point x="200" y="213" type="curve" smooth="yes"/>
      <point x="223" y="230"/>
      <point x="241" y="247"/>
      <point x="254" y="264" type="curve" smooth="yes"/>
      <point x="267" y="281"/>
      <point x="274" y="296"/>
      <point x="274" y="310" type="curve" smooth="yes"/>
      <point x="274" y="335"/>
      <point x="259" y="361"/>
      <point x="229" y="386" type="curve" smooth="yes"/>
      <point x="199" y="412"/>
      <point x="169" y="425"/>
      <point x="140" y="425" type="curve" smooth="yes"/>
      <point x="116" y="425"/>
      <point x="91" y="416"/>
      <point x="66" y="399" type="curve" smooth="yes"/>
      <point x="42" y="382"/>
      <point x="30" y="364"/>
      <point x="30" y="346" type="curve" smooth="yes"/>
      <point x="30" y="336"/>
      <point x="34" y="325"/>
      <point x="43" y="314" type="curve" smooth="yes"/>
      <point x="52" y="301"/>
      <point x="64" y="290"/>
      <point x="79" y="279" type="curve"/>
      <point x="115" y="304" type="line"/>
      <point x="106" y="313" type="line"/>
      <point x="105" y="316"/>
      <point x="104" y="319"/>
      <point x="104" y="321" type="curve" smooth="yes"/>
      <point x="104" y="330"/>
      <point x="109" y="338"/>
      <point x="120" y="346" type="curve" smooth="yes"/>
      <point x="131" y="355"/>
      <point x="142" y="359"/>
      <point x="153" y="359" type="curve" smooth="yes"/>
      <point x="160" y="359"/>
      <point x="165" y="356"/>
      <point x="169" y="351" type="curve" smooth="yes"/>
      <point x="174" y="346"/>
      <point x="176" y="341"/>
      <point x="176" y="334" type="curve" smooth="yes"/>
      <point x="176" y="327"/>
      <point x="171" y="318"/>
      <point x="161" y="306" type="curve" smooth="yes"/>
      <point x="153" y="295"/>
      <point x="140" y="283"/>
      <point x="121" y="268" type="curve" smooth="yes"/>
      <point x="100" y="250"/>
      <point x="84" y="232"/>
      <point x="73" y="215" type="curve" smooth="yes"/>
      <point x="61" y="198"/>
      <point x="55" y="183"/>
      <point x="55" y="170" type="curve" smooth="yes"/>
      <point x="55" y="135"/>
      <point x="73" y="98"/>
      <point x="108" y="59" type="curve" smooth="yes"/>
      <point x="143" y="20"/>
      <point x="175" y="0"/>
    </contour>
  </outline>
</glyph>
<glyph name="OO" format="1">
  <advance width="636"/>
  <unicode hex="0C13"/>
  <outline>
    <contour>
      <point x="206" y="0" type="curve" smooth="yes" name="hr00"/>
      <point x="228" y="0"/>
      <point x="250" y="5"/>
      <point x="273" y="16" type="curve" smooth="yes"/>
      <point x="294" y="27"/>
      <point x="315" y="42"/>
      <point x="334" y="61" type="curve"/>
      <point x="357" y="41"/>
      <point x="381" y="26"/>
      <point x="406" y="16" type="curve" smooth="yes"/>
      <point x="432" y="5"/>
      <point x="457" y="0"/>
      <point x="480" y="0" type="curve" smooth="yes"/>
      <point x="519" y="0"/>
      <point x="551" y="10"/>
      <point x="578" y="31" type="curve" smooth="yes"/>
      <point x="605" y="53"/>
      <point x="619" y="79"/>
      <point x="619" y="109" type="curve" smooth="yes"/>
      <point x="619" y="118"/>
      <point x="614" y="130"/>
      <point x="604" y="145" type="curve" smooth="yes"/>
      <point x="594" y="161"/>
      <point x="589" y="174"/>
      <point x="589" y="183" type="curve" smooth="yes"/>
      <point x="589" y="191"/>
      <point x="591" y="198"/>
      <point x="595" y="205" type="curve" smooth="yes"/>
      <point x="600" y="212"/>
      <point x="607" y="216"/>
      <point x="614" y="219" type="curve"/>
      <point x="523" y="268" type="line"/>
      <point x="515" y="263"/>
      <point x="509" y="256"/>
      <point x="504" y="249" type="curve" smooth="yes"/>
      <point x="500" y="242"/>
      <point x="498" y="234"/>
      <point x="498" y="225" type="curve" smooth="yes"/>
      <point x="498" y="216"/>
      <point x="503" y="204"/>
      <point x="513" y="189" type="curve" smooth="yes"/>
      <point x="524" y="173"/>
      <point x="529" y="160"/>
      <point x="529" y="151" type="curve" smooth="yes"/>
      <point x="529" y="130"/>
      <point x="519" y="110"/>
      <point x="499" y="95" type="curve" smooth="yes"/>
      <point x="478" y="79"/>
      <point x="454" y="73"/>
      <point x="425" y="73" type="curve" smooth="yes"/>
      <point x="410" y="73"/>
      <point x="397" y="76"/>
      <point x="385" y="81" type="curve" smooth="yes"/>
      <point x="374" y="86"/>
      <point x="365" y="94"/>
      <point x="359" y="104" type="curve"/>
      <point x="368" y="119"/>
      <point x="380" y="131"/>
      <point x="395" y="140" type="curve"/>
      <point x="321" y="206" type="line"/>
      <point x="309" y="206"/>
      <point x="297" y="201"/>
      <point x="284" y="189" type="curve" smooth="yes"/>
      <point x="270" y="177"/>
      <point x="259" y="160"/>
      <point x="249" y="140" type="curve" smooth="yes"/>
      <point x="240" y="122"/>
      <point x="229" y="107"/>
      <point x="218" y="95" type="curve"/>
      <point x="205" y="84"/>
      <point x="194" y="79"/>
      <point x="183" y="79" type="curve" smooth="yes"/>
      <point x="170" y="79"/>
      <point x="158" y="84"/>
      <point x="148" y="93" type="curve"/>
      <point x="139" y="103"/>
      <point x="134" y="115"/>
      <point x="134" y="128" type="curve" smooth="yes"/>
      <point x="134" y="139"/>
      <point x="140" y="153"/>
      <point x="151" y="168" type="curve" smooth="yes"/>
      <point x="163" y="183"/>
      <point x="179" y="198"/>
      <point x="200" y="213" type="curve" smooth="yes"/>
      <point x="227" y="232"/>
      <point x="245" y="246"/>
      <point x="254" y="255" type="curve" smooth="yes"/>
      <point x="267" y="267"/>
      <point x="274" y="277"/>
      <point x="274" y="285" type="curve" smooth="yes"/>
      <point x="274" y="314"/>
      <point x="263" y="344"/>
      <point x="241" y="374" type="curve" smooth="yes"/>
      <point x="220" y="404"/>
      <point x="198" y="419"/>
      <point x="176" y="419" type="curve"/>
      <point x="174" y="422"/>
      <point x="172" y="426"/>
      <point x="171" y="433" type="curve" smooth="yes"/>
      <point x="170" y="438"/>
      <point x="170" y="448"/>
      <point x="170" y="461" type="curve" smooth="yes"/>
      <point x="170" y="471"/>
      <point x="173" y="482"/>
      <point x="178" y="494" type="curve" smooth="yes"/>
      <point x="183" y="505"/>
      <point x="190" y="517"/>
      <point x="200" y="529" type="curve" smooth="yes"/>
      <point x="210" y="540"/>
      <point x="218" y="551"/>
      <point x="224" y="561" type="curve" smooth="yes"/>
      <point x="229" y="570"/>
      <point x="231" y="578"/>
      <point x="231" y="583" type="curve" smooth="yes"/>
      <point x="231" y="592"/>
      <point x="229" y="600"/>
      <point x="225" y="608" type="curve"/>
      <point x="109" y="638" type="line"/>
      <point x="113" y="633"/>
      <point x="116" y="628"/>
      <point x="118" y="624" type="curve" smooth="yes"/>
      <point x="120" y="620"/>
      <point x="121" y="617"/>
      <point x="121" y="614" type="curve" smooth="yes"/>
      <point x="121" y="600"/>
      <point x="114" y="582"/>
      <point x="98" y="559" type="curve" smooth="yes"/>
      <point x="82" y="536"/>
      <point x="73" y="518"/>
      <point x="73" y="504" type="curve" smooth="yes"/>
      <point x="73" y="493"/>
      <point x="77" y="481"/>
      <point x="84" y="466" type="curve" smooth="yes"/>
      <point x="91" y="453"/>
      <point x="102" y="439"/>
      <point x="115" y="425" type="curve"/>
      <point x="89" y="416"/>
      <point x="69" y="404"/>
      <point x="54" y="390" type="curve" smooth="yes"/>
      <point x="38" y="375"/>
      <point x="30" y="361"/>
      <point x="30" y="346" type="curve" smooth="yes"/>
      <point x="30" y="336"/>
      <point x="34" y="325"/>
      <point x="43" y="314" type="curve" smooth="yes"/>
      <point x="52" y="301"/>
      <point x="64" y="290"/>
      <point x="79" y="279" type="curve"/>
      <point x="115" y="304" type="line"/>
      <point x="106" y="313" type="line"/>
      <point x="105" y="316"/>
      <point x="104" y="319"/>
      <point x="104" y="321" type="curve" smooth="yes"/>
      <point x="104" y="330"/>
      <point x="109" y="338"/>
      <point x="120" y="346" type="curve"/>
      <point x="130" y="355"/>
      <point x="140" y="359"/>
      <point x="151" y="359" type="curve" smooth="yes"/>
      <point x="158" y="359"/>
      <point x="164" y="356"/>
      <point x="169" y="351" type="curve" smooth="yes"/>
      <point x="174" y="346"/>
      <point x="176" y="341"/>
      <point x="176" y="334" type="curve" smooth="yes"/>
      <point x="176" y="327"/>
      <point x="171" y="318"/>
      <point x="161" y="306" type="curve" smooth="yes"/>
      <point x="153" y="295"/>
      <point x="140" y="283"/>
      <point x="121" y="268" type="curve" smooth="yes"/>
      <point x="100" y="250"/>
      <point x="84" y="232"/>
      <point x="73" y="215" type="curve" smooth="yes"/>
      <point x="61" y="198"/>
      <point x="55" y="183"/>
      <point x="55" y="170" type="curve" smooth="yes"/>
      <point x="55" y="135"/>
      <point x="73" y="98"/>
      <point x="108" y="59" type="curve" smooth="yes"/>
      <point x="143" y="20"/>
      <point x="175" y="0"/>
    </contour>
  </outline>
</glyph>
<glyph name="AU" format="1">
  <advance width="661"/>
  <unicode hex="0C14"/>
  <outline>
    <contour>
      <point x="504" y="376" type="curve" smooth="yes" name="hr00"/>
      <point x="497" y="376"/>
      <point x="492" y="379"/>
      <point x="488" y="384" type="curve" smooth="yes"/>
      <point x="483" y="389"/>
      <point x="480" y="394"/>
      <point x="480" y="401" type="curve" smooth="yes"/>
      <point x="480" y="414"/>
      <point x="489" y="428"/>
      <point x="506" y="444" type="curve" smooth="yes"/>
      <point x="523" y="460"/>
      <point x="538" y="468"/>
      <point x="553" y="468" type="curve" smooth="yes"/>
      <point x="558" y="468"/>
      <point x="562" y="465"/>
      <point x="566" y="460" type="curve" smooth="yes"/>
      <point x="569" y="456"/>
      <point x="571" y="451"/>
      <point x="571" y="444" type="curve" smooth="yes"/>
      <point x="571" y="431"/>
      <point x="563" y="416"/>
      <point x="548" y="400" type="curve" smooth="yes"/>
      <point x="532" y="384"/>
      <point x="517" y="376"/>
    </contour>
    <contour>
      <point x="206" y="0" type="curve" smooth="yes"/>
      <point x="228" y="0"/>
      <point x="250" y="5"/>
      <point x="273" y="16" type="curve" smooth="yes"/>
      <point x="294" y="27"/>
      <point x="315" y="42"/>
      <point x="334" y="61" type="curve"/>
      <point x="357" y="41"/>
      <point x="381" y="26"/>
      <point x="406" y="16" type="curve" smooth="yes"/>
      <point x="432" y="5"/>
      <point x="457" y="0"/>
      <point x="480" y="0" type="curve" smooth="yes"/>
      <point x="519" y="0"/>
      <point x="552" y="10"/>
      <point x="579" y="31" type="curve" smooth="yes"/>
      <point x="606" y="53"/>
      <point x="620" y="79"/>
      <point x="620" y="109" type="curve" smooth="yes"/>
      <point x="620" y="119"/>
      <point x="614" y="133"/>
      <point x="604" y="151" type="curve" smooth="yes"/>
      <point x="593" y="170"/>
      <point x="589" y="184"/>
      <point x="589" y="194" type="curve" smooth="yes"/>
      <point x="589" y="199"/>
      <point x="591" y="203"/>
      <point x="595" y="208" type="curve" smooth="yes"/>
      <point x="600" y="213"/>
      <point x="607" y="216"/>
      <point x="614" y="219" type="curve"/>
      <point x="523" y="268" type="line"/>
      <point x="515" y="263"/>
      <point x="509" y="256"/>
      <point x="504" y="249" type="curve" smooth="yes"/>
      <point x="500" y="242"/>
      <point x="498" y="234"/>
      <point x="498" y="225" type="curve" smooth="yes"/>
      <point x="498" y="216"/>
      <point x="504" y="204"/>
      <point x="514" y="189" type="curve" smooth="yes"/>
      <point x="525" y="173"/>
      <point x="529" y="160"/>
      <point x="529" y="151" type="curve" smooth="yes"/>
      <point x="529" y="130"/>
      <point x="519" y="110"/>
      <point x="499" y="95" type="curve" smooth="yes"/>
      <point x="478" y="79"/>
      <point x="454" y="73"/>
      <point x="425" y="73" type="curve" smooth="yes"/>
      <point x="410" y="73"/>
      <point x="397" y="76"/>
      <point x="385" y="81" type="curve" smooth="yes"/>
      <point x="374" y="86"/>
      <point x="365" y="94"/>
      <point x="359" y="104" type="curve"/>
      <point x="368" y="119"/>
      <point x="380" y="131"/>
      <point x="395" y="140" type="curve"/>
      <point x="323" y="206" type="line"/>
      <point x="310" y="206"/>
      <point x="297" y="201"/>
      <point x="284" y="189" type="curve" smooth="yes"/>
      <point x="270" y="177"/>
      <point x="259" y="160"/>
      <point x="249" y="140" type="curve" smooth="yes"/>
      <point x="240" y="122"/>
      <point x="229" y="107"/>
      <point x="218" y="95" type="curve"/>
      <point x="205" y="84"/>
      <point x="194" y="79"/>
      <point x="183" y="79" type="curve" smooth="yes"/>
      <point x="170" y="79"/>
      <point x="158" y="84"/>
      <point x="148" y="93" type="curve"/>
      <point x="139" y="103"/>
      <point x="134" y="115"/>
      <point x="134" y="128" type="curve" smooth="yes"/>
      <point x="134" y="139"/>
      <point x="140" y="153"/>
      <point x="151" y="168" type="curve" smooth="yes"/>
      <point x="163" y="183"/>
      <point x="179" y="198"/>
      <point x="200" y="213" type="curve" smooth="yes"/>
      <point x="223" y="230"/>
      <point x="241" y="246"/>
      <point x="254" y="263" type="curve" smooth="yes"/>
      <point x="267" y="278"/>
      <point x="274" y="292"/>
      <point x="274" y="304" type="curve" smooth="yes"/>
      <point x="274" y="314"/>
      <point x="270" y="325"/>
      <point x="263" y="338" type="curve"/>
      <point x="255" y="350"/>
      <point x="244" y="363"/>
      <point x="231" y="376" type="curve"/>
      <point x="251" y="384"/>
      <point x="267" y="394"/>
      <point x="279" y="406" type="curve" smooth="yes"/>
      <point x="292" y="418"/>
      <point x="298" y="431"/>
      <point x="298" y="444" type="curve" smooth="yes"/>
      <point x="298" y="455"/>
      <point x="293" y="467"/>
      <point x="283" y="480" type="curve" smooth="yes"/>
      <point x="274" y="493"/>
      <point x="260" y="505"/>
      <point x="243" y="516" type="curve"/>
      <point x="265" y="525"/>
      <point x="307" y="529"/>
      <point x="370" y="529" type="curve" smooth="yes"/>
      <point x="380" y="529" type="line" smooth="yes"/>
      <point x="439" y="529"/>
      <point x="475" y="527"/>
      <point x="486" y="523" type="curve"/>
      <point x="461" y="517"/>
      <point x="441" y="505"/>
      <point x="425" y="486" type="curve" smooth="yes"/>
      <point x="409" y="468"/>
      <point x="401" y="448"/>
      <point x="401" y="425" type="curve" smooth="yes"/>
      <point x="401" y="400"/>
      <point x="415" y="373"/>
      <point x="445" y="345" type="curve" smooth="yes"/>
      <point x="474" y="317"/>
      <point x="502" y="304"/>
      <point x="529" y="304" type="curve" smooth="yes"/>
      <point x="557" y="304"/>
      <point x="584" y="316"/>
      <point x="608" y="341" type="curve" smooth="yes"/>
      <point x="633" y="367"/>
      <point x="644" y="395"/>
      <point x="644" y="425" type="curve" smooth="yes"/>
      <point x="644" y="460"/>
      <point x="622" y="495"/>
      <point x="579" y="530" type="curve" smooth="yes"/>
      <point x="536" y="565"/>
      <point x="493" y="583"/>
      <point x="450" y="583" type="curve" smooth="yes"/>
      <point x="291" y="583" type="line" smooth="yes"/>
      <point x="247" y="583"/>
      <point x="208" y="587"/>
      <point x="175" y="595" type="curve" smooth="yes"/>
      <point x="142" y="604"/>
      <point x="117" y="616"/>
      <point x="98" y="631" type="curve"/>
      <point x="30" y="529" type="line"/>
      <point x="39" y="519"/>
      <point x="49" y="511"/>
      <point x="61" y="506" type="curve" smooth="yes"/>
      <point x="74" y="501"/>
      <point x="89" y="498"/>
      <point x="104" y="498" type="curve" smooth="yes"/>
      <point x="164" y="498" type="line" smooth="yes"/>
      <point x="174" y="498"/>
      <point x="183" y="495"/>
      <point x="190" y="490" type="curve" smooth="yes"/>
      <point x="197" y="486"/>
      <point x="200" y="481"/>
      <point x="200" y="474" type="curve" smooth="yes"/>
      <point x="200" y="465"/>
      <point x="193" y="455"/>
      <point x="180" y="446" type="curve" smooth="yes"/>
      <point x="167" y="437"/>
      <point x="149" y="430"/>
      <point x="128" y="425" type="curve" smooth="yes"/>
      <point x="99" y="418"/>
      <point x="76" y="407"/>
      <point x="58" y="393" type="curve" smooth="yes"/>
      <point x="39" y="378"/>
      <point x="30" y="362"/>
      <point x="30" y="346" type="curve" smooth="yes"/>
      <point x="30" y="336"/>
      <point x="34" y="325"/>
      <point x="43" y="314" type="curve" smooth="yes"/>
      <point x="52" y="301"/>
      <point x="64" y="290"/>
      <point x="79" y="279" type="curve"/>
      <point x="115" y="304" type="line"/>
      <point x="106" y="313" type="line"/>
      <point x="105" y="316"/>
      <point x="104" y="319"/>
      <point x="104" y="321" type="curve" smooth="yes"/>
      <point x="104" y="330"/>
      <point x="109" y="338"/>
      <point x="120" y="346" type="curve" smooth="yes"/>
      <point x="131" y="355"/>
      <point x="142" y="359"/>
      <point x="153" y="359" type="curve" smooth="yes"/>
      <point x="160" y="359"/>
      <point x="165" y="356"/>
      <point x="169" y="351" type="curve" smooth="yes"/>
      <point x="174" y="346"/>
      <point x="176" y="341"/>
      <point x="176" y="334" type="curve" smooth="yes"/>
      <point x="176" y="327"/>
      <point x="171" y="318"/>
      <point x="161" y="306" type="curve" smooth="yes"/>
      <point x="153" y="295"/>
      <point x="140" y="283"/>
      <point x="121" y="268" type="curve" smooth="yes"/>
      <point x="100" y="250"/>
      <point x="84" y="232"/>
      <point x="73" y="215" type="curve" smooth="yes"/>
      <point x="61" y="198"/>
      <point x="55" y="183"/>
      <point x="55" y="170" type="curve" smooth="yes"/>
      <point x="55" y="135"/>
      <point x="73" y="98"/>
      <point x="108" y="59" type="curve" smooth="yes"/>
      <point x="143" y="20"/>
      <point x="175" y="0"/>
    </contour>
  </outline>
</glyph>
<glyph name="Ka" format="1">
  <advance width="601"/>
  <unicode hex="0C15"/>
  <outline>
    <contour>
      <point x="232" y="400" type="curve" name="hr00"/>
      <point x="247" y="415"/>
      <point x="266" y="429"/>
      <point x="288" y="441" type="curve" smooth="yes"/>
      <point x="327" y="464"/>
      <point x="373" y="480"/>
      <point x="426" y="489" type="curve" smooth="yes"/>
      <point x="465" y="496"/>
      <point x="499" y="505"/>
      <point x="526" y="518" type="curve" smooth="yes"/>
      <point x="554" y="531"/>
      <point x="573" y="546"/>
      <point x="584" y="561" type="curve"/>
      <point x="463" y="640" type="line"/>
      <point x="447" y="613"/>
      <point x="426" y="591"/>
      <point x="400" y="573" type="curve" smooth="yes"/>
      <point x="373" y="555"/>
      <point x="344" y="543"/>
      <point x="311" y="538" type="curve" smooth="yes"/>
      <point x="259" y="529"/>
      <point x="213" y="514"/>
      <point x="173" y="493" type="curve" smooth="yes"/>
      <point x="133" y="472"/>
      <point x="102" y="446"/>
      <point x="80" y="416" type="curve"/>
      <point x="171" y="375" type="line"/>
      <point x="130" y="353"/>
      <point x="95" y="325"/>
      <point x="66" y="291" type="curve"/>
      <point x="66" y="286"/>
      <point x="71" y="281"/>
      <point x="81" y="276" type="curve"/>
      <point x="121" y="261" type="line"/>
      <point x="309" y="200" type="line" smooth="yes"/>
      <point x="342" y="189"/>
      <point x="368" y="181"/>
      <point x="386" y="173" type="curve" smooth="yes"/>
      <point x="406" y="164"/>
      <point x="419" y="155"/>
      <point x="424" y="146" type="curve"/>
      <point x="410" y="127"/>
      <point x="393" y="112"/>
      <point x="373" y="101" type="curve" smooth="yes"/>
      <point x="353" y="90"/>
      <point x="332" y="85"/>
      <point x="309" y="85" type="curve"/>
      <point x="158" y="109" type="line"/>
      <point x="135" y="109"/>
      <point x="112" y="103"/>
      <point x="89" y="90" type="curve" smooth="yes"/>
      <point x="66" y="77"/>
      <point x="47" y="59"/>
      <point x="30" y="36" type="curve"/>
      <point x="164" y="-6" type="line"/>
      <point x="168" y="3"/>
      <point x="177" y="10"/>
      <point x="190" y="15" type="curve" smooth="yes"/>
      <point x="203" y="21"/>
      <point x="218" y="24"/>
      <point x="236" y="24" type="curve"/>
      <point x="381" y="6" type="line"/>
      <point x="417" y="6"/>
      <point x="450" y="19"/>
      <point x="481" y="45" type="curve" smooth="yes"/>
      <point x="513" y="71"/>
      <point x="536" y="105"/>
      <point x="551" y="146" type="curve"/>
      <point x="544" y="158"/>
      <point x="529" y="171"/>
      <point x="505" y="184" type="curve" smooth="yes"/>
      <point x="482" y="197"/>
      <point x="451" y="211"/>
      <point x="413" y="225" type="curve" smooth="yes"/>
      <point x="236" y="291" type="line"/>
      <point x="259" y="311"/>
      <point x="287" y="325"/>
      <point x="319" y="336" type="curve" smooth="yes"/>
      <point x="350" y="346"/>
      <point x="384" y="353"/>
      <point x="419" y="353" type="curve" smooth="yes"/>
      <point x="427" y="353"/>
      <point x="434" y="350"/>
      <point x="440" y="345" type="curve" smooth="yes"/>
      <point x="446" y="340"/>
      <point x="449" y="335"/>
      <point x="449" y="328" type="curve" smooth="yes"/>
      <point x="449" y="323"/>
      <point x="445" y="317"/>
      <point x="438" y="310" type="curve" smooth="yes"/>
      <point x="430" y="303"/>
      <point x="419" y="297"/>
      <point x="406" y="291" type="curve"/>
      <point x="491" y="243" type="line"/>
      <point x="508" y="253"/>
      <point x="521" y="264"/>
      <point x="531" y="275" type="curve" smooth="yes"/>
      <point x="541" y="288"/>
      <point x="546" y="299"/>
      <point x="546" y="310" type="curve" smooth="yes"/>
      <point x="546" y="333"/>
      <point x="528" y="358"/>
      <point x="491" y="385" type="curve" smooth="yes"/>
      <point x="454" y="412"/>
      <point x="420" y="425"/>
      <point x="388" y="425" type="curve" smooth="yes"/>
      <point x="333" y="425"/>
      <point x="281" y="417"/>
    </contour>
  </outline>
</glyph>
<glyph name="Kha" format="1">
  <advance width="655"/>
  <unicode hex="0C16"/>
  <outline>
    <contour>
      <point x="353" y="-97" type="line" name="hr00"/>
      <point x="332" y="-83"/>
      <point x="315" y="-70"/>
      <point x="303" y="-57" type="curve" smooth="yes"/>
      <point x="291" y="-44"/>
      <point x="285" y="-33"/>
      <point x="285" y="-25" type="curve" smooth="yes"/>
      <point x="285" y="-22"/>
      <point x="286" y="-18"/>
      <point x="288" y="-12" type="curve" smooth="yes"/>
      <point x="290" y="-7"/>
      <point x="291" y="-4"/>
      <point x="291" y="-1" type="curve" smooth="yes"/>
      <point x="291" y="0"/>
      <point x="290" y="2"/>
      <point x="288" y="4" type="curve" smooth="yes"/>
      <point x="286" y="5"/>
      <point x="283" y="5"/>
      <point x="280" y="5" type="curve"/>
      <point x="253" y="-18"/>
      <point x="232" y="-38"/>
      <point x="218" y="-55" type="curve" smooth="yes"/>
      <point x="203" y="-72"/>
      <point x="195" y="-86"/>
      <point x="195" y="-97" type="curve" smooth="yes"/>
      <point x="195" y="-108"/>
      <point x="203" y="-122"/>
      <point x="216" y="-137" type="curve" smooth="yes"/>
      <point x="230" y="-153"/>
      <point x="249" y="-170"/>
      <point x="274" y="-189" type="curve"/>
    </contour>
    <contour>
      <point x="134" y="91" type="curve" smooth="yes"/>
      <point x="129" y="91"/>
      <point x="124" y="93"/>
      <point x="120" y="96" type="curve" smooth="yes"/>
      <point x="117" y="99"/>
      <point x="115" y="104"/>
      <point x="115" y="109" type="curve" smooth="yes"/>
      <point x="115" y="119"/>
      <point x="121" y="129"/>
      <point x="133" y="138" type="curve" smooth="yes"/>
      <point x="145" y="147"/>
      <point x="157" y="151"/>
      <point x="170" y="151" type="curve" smooth="yes"/>
      <point x="175" y="151"/>
      <point x="180" y="150"/>
      <point x="184" y="148" type="curve" smooth="yes"/>
      <point x="187" y="146"/>
      <point x="189" y="143"/>
      <point x="189" y="140" type="curve" smooth="yes"/>
      <point x="189" y="129"/>
      <point x="183" y="120"/>
      <point x="170" y="108" type="curve" smooth="yes"/>
      <point x="159" y="97"/>
      <point x="147" y="91"/>
    </contour>
    <contour>
      <point x="176" y="0" type="curve" smooth="yes"/>
      <point x="194" y="0"/>
      <point x="211" y="8"/>
      <point x="228" y="25" type="curve" smooth="yes"/>
      <point x="245" y="42"/>
      <point x="258" y="64"/>
      <point x="268" y="91" type="curve"/>
      <point x="303" y="62"/>
      <point x="335" y="40"/>
      <point x="365" y="24" type="curve" smooth="yes"/>
      <point x="396" y="8"/>
      <point x="422" y="0"/>
      <point x="444" y="0" type="curve" smooth="yes"/>
      <point x="484" y="0"/>
      <point x="525" y="23"/>
      <point x="570" y="68" type="curve" smooth="yes"/>
      <point x="615" y="113"/>
      <point x="638" y="154"/>
      <point x="638" y="194" type="curve" smooth="yes"/>
      <point x="638" y="215"/>
      <point x="629" y="238"/>
      <point x="611" y="261" type="curve" smooth="yes"/>
      <point x="594" y="284"/>
      <point x="571" y="307"/>
      <point x="540" y="328" type="curve" smooth="yes"/>
      <point x="523" y="339"/>
      <point x="509" y="352"/>
      <point x="500" y="365" type="curve" smooth="yes"/>
      <point x="490" y="378"/>
      <point x="485" y="390"/>
      <point x="485" y="401" type="curve" smooth="yes"/>
      <point x="485" y="406"/>
      <point x="486" y="411"/>
      <point x="489" y="415" type="curve"/>
      <point x="490" y="419"/>
      <point x="493" y="423"/>
      <point x="498" y="426" type="curve"/>
      <point x="406" y="475" type="line"/>
      <point x="395" y="468"/>
      <point x="387" y="460"/>
      <point x="380" y="450" type="curve" smooth="yes"/>
      <point x="373" y="441"/>
      <point x="370" y="431"/>
      <point x="370" y="420" type="curve" smooth="yes"/>
      <point x="370" y="407"/>
      <point x="377" y="393"/>
      <point x="390" y="378" type="curve" smooth="yes"/>
      <point x="403" y="361"/>
      <point x="421" y="345"/>
      <point x="444" y="328" type="curve" smooth="yes"/>
      <point x="469" y="309"/>
      <point x="487" y="290"/>
      <point x="501" y="271" type="curve" smooth="yes"/>
      <point x="515" y="252"/>
      <point x="523" y="235"/>
      <point x="523" y="219" type="curve" smooth="yes"/>
      <point x="523" y="192"/>
      <point x="509" y="164"/>
      <point x="481" y="135" type="curve" smooth="yes"/>
      <point x="453" y="106"/>
      <point x="426" y="91"/>
      <point x="401" y="91" type="curve" smooth="yes"/>
      <point x="380" y="91"/>
      <point x="360" y="96"/>
      <point x="339" y="105" type="curve" smooth="yes"/>
      <point x="318" y="115"/>
      <point x="299" y="129"/>
      <point x="280" y="146" type="curve"/>
      <point x="283" y="155"/>
      <point x="285" y="175"/>
      <point x="285" y="206" type="curve" smooth="yes"/>
      <point x="285" y="261"/>
      <point x="270" y="311"/>
      <point x="240" y="356" type="curve" smooth="yes"/>
      <point x="209" y="402"/>
      <point x="176" y="425"/>
      <point x="140" y="425" type="curve" smooth="yes"/>
      <point x="113" y="425"/>
      <point x="88" y="417"/>
      <point x="65" y="399" type="curve" smooth="yes"/>
      <point x="42" y="381"/>
      <point x="30" y="361"/>
      <point x="30" y="340" type="curve" smooth="yes"/>
      <point x="30" y="332"/>
      <point x="34" y="322"/>
      <point x="43" y="310" type="curve" smooth="yes"/>
      <point x="51" y="299"/>
      <point x="63" y="287"/>
      <point x="79" y="274" type="curve"/>
      <point x="115" y="298" type="line"/>
      <point x="106" y="308" type="line" smooth="yes"/>
      <point x="105" y="310"/>
      <point x="104" y="313"/>
      <point x="104" y="316" type="curve" smooth="yes"/>
      <point x="104" y="326"/>
      <point x="109" y="335"/>
      <point x="118" y="343" type="curve"/>
      <point x="128" y="350"/>
      <point x="140" y="353"/>
      <point x="153" y="353" type="curve" smooth="yes"/>
      <point x="173" y="353"/>
      <point x="190" y="342"/>
      <point x="204" y="319" type="curve" smooth="yes"/>
      <point x="218" y="296"/>
      <point x="225" y="269"/>
      <point x="225" y="236" type="curve" smooth="yes"/>
      <point x="225" y="225"/>
      <point x="225" y="216"/>
      <point x="224" y="209" type="curve" smooth="yes"/>
      <point x="223" y="202"/>
      <point x="222" y="197"/>
      <point x="219" y="194" type="curve"/>
      <point x="203" y="210"/>
      <point x="187" y="221"/>
      <point x="171" y="230" type="curve" smooth="yes"/>
      <point x="156" y="238"/>
      <point x="141" y="243"/>
      <point x="128" y="243" type="curve" smooth="yes"/>
      <point x="111" y="243"/>
      <point x="97" y="235"/>
      <point x="85" y="218" type="curve" smooth="yes"/>
      <point x="74" y="201"/>
      <point x="68" y="181"/>
      <point x="68" y="158" type="curve" smooth="yes"/>
      <point x="68" y="115"/>
      <point x="78" y="77"/>
      <point x="99" y="46" type="curve" smooth="yes"/>
      <point x="120" y="15"/>
      <point x="146" y="0"/>
    </contour>
  </outline>
</glyph>
<glyph name="Ga" format="1">
  <advance width="606"/>
  <unicode hex="0C17"/>
  <outline>
    <contour>
      <point x="264" y="425" type="line" name="hr00"/>
      <point x="271" y="430"/>
      <point x="279" y="435"/>
      <point x="288" y="440" type="curve" smooth="yes"/>
      <point x="327" y="463"/>
      <point x="373" y="479"/>
      <point x="426" y="488" type="curve" smooth="yes"/>
      <point x="465" y="495"/>
      <point x="499" y="504"/>
      <point x="526" y="516" type="curve" smooth="yes"/>
      <point x="554" y="529"/>
      <point x="573" y="544"/>
      <point x="584" y="560" type="curve"/>
      <point x="463" y="639" type="line"/>
      <point x="447" y="612"/>
      <point x="427" y="589"/>
      <point x="400" y="571" type="curve" smooth="yes"/>
      <point x="374" y="553"/>
      <point x="344" y="542"/>
      <point x="311" y="536" type="curve" smooth="yes"/>
      <point x="259" y="527"/>
      <point x="213" y="512"/>
      <point x="173" y="491" type="curve" smooth="yes"/>
      <point x="133" y="470"/>
      <point x="102" y="445"/>
      <point x="80" y="415" type="curve"/>
      <point x="155" y="381" type="line"/>
      <point x="130" y="366"/>
      <point x="109" y="350"/>
      <point x="90" y="333" type="curve" smooth="yes"/>
      <point x="50" y="295"/>
      <point x="30" y="257"/>
      <point x="30" y="219" type="curve" smooth="yes"/>
      <point x="30" y="210"/>
      <point x="34" y="199"/>
      <point x="43" y="184" type="curve" smooth="yes"/>
      <point x="51" y="170"/>
      <point x="63" y="153"/>
      <point x="79" y="134" type="curve" smooth="yes"/>
      <point x="90" y="120"/>
      <point x="99" y="107"/>
      <point x="106" y="94" type="curve" smooth="yes"/>
      <point x="112" y="81"/>
      <point x="115" y="70"/>
      <point x="115" y="61" type="curve" smooth="yes"/>
      <point x="115" y="53"/>
      <point x="114" y="46"/>
      <point x="113" y="39" type="curve"/>
      <point x="110" y="32"/>
      <point x="107" y="27"/>
      <point x="104" y="24" type="curve"/>
      <point x="206" y="0" type="line"/>
      <point x="211" y="7"/>
      <point x="213" y="15"/>
      <point x="213" y="24" type="curve" smooth="yes"/>
      <point x="213" y="45"/>
      <point x="200" y="74"/>
      <point x="173" y="109" type="curve" smooth="yes"/>
      <point x="147" y="144"/>
      <point x="134" y="172"/>
      <point x="134" y="194" type="curve" smooth="yes"/>
      <point x="134" y="220"/>
      <point x="140" y="245"/>
      <point x="153" y="268" type="curve" smooth="yes"/>
      <point x="166" y="291"/>
      <point x="183" y="313"/>
      <point x="206" y="328" type="curve" smooth="yes"/>
      <point x="261" y="364" type="line"/>
      <point x="327" y="340"/>
      <point x="380" y="314"/>
      <point x="420" y="285" type="curve" smooth="yes"/>
      <point x="460" y="256"/>
      <point x="480" y="229"/>
      <point x="480" y="206" type="curve" smooth="yes"/>
      <point x="480" y="179"/>
      <point x="470" y="151"/>
      <point x="448" y="125" type="curve" smooth="yes"/>
      <point x="426" y="98"/>
      <point x="396" y="78"/>
      <point x="359" y="61" type="curve"/>
      <point x="450" y="-19" type="line"/>
      <point x="493" y="6"/>
      <point x="527" y="38"/>
      <point x="551" y="75" type="curve" smooth="yes"/>
      <point x="576" y="114"/>
      <point x="589" y="153"/>
      <point x="589" y="194" type="curve" smooth="yes"/>
      <point x="589" y="233"/>
      <point x="564" y="274"/>
      <point x="513" y="316" type="curve" smooth="yes"/>
      <point x="461" y="358"/>
      <point x="393" y="394"/>
      <point x="310" y="425" type="curve"/>
    </contour>
  </outline>
</glyph>
<glyph name="Gha" format="1">
  <advance width="947"/>
  <unicode hex="0C18"/>
  <outline>
    <contour>
      <point x="216" y="-137" type="curve" smooth="yes" name="hr00"/>
      <point x="230" y="-153"/>
      <point x="249" y="-170"/>
      <point x="274" y="-189" type="curve"/>
      <point x="353" y="-97" type="line"/>
      <point x="332" y="-83"/>
      <point x="315" y="-70"/>
      <point x="304" y="-57" type="curve" smooth="yes"/>
      <point x="292" y="-44"/>
      <point x="286" y="-33"/>
      <point x="286" y="-25" type="curve" smooth="yes"/>
      <point x="286" y="-22"/>
      <point x="287" y="-19"/>
      <point x="289" y="-15" type="curve" smooth="yes"/>
      <point x="290" y="-12"/>
      <point x="291" y="-9"/>
      <point x="291" y="-6" type="curve" smooth="yes"/>
      <point x="291" y="-3"/>
      <point x="290" y="0"/>
      <point x="288" y="1" type="curve"/>
      <point x="286" y="4"/>
      <point x="283" y="5"/>
      <point x="280" y="5" type="curve"/>
      <point x="253" y="-18"/>
      <point x="232" y="-38"/>
      <point x="218" y="-55" type="curve" smooth="yes"/>
      <point x="203" y="-72"/>
      <point x="195" y="-86"/>
      <point x="195" y="-97" type="curve" smooth="yes"/>
      <point x="195" y="-108"/>
      <point x="203" y="-122"/>
    </contour>
    <contour>
      <point x="563" y="90" type="line"/>
      <point x="580" y="68"/>
      <point x="600" y="50"/>
      <point x="625" y="35" type="curve" smooth="yes"/>
      <point x="664" y="12"/>
      <point x="707" y="0"/>
      <point x="754" y="0" type="curve" smooth="yes"/>
      <point x="797" y="0"/>
      <point x="838" y="20"/>
      <point x="875" y="61" type="curve" smooth="yes"/>
      <point x="912" y="101"/>
      <point x="930" y="145"/>
      <point x="930" y="194" type="curve" smooth="yes"/>
      <point x="930" y="215"/>
      <point x="922" y="236"/>
      <point x="906" y="259" type="curve" smooth="yes"/>
      <point x="889" y="282"/>
      <point x="867" y="302"/>
      <point x="839" y="321" type="curve" smooth="yes"/>
      <point x="827" y="329"/>
      <point x="818" y="337"/>
      <point x="813" y="346" type="curve"/>
      <point x="806" y="355"/>
      <point x="803" y="363"/>
      <point x="803" y="370" type="curve" smooth="yes"/>
      <point x="803" y="374"/>
      <point x="805" y="379"/>
      <point x="808" y="384" type="curve" smooth="yes"/>
      <point x="811" y="390"/>
      <point x="816" y="396"/>
      <point x="821" y="401" type="curve"/>
      <point x="730" y="444" type="line"/>
      <point x="717" y="437"/>
      <point x="706" y="427"/>
      <point x="699" y="416" type="curve" smooth="yes"/>
      <point x="692" y="405"/>
      <point x="688" y="394"/>
      <point x="688" y="383" type="curve" smooth="yes"/>
      <point x="688" y="374"/>
      <point x="695" y="363"/>
      <point x="709" y="350" type="curve" smooth="yes"/>
      <point x="722" y="337"/>
      <point x="741" y="324"/>
      <point x="766" y="310" type="curve" smooth="yes"/>
      <point x="789" y="297"/>
      <point x="806" y="282"/>
      <point x="819" y="266" type="curve" smooth="yes"/>
      <point x="832" y="249"/>
      <point x="839" y="234"/>
      <point x="839" y="219" type="curve" smooth="yes"/>
      <point x="839" y="183"/>
      <point x="826" y="150"/>
      <point x="799" y="119" type="curve" smooth="yes"/>
      <point x="772" y="88"/>
      <point x="743" y="73"/>
      <point x="711" y="73" type="curve" smooth="yes"/>
      <point x="684" y="73"/>
      <point x="657" y="83"/>
      <point x="631" y="104" type="curve" smooth="yes"/>
      <point x="616" y="117"/>
      <point x="602" y="132"/>
      <point x="589" y="149" type="curve"/>
      <point x="593" y="164"/>
      <point x="595" y="179"/>
      <point x="595" y="194" type="curve" smooth="yes"/>
      <point x="595" y="207"/>
      <point x="589" y="223"/>
      <point x="575" y="244" type="curve" smooth="yes"/>
      <point x="562" y="264"/>
      <point x="540" y="285"/>
      <point x="516" y="310" type="curve" smooth="yes"/>
      <point x="480" y="349" type="line"/>
      <point x="472" y="360"/>
      <point x="468" y="369"/>
      <point x="468" y="376" type="curve" smooth="yes"/>
      <point x="468" y="381"/>
      <point x="469" y="386"/>
      <point x="471" y="390" type="curve" smooth="yes"/>
      <point x="473" y="394"/>
      <point x="476" y="398"/>
      <point x="480" y="401" type="curve"/>
      <point x="389" y="444" type="line"/>
      <point x="380" y="435"/>
      <point x="372" y="427"/>
      <point x="366" y="418" type="curve"/>
      <point x="361" y="408"/>
      <point x="359" y="398"/>
      <point x="359" y="389" type="curve" smooth="yes"/>
      <point x="359" y="382"/>
      <point x="363" y="374"/>
      <point x="371" y="363" type="curve"/>
      <point x="380" y="353"/>
      <point x="392" y="341"/>
      <point x="408" y="328" type="curve" smooth="yes"/>
      <point x="435" y="305"/>
      <point x="455" y="284"/>
      <point x="470" y="265" type="curve" smooth="yes"/>
      <point x="485" y="246"/>
      <point x="493" y="230"/>
      <point x="493" y="219" type="curve" smooth="yes"/>
      <point x="493" y="187"/>
      <point x="480" y="154"/>
      <point x="455" y="119" type="curve" smooth="yes"/>
      <point x="429" y="84"/>
      <point x="405" y="66"/>
      <point x="383" y="66" type="curve" smooth="yes"/>
      <point x="374" y="66"/>
      <point x="363" y="69"/>
      <point x="350" y="76" type="curve" smooth="yes"/>
      <point x="337" y="82"/>
      <point x="324" y="91"/>
      <point x="310" y="104" type="curve"/>
      <point x="310" y="131"/>
      <point x="293" y="163"/>
      <point x="260" y="198" type="curve" smooth="yes"/>
      <point x="227" y="232"/>
      <point x="197" y="249"/>
      <point x="170" y="249" type="curve" smooth="yes"/>
      <point x="139" y="249"/>
      <point x="109" y="236"/>
      <point x="78" y="210" type="curve" smooth="yes"/>
      <point x="47" y="184"/>
      <point x="31" y="159"/>
      <point x="31" y="134" type="curve" smooth="yes"/>
      <point x="31" y="105"/>
      <point x="47" y="75"/>
      <point x="80" y="45" type="curve" smooth="yes"/>
      <point x="113" y="15"/>
      <point x="145" y="0"/>
      <point x="176" y="0" type="curve" smooth="yes"/>
      <point x="196" y="0"/>
      <point x="216" y="5"/>
      <point x="235" y="15" type="curve" smooth="yes"/>
      <point x="254" y="24"/>
      <point x="271" y="38"/>
      <point x="286" y="55" type="curve"/>
      <point x="303" y="36"/>
      <point x="324" y="21"/>
      <point x="350" y="10" type="curve" smooth="yes"/>
      <point x="377" y="-1"/>
      <point x="406" y="-6"/>
      <point x="438" y="-6" type="curve" smooth="yes"/>
      <point x="473" y="-6"/>
      <point x="511" y="14"/>
      <point x="543" y="61" type="curve" smooth="yes"/>
    </contour>
    <contour>
      <point x="139" y="335" type="line"/>
      <point x="164" y="378"/>
      <point x="198" y="414"/>
      <point x="241" y="443" type="curve" smooth="yes"/>
      <point x="284" y="471"/>
      <point x="334" y="490"/>
      <point x="389" y="500" type="curve" smooth="yes"/>
      <point x="422" y="506"/>
      <point x="451" y="513"/>
      <point x="475" y="524" type="curve" smooth="yes"/>
      <point x="498" y="534"/>
      <point x="516" y="547"/>
      <point x="528" y="560" type="curve"/>
      <point x="413" y="639" type="line"/>
      <point x="406" y="622"/>
      <point x="389" y="605"/>
      <point x="360" y="589" type="curve" smooth="yes"/>
      <point x="331" y="572"/>
      <point x="294" y="559"/>
      <point x="249" y="548" type="curve" smooth="yes"/>
      <point x="196" y="535"/>
      <point x="150" y="517"/>
      <point x="113" y="494" type="curve" smooth="yes"/>
      <point x="74" y="471"/>
      <point x="47" y="444"/>
      <point x="30" y="415" type="curve"/>
    </contour>
    <contour>
      <point x="193" y="98" type="curve" smooth="yes"/>
      <point x="175" y="81"/>
      <point x="157" y="73"/>
      <point x="140" y="73" type="curve" smooth="yes"/>
      <point x="133" y="73"/>
      <point x="128" y="75"/>
      <point x="124" y="78" type="curve" smooth="yes"/>
      <point x="119" y="82"/>
      <point x="116" y="86"/>
      <point x="116" y="91" type="curve" smooth="yes"/>
      <point x="116" y="107"/>
      <point x="126" y="123"/>
      <point x="145" y="140" type="curve" smooth="yes"/>
      <point x="164" y="156"/>
      <point x="183" y="164"/>
      <point x="201" y="164" type="curve" smooth="yes"/>
      <point x="206" y="164"/>
      <point x="211" y="162"/>
      <point x="214" y="159" type="curve" smooth="yes"/>
      <point x="217" y="156"/>
      <point x="219" y="151"/>
      <point x="219" y="146" type="curve" smooth="yes"/>
      <point x="219" y="131"/>
      <point x="210" y="115"/>
    </contour>
  </outline>
</glyph>
<glyph name="Cha" format="1">
  <advance width="799"/>
  <unicode hex="0C1B"/>
  <outline>
    <contour>
      <point x="457" y="425" type="curve" name="hr00"/>
      <point x="466" y="431"/>
      <point x="475" y="436"/>
      <point x="485" y="442" type="curve" smooth="yes"/>
      <point x="524" y="464"/>
      <point x="571" y="481"/>
      <point x="624" y="490" type="curve" smooth="yes"/>
      <point x="663" y="497"/>
      <point x="697" y="506"/>
      <point x="724" y="519" type="curve" smooth="yes"/>
      <point x="752" y="532"/>
      <point x="771" y="547"/>
      <point x="782" y="563" type="curve"/>
      <point x="660" y="642" type="line"/>
      <point x="645" y="615"/>
      <point x="625" y="592"/>
      <point x="598" y="574" type="curve" smooth="yes"/>
      <point x="572" y="556"/>
      <point x="542" y="545"/>
      <point x="509" y="539" type="curve" smooth="yes"/>
      <point x="456" y="530"/>
      <point x="410" y="515"/>
      <point x="370" y="494" type="curve" smooth="yes"/>
      <point x="330" y="473"/>
      <point x="299" y="447"/>
      <point x="277" y="417" type="curve"/>
      <point x="399" y="362" type="line"/>
      <point x="408" y="377" type="line"/>
      <point x="432" y="377" type="line" smooth="yes"/>
      <point x="473" y="377"/>
      <point x="513" y="360"/>
      <point x="553" y="325" type="curve" smooth="yes"/>
      <point x="594" y="290"/>
      <point x="614" y="254"/>
      <point x="614" y="219" type="curve" smooth="yes"/>
      <point x="614" y="183"/>
      <point x="603" y="150"/>
      <point x="581" y="119" type="curve" smooth="yes"/>
      <point x="560" y="88"/>
      <point x="536" y="73"/>
      <point x="511" y="73" type="curve" smooth="yes"/>
      <point x="500" y="73"/>
      <point x="490" y="76"/>
      <point x="481" y="81" type="curve" smooth="yes"/>
      <point x="472" y="87"/>
      <point x="465" y="95"/>
      <point x="462" y="104" type="curve"/>
      <point x="465" y="111"/>
      <point x="470" y="118"/>
      <point x="477" y="125" type="curve" smooth="yes"/>
      <point x="483" y="131"/>
      <point x="490" y="136"/>
      <point x="499" y="140" type="curve"/>
      <point x="426" y="207" type="line"/>
      <point x="416" y="207"/>
      <point x="406" y="200"/>
      <point x="394" y="187" type="curve" smooth="yes"/>
      <point x="382" y="173"/>
      <point x="369" y="157"/>
      <point x="358" y="134" type="curve" smooth="yes"/>
      <point x="349" y="116"/>
      <point x="338" y="101"/>
      <point x="325" y="89" type="curve" smooth="yes"/>
      <point x="312" y="78"/>
      <point x="299" y="73"/>
      <point x="286" y="73" type="curve" smooth="yes"/>
      <point x="276" y="73"/>
      <point x="267" y="76"/>
      <point x="259" y="81" type="curve"/>
      <point x="252" y="88"/>
      <point x="249" y="95"/>
      <point x="249" y="104" type="curve" smooth="yes"/>
      <point x="249" y="121"/>
      <point x="257" y="140"/>
      <point x="274" y="159" type="curve" smooth="yes"/>
      <point x="290" y="178"/>
      <point x="312" y="196"/>
      <point x="341" y="213" type="curve"/>
      <point x="292" y="268" type="line"/>
      <point x="273" y="255"/>
      <point x="253" y="249"/>
      <point x="231" y="249" type="curve" smooth="yes"/>
      <point x="212" y="249"/>
      <point x="186" y="254"/>
      <point x="152" y="264" type="curve" smooth="yes"/>
      <point x="117" y="274"/>
      <point x="91" y="279"/>
      <point x="73" y="279" type="curve" smooth="yes"/>
      <point x="58" y="279"/>
      <point x="44" y="276"/>
      <point x="31" y="269" type="curve"/>
      <point x="19" y="264"/>
      <point x="9" y="255"/>
      <point x="0" y="243" type="curve"/>
      <point x="60" y="183" type="line"/>
      <point x="69" y="190"/>
      <point x="79" y="196"/>
      <point x="88" y="201" type="curve"/>
      <point x="98" y="205"/>
      <point x="107" y="207"/>
      <point x="115" y="207" type="curve" smooth="yes"/>
      <point x="122" y="207"/>
      <point x="131" y="205"/>
      <point x="143" y="201" type="curve"/>
      <point x="154" y="196"/>
      <point x="163" y="194"/>
      <point x="170" y="194" type="curve" smooth="yes"/>
      <point x="194" y="194" type="line"/>
      <point x="178" y="179"/>
      <point x="167" y="164"/>
      <point x="158" y="149" type="curve" smooth="yes"/>
      <point x="150" y="135"/>
      <point x="145" y="122"/>
      <point x="145" y="109" type="curve" smooth="yes"/>
      <point x="145" y="83"/>
      <point x="166" y="58"/>
      <point x="209" y="35" type="curve" smooth="yes"/>
      <point x="251" y="12"/>
      <point x="295" y="0"/>
      <point x="341" y="0" type="curve" smooth="yes"/>
      <point x="354" y="0"/>
      <point x="367" y="5"/>
      <point x="382" y="15" type="curve" smooth="yes"/>
      <point x="397" y="24"/>
      <point x="411" y="38"/>
      <point x="426" y="55" type="curve"/>
      <point x="447" y="38"/>
      <point x="469" y="24"/>
      <point x="494" y="14" type="curve" smooth="yes"/>
      <point x="518" y="5"/>
      <point x="542" y="0"/>
      <point x="565" y="0" type="curve" smooth="yes"/>
      <point x="600" y="0"/>
      <point x="635" y="23"/>
      <point x="670" y="69" type="curve" smooth="yes"/>
      <point x="706" y="116"/>
      <point x="724" y="162"/>
      <point x="724" y="207" type="curve" smooth="yes"/>
      <point x="724" y="250"/>
      <point x="689" y="297"/>
      <point x="620" y="348" type="curve" smooth="yes"/>
      <point x="561" y="393"/>
      <point x="506" y="418"/>
    </contour>
    <contour>
      <point x="373" y="-137" type="curve" smooth="yes"/>
      <point x="387" y="-153"/>
      <point x="406" y="-170"/>
      <point x="431" y="-189" type="curve"/>
      <point x="510" y="-97" type="line"/>
      <point x="489" y="-83"/>
      <point x="472" y="-71"/>
      <point x="460" y="-57" type="curve" smooth="yes"/>
      <point x="448" y="-44"/>
      <point x="443" y="-33"/>
      <point x="443" y="-25" type="curve" smooth="yes"/>
      <point x="443" y="-22"/>
      <point x="444" y="-19"/>
      <point x="446" y="-15" type="curve" smooth="yes"/>
      <point x="448" y="-12"/>
      <point x="449" y="-9"/>
      <point x="449" y="-6" type="curve" smooth="yes"/>
      <point x="449" y="-3"/>
      <point x="448" y="0"/>
      <point x="445" y="1" type="curve"/>
      <point x="442" y="4"/>
      <point x="439" y="5"/>
      <point x="436" y="5" type="curve"/>
      <point x="409" y="-18"/>
      <point x="388" y="-38"/>
      <point x="374" y="-55" type="curve" smooth="yes"/>
      <point x="359" y="-72"/>
      <point x="351" y="-86"/>
      <point x="351" y="-97" type="curve" smooth="yes"/>
      <point x="351" y="-107"/>
      <point x="358" y="-120"/>
    </contour>
  </outline>
</glyph>
